<?xml version="1.0" encoding="utf-8"?>
<!-- Generator: Adobe Illustrator 25.4.1, SVG Export Plug-In . SVG Version: 6.00 Build 0)  -->
<svg version="1.1" id="Layer_1" xmlns="http://www.w3.org/2000/svg" xmlns:xlink="http://www.w3.org/1999/xlink" x="0px" y="0px"
	 viewBox="0 0 595.28 184.11" style="enable-background:new 0 0 595.28 184.11;" xml:space="preserve">
<style type="text/css">
	.st0{fill:#EA5B27;}
	.st1{fill:#F29222;}
</style>
<g>
	<g>
		<path d="M273.04,130.31h-8.62v23.36h-2.13v-23.36h-8.6v-1.8h19.35V130.31z"/>
		<path d="M294.43,128.52v17.17c-0.01,1.69-0.39,3.17-1.12,4.42c-0.74,1.25-1.78,2.22-3.12,2.89c-1.34,0.67-2.88,1.01-4.62,1.01
			c-2.65,0-4.77-0.72-6.37-2.17c-1.6-1.44-2.42-3.44-2.48-6v-17.33h2.11v17.02c0,2.12,0.6,3.76,1.81,4.93
			c1.21,1.17,2.85,1.75,4.92,1.75c2.07,0,3.71-0.59,4.92-1.76c1.2-1.17,1.81-2.81,1.81-4.91v-17.03H294.43z"/>
		<path d="M309.75,143.18h-7.31v10.49h-2.14v-25.15h8.17c2.68,0,4.78,0.65,6.29,1.95c1.51,1.3,2.26,3.12,2.26,5.45
			c0,1.61-0.47,3.03-1.42,4.26c-0.95,1.23-2.21,2.08-3.8,2.55l6.29,10.71v0.23h-2.26L309.75,143.18z M302.45,141.39h6.51
			c1.78,0,3.22-0.51,4.3-1.52c1.08-1.02,1.62-2.33,1.62-3.95c0-1.78-0.56-3.15-1.69-4.13c-1.13-0.98-2.71-1.47-4.75-1.47h-5.99
			V141.39z"/>
		<path d="M325.41,153.67h-2.13v-25.15h2.13V153.67z"/>
		<path d="M346.46,147.48c0-1.39-0.49-2.49-1.47-3.31c-0.98-0.81-2.77-1.58-5.37-2.31c-2.6-0.73-4.5-1.53-5.7-2.39
			c-1.7-1.22-2.56-2.82-2.56-4.8c0-1.92,0.79-3.49,2.37-4.69c1.58-1.2,3.61-1.81,6.07-1.81c1.67,0,3.16,0.32,4.48,0.97
			c1.32,0.65,2.34,1.54,3.07,2.7c0.72,1.15,1.09,2.44,1.09,3.85h-2.14c0-1.72-0.59-3.1-1.76-4.15c-1.17-1.04-2.75-1.57-4.73-1.57
			c-1.92,0-3.46,0.43-4.6,1.29c-1.14,0.86-1.71,1.98-1.71,3.36c0,1.28,0.51,2.33,1.54,3.13c1.02,0.81,2.67,1.52,4.92,2.14
			c2.26,0.62,3.97,1.26,5.13,1.92c1.16,0.66,2.04,1.45,2.63,2.38c0.59,0.92,0.88,2.01,0.88,3.27c0,1.98-0.79,3.57-2.37,4.77
			c-1.58,1.2-3.67,1.8-6.26,1.8c-1.77,0-3.4-0.32-4.88-0.95c-1.48-0.63-2.6-1.52-3.37-2.66c-0.77-1.14-1.15-2.45-1.15-3.92h2.13
			c0,1.77,0.66,3.17,1.99,4.2c1.33,1.03,3.09,1.54,5.29,1.54c1.96,0,3.53-0.43,4.72-1.3C345.87,150.06,346.46,148.91,346.46,147.48z
			"/>
		<path d="M356,128.52l9.28,22.2l9.31-22.2h2.83v25.15h-2.13v-10.95l0.17-11.23l-9.36,22.18h-1.64l-9.33-22.1l0.17,11.07v11.02
			h-2.13v-25.15H356z"/>
		<path d="M402.38,142.46c0,2.31-0.4,4.35-1.2,6.1c-0.8,1.75-1.94,3.1-3.43,4.04c-1.49,0.95-3.2,1.42-5.15,1.42
			c-2.94,0-5.31-1.05-7.12-3.15s-2.71-4.94-2.71-8.51v-2.59c0-2.29,0.41-4.32,1.22-6.09c0.81-1.77,1.96-3.13,3.45-4.08
			c1.49-0.95,3.2-1.43,5.13-1.43c1.94,0,3.64,0.47,5.12,1.4c1.48,0.93,2.62,2.25,3.43,3.95c0.81,1.7,1.23,3.68,1.26,5.93V142.46z
			 M400.26,139.73c0-3.03-0.69-5.4-2.06-7.12c-1.37-1.72-3.25-2.57-5.63-2.57c-2.34,0-4.2,0.86-5.59,2.58
			c-1.39,1.72-2.08,4.13-2.08,7.21v2.63c0,2.98,0.69,5.35,2.07,7.09c1.38,1.74,3.26,2.62,5.63,2.62c2.41,0,4.28-0.86,5.63-2.58
			c1.35-1.72,2.02-4.12,2.02-7.2V139.73z"/>
		<path d="M435.07,153.67h-2.13l-14.46-21.52v21.52h-2.14v-25.15h2.14l14.48,21.54v-21.54h2.11V153.67z"/>
		<path d="M460.05,142.46c0,2.31-0.4,4.35-1.2,6.1c-0.8,1.75-1.94,3.1-3.43,4.04c-1.49,0.95-3.2,1.42-5.15,1.42
			c-2.94,0-5.31-1.05-7.12-3.15c-1.81-2.1-2.71-4.94-2.71-8.51v-2.59c0-2.29,0.41-4.32,1.22-6.09c0.81-1.77,1.96-3.13,3.45-4.08
			c1.49-0.95,3.2-1.43,5.13-1.43s3.64,0.47,5.12,1.4c1.48,0.93,2.62,2.25,3.43,3.95c0.81,1.7,1.23,3.68,1.26,5.93V142.46z
			 M457.92,139.73c0-3.03-0.69-5.4-2.06-7.12c-1.37-1.72-3.25-2.57-5.63-2.57c-2.34,0-4.2,0.86-5.59,2.58
			c-1.39,1.72-2.08,4.13-2.08,7.21v2.63c0,2.98,0.69,5.35,2.07,7.09c1.38,1.74,3.26,2.62,5.63,2.62c2.41,0,4.28-0.86,5.63-2.58
			c1.35-1.72,2.02-4.12,2.02-7.2V139.73z"/>
		<path d="M474.8,143.18h-7.31v10.49h-2.14v-25.15h8.17c2.68,0,4.78,0.65,6.29,1.95c1.51,1.3,2.26,3.12,2.26,5.45
			c0,1.61-0.47,3.03-1.42,4.26c-0.94,1.23-2.21,2.08-3.8,2.55l6.29,10.71v0.23h-2.26L474.8,143.18z M467.5,141.39h6.51
			c1.78,0,3.22-0.51,4.3-1.52c1.08-1.02,1.62-2.33,1.62-3.95c0-1.78-0.56-3.15-1.69-4.13c-1.13-0.98-2.71-1.47-4.75-1.47h-5.99
			V141.39z"/>
		<path d="M503.55,130.31h-8.62v23.36h-2.13v-23.36h-8.6v-1.8h19.35V130.31z"/>
		<path d="M521.5,141.61h-11.76v10.26h13.53v1.8h-15.65v-25.15h15.56v1.8h-13.44v9.5h11.76V141.61z"/>
		<path d="M546.46,153.67h-2.13l-14.46-21.52v21.52h-2.14v-25.15h2.14l14.48,21.54v-21.54h2.11V153.67z M542.99,122.44
			c0,1.1-0.33,1.99-0.98,2.66c-0.65,0.67-1.45,1.01-2.39,1.01c-0.88,0-1.73-0.32-2.57-0.95c-0.83-0.63-1.58-0.95-2.24-0.95
			c-0.54,0-0.99,0.18-1.36,0.54c-0.36,0.36-0.54,0.86-0.54,1.5l-1.56-0.05c0-1.05,0.31-1.93,0.94-2.61
			c0.63-0.69,1.44-1.03,2.43-1.03c0.55,0,1.03,0.1,1.42,0.29c0.39,0.2,0.76,0.41,1.11,0.66c0.35,0.24,0.69,0.46,1.04,0.66
			c0.35,0.2,0.76,0.29,1.24,0.29c0.53,0,0.98-0.19,1.36-0.57c0.37-0.38,0.56-0.89,0.56-1.54L542.99,122.44z"/>
		<path d="M571.44,142.46c0,2.31-0.4,4.35-1.2,6.1c-0.8,1.75-1.94,3.1-3.43,4.04c-1.49,0.95-3.2,1.42-5.15,1.42
			c-2.94,0-5.31-1.05-7.12-3.15s-2.71-4.94-2.71-8.51v-2.59c0-2.29,0.41-4.32,1.22-6.09c0.81-1.77,1.96-3.13,3.45-4.08
			c1.49-0.95,3.2-1.43,5.13-1.43c1.94,0,3.64,0.47,5.12,1.4c1.48,0.93,2.62,2.25,3.43,3.95c0.81,1.7,1.23,3.68,1.26,5.93V142.46z
			 M569.32,139.73c0-3.03-0.69-5.4-2.05-7.12c-1.37-1.72-3.25-2.57-5.63-2.57c-2.34,0-4.2,0.86-5.59,2.58
			c-1.39,1.72-2.08,4.13-2.08,7.21v2.63c0,2.98,0.69,5.35,2.07,7.09s3.26,2.62,5.63,2.62c2.41,0,4.28-0.86,5.63-2.58
			c1.35-1.72,2.02-4.12,2.02-7.2V139.73z"/>
	</g>
	<g>
		<g>
			<path class="st0" d="M42.08,69.66C51.1,55.84,58.71,35.81,67.12,33.4c2.2,0.4,3.81,2.6,4.61,3.21c1.4-0.2-0.6,2.2,0.2,2
				c1.6-0.2,1.4,1.8,2.4,2.4c1,0.6,0.6,1,1.6,2c1,1.2,0.4,2.2,1.8,3.61c1,0.8,1.2,1.2,1.2,2.4c0,1.8,0,0.2,0.6,0
				c0.2,0,0.2-0.2,0.2-0.4c0.2-0.8,2,5.21,2.4,6.41c-1.6,13.22-4.01,52.29-3,53.69c8.41-15.83,32.05-60.5,35.26-78.13
				c0.4-4.21,1.8-7.21,3.41-7.21c0.8,0,1.4,0.6,2,1.6c0,0.8,0,0.8,0.4,0.2c1-1.6,0.8,0.4,1.4,0.4c0.4-0.2,0.8,0,0.8,0.4
				c0.4,1.2,1.2,0.4,1.4,1.6c0.4,1.2,1.8,2.2,1.8,3.21c0,1,1.8,1.2,2,2c0.2,0.4,0.6,2.2,0.8,3c0-0.6-0.2-2-0.2-2.6
				c8.62,13.02-3.01,28.45-15.63,56.3c-17.63,33.26-20.63,44.28-34.26,56.9c-0.4,0-1.4-2.2-1.4-3.21c0-0.4-0.2-0.6-0.8-0.4
				c-0.4,0-0.8-0.2-1.2-1.8c-0.4-2.41-1.2-2.01-2.2-3.21c-8.21-2.61-9.22-43.68-9.82-53.49c0-4.41,0-8.01-0.2-8.01
				c-8.82,13.22-34.66,62.51-37.46,75.93c-2.4,5.01,0.8,13.62-6.21,12.02c-0.4,0-0.2-4.61-0.8-4.41c-1,0.4-1.6-0.8-1.6-3.21
				c-0.2-3.81-0.8-1.8-3.21-4.81C2.01,140.79,34.07,87.09,42.08,69.66z M31.66,123.96c0.6-1,11.02-22.24,12.02-23.44
				c5.21-9.62,15.03-24.44,19.63-35.06c0-0.8-0.6-0.2-2.8,3.41C52.5,80.88,36.47,111.13,31.66,123.96z M33.87,112.34
				c0.2,0,1.4-2.6,4.01-7.41c4.21-10.22,22.84-37.66,26.25-47.88c0.2-1.4,0.4-2.6,0.2-2.8c-6.81,10.02-21.44,37.87-27.65,51.09
				C34.67,109.93,33.67,112.34,33.87,112.34z M41.28,80.48c8.21-15.63,16.83-29.45,21.44-37.86c-4.01,4.41-24.84,41.27-25.64,45.28
				C37.27,87.9,39.08,84.49,41.28,80.48z M51.5,72.67c2.4-4.61,11.02-18.63,12.82-22.44C60.51,54.64,41.28,89.5,40.28,92.9
				C42.48,89.5,48.69,77.28,51.5,72.67z M64.12,47.63c0.6-1,0-0.8-0.4,0C63.32,48.63,63.72,48.43,64.12,47.63z M65.12,41.62
				c0.4-0.2,0.6-0.6,0.8-1C67.12,38.61,64.72,41.62,65.12,41.62z M87.96,101.72c13.42-26.25,24.24-48.28,28.85-63.71
				c0-0.2-1.2,2.4-2.4,5.81c-6.81,18.03-25.04,53.29-35.26,73.53C79.14,118.15,81.55,113.94,87.96,101.72z M83.15,121.55
				c13.42-24.44,31.85-59.5,38.47-81.14c-8.62,24.24-31.65,66.71-41.87,86.95C79.75,127.36,81.35,124.76,83.15,121.55z
				 M80.15,133.17c0.2,0,0.8-0.4,1.4-1.6c8.41-15.03,40.27-70.72,42.27-90.55c-7.61,20.64-30.05,67.11-41.67,85.55
				C80.15,129.17,79.34,133.17,80.15,133.17z M82.55,136.58c4.61-5.81,46.08-83.94,44.48-93.96c-3.41,12.02-36.46,81.14-45.88,92.56
				C79.34,137.18,80.75,138.78,82.55,136.58z M81.75,140.99c0-0.2-0.2-0.4-0.4-0.4C80.75,140.58,81.75,141.99,81.75,140.99z
				 M124.42,30c0.4,0.6,0.4,0.6,0.2-0.2S124.02,29.6,124.42,30z"/>
			<path class="st0" d="M114.61,108.13c-0.8-15.23,20.63-66.31,39.07-66.31c1.4,0,2.6,0.4,3.81,0.8c1.6-3.01,4.21-4.21,7.01-4.21
				c5.41,0,11.82,4.01,14.42,8.21c28.05,29.25-19.83,91.16-47.28,86.75c-4.61-1.4-5.81-5.01-8.21-8.62
				C119.21,118.55,113.8,118.35,114.61,108.13z M122.42,88.9c0.2,0,0.8-1.6,2.6-6.01c1.2-2.8,4.41-10.22,4.21-10.22s-0.8,1-2.2,3.81
				C125.62,79.28,122.22,88.9,122.42,88.9z M126.23,100.52c1.6-3.41,5.21-12.42,7.61-17.43c7.01-15.83,14.62-24.64,21.04-33.46
				C143.66,55.44,128.83,85.89,126.23,100.52z M127.23,89.7c0,0,0.8-1.6,2.4-5.61c1.6-4.01,3.41-7.21,4.01-9.62
				C132.84,74.47,127.03,89.7,127.23,89.7z M127.23,107.33c0.6-0.4,1-3.21,2-5.41c4.21-13.22,16.43-35.46,20.64-42.07
				c-5.41,6.41-11.82,16.63-12.62,20.23C136.04,80.48,127.03,103.32,127.23,107.33z M133.64,113.34
				c19.23-5.41,39.07-38.67,39.47-55.69c1.2-6.81-4.61-2.6-8.01-4.21c-16.03,6.61-30.65,43.07-35.06,59.7
				C129.23,115.54,132.24,113.54,133.64,113.34z M133.04,68.26c1.4-2.4,4.81-7.61,5.81-9.42c-0.4,0-4.81,6.81-6.41,9.82
				C130.23,72.67,130.83,72.27,133.04,68.26z M134.44,70.06c0.6-1.4,0.2-1.2-0.4,0C133.24,71.67,133.84,71.47,134.44,70.06z
				 M136.24,132.57c0-0.2-0.4-0.2-0.6-0.2C134.84,132.57,136.64,132.77,136.24,132.57z M136.04,71.07c0.2,0,0.6-0.8,2-3
				c1.2-2.2,2.6-3.61,3.01-4.81C140.65,62.85,136.04,71.07,136.04,71.07z M143.46,121.75c16.63-5.41,37.06-34.66,37.06-50.09
				c-8.21,22.44-20.43,41.87-41.87,51.09C136.64,123.56,141.05,122.75,143.46,121.75z M143.86,71.07c0,0,1.2-1.6,3.61-5.01
				c3.81-5.81,7.61-10.02,10.62-13.82c-1,0-7.01,7.21-10.82,13.22C144.86,69.26,143.66,71.07,143.86,71.07z M145.66,125.56
				c0.2,0,1.4-0.6,4.01-2c5.61-3,11.42-7.81,15.83-13.22c3.21-4.01,3.61-4.61,1-1.6C163.29,114.54,144.66,125.56,145.66,125.56z
				 M156.08,117.75c0.2,0,2.2-1.8,5.41-5.01c9.82-9.02,19.43-24.64,21.44-36.86c1-4.01,0.6-4.41-0.4-0.8
				c-1.8,6.61-7.21,17.63-9.22,21.44c-3.81,5.41-8.21,11.82-14.42,18.03C156.68,116.74,155.88,117.75,156.08,117.75z M162.29,103.52
				c2.6-3.41,3.41-4.61,3.41-4.61c-0.4,0-6.81,8.01-8.61,9.82C158.88,107.13,160.48,105.53,162.29,103.52z M162.29,47.83
				c0.2,0.4,1.6,0,2.2-0.6C166.09,45.82,162.09,47.23,162.29,47.83z M162.49,99.11c0,0,0.4-0.4,0.6-0.8
				C164.29,96.91,161.69,99.31,162.49,99.11z M163.09,49.63c0,0.4,0.8,0.4,1.4,0C165.69,48.83,162.89,48.83,163.09,49.63z
				 M164.89,52.43c0-0.2-0.2-0.2-0.4-0.4C163.29,51.83,164.89,53.04,164.89,52.43z M164.29,96.51c0.2,0,0.4-0.4,0.6-0.6
				C166.09,94.51,163.49,96.71,164.29,96.51z M164.49,90.7c0,0,0.6-0.8,1.8-2.8c2.4-4.01,5.61-10.42,6.81-14.22
				c1.2-3.41,1-4.21-0.2-0.8C173.31,73.47,163.89,90.7,164.49,90.7z M167.3,95.51c0.4,0.4,0.4,0.2,0.8,0
				C168.3,94.91,167.1,94.91,167.3,95.51z M168.7,52.63h-1C166.7,52.84,169.5,52.84,168.7,52.63z M169.1,92.5
				c3.21-4.61,8.41-16.23,9.22-19.63c0-0.6-0.4,0.2-1,2c-2.6,6.61-7.41,15.43-9.62,19.83C167.7,94.71,168.5,93.71,169.1,92.5z
				 M183.92,71.67c0.2-0.4,0.4-1,0.4-1.8C184.53,66.86,183.32,72.47,183.92,71.67z"/>
			<path class="st0" d="M175.71,130.17c0-9.62,7.41-30.05,21.04-57.1c5.41-10.82,5.61-11.42,5.21-12.62c-0.6-1.8,0.2-0.8,0.8-1.2
				c0-0.2-0.4-0.4-0.8-0.4c-2-0.2,5.61-1.8,3-2.2c-0.4,0-1,0.2-1.4,0.6c-1,1-4.41,0.2-2.2-0.6c1.4,0,0-2,1.4-1.8
				c1.8,0,7.61-3.61,6.81-4.21c-0.2-0.4-6.01,2.2-7.01,3.01c-1.2,1.2-1,0-2,0.2c-1-2.2-4.21-8.82,3-11.02
				c5.81-2.4,15.03-5.01,23.44-5.01c6.21,0,12.02,1.4,15.83,5.41c21.44,24.84-1,51.69-28.65,62.11c-1.2,0.6-2.4,1-2.4,1
				c2.8,6.21,21.24,26.65,25.44,26.65c2.2,0,4.61,4.01,1,3.61c-3.01,0-1,3-5.21,1.4c-0.4,0-0.6,0-0.8,0.8
				c-0.4,1.2-3.81,5.61-5.61,5.01c-11.42-1.2-26.24-17.03-31.25-28.25c-3.41,7.01-9.82,23.44-8.82,23.44
				c2.4,2.01-0.8,8.01-3.41,5.81c-0.8-0.8-0.4-2.8-1.6-3.41c-0.6-0.4-0.8-1-0.8-2.2C180.32,134.98,174.71,135.58,175.71,130.17z
				 M189.13,120.15c0.2,0,0.8-1.4,2.2-4.81c1-2.4,1.8-4.41,1.8-4.61C192.54,111.13,188.93,120.15,189.13,120.15z M195.54,99.11
				c0-0.2-0.2-0.4-0.4-0.4c-0.2,0.2-5.21,12.62-5.21,12.82C189.93,111.74,196.14,99.11,195.54,99.11z M191.94,91.1
				c0.2,0,1.6-3.21,5.61-11.42c2.8-5.81,5.01-10.82,5.01-10.82C201.15,70.26,191.74,91.1,191.94,91.1z M195.94,104.12
				c0,0,0.2-0.2,0.6-0.4C197.35,102.32,195.34,103.72,195.94,104.12z M196.75,90.9c0,0,1.6-2.8,4.41-8.61
				c4.01-7.81,5.41-11.22,5.21-11.22c-0.2,0-1.8,3-4.21,8.01C198.35,87.09,196.55,90.9,196.75,90.9z M197.15,101.12
				c0.2,0.8,0.8,0.2,0.8-0.4C197.75,99.92,197.15,100.72,197.15,101.12z M200.35,90.3c1-1.4,16.23-31.45,16.83-31.85
				c-0.6,0-2.4,0.4-2.6,0.4C213.77,60.65,194.54,95.71,200.35,90.3z M202.36,50.83c0.2,0,0.4-0.4,0.8-0.6
				C204.36,48.63,201.75,51.03,202.36,50.83z M203.36,52.23c0-0.2,0-0.2-0.4-0.2C201.75,52.63,202.96,52.84,203.36,52.23z
				 M202.96,108.33c1.6,8.21,12.02,18.23,19.03,23.84c2.8,2.2,5.21,3.41,6.01,3.41c0.6,0,0-0.8-2-2.6
				C215.58,124.96,209.57,116.54,202.96,108.33z M203.96,99.92c1,0,3.61-0.6,5.81-1.4c12.82-5.21,29.85-15.43,33.86-28.05
				c-7.61,10.42-24.64,23.84-37.87,27.85C202.96,99.31,202.76,99.92,203.96,99.92z M203.36,89.5c0.4,0,4.21-6.61,8.42-15.43
				c5.81-10.82,8.01-15.83,7.61-15.83c-0.6,0-5.41,8.41-12.62,23.04C203.96,87.09,203.16,89.5,203.36,89.5z M207.77,61.25
				c0-0.4-0.2-0.2-0.6,0.8C206.16,63.85,207.97,61.65,207.77,61.25z M207.36,125.96c1.4,1.8,6.01,6.01,6.01,5.61
				c0,0-1.6-1.8-3.81-3.81C207.36,125.56,206.36,124.76,207.36,125.96z M221.59,125.16c0,0-1.4-1.8-3.21-4.01
				c-2-1.4-10.42-14.02-11.22-13.42C207.36,109.13,218.78,122.55,221.59,125.16z M209.77,65.86c0.8-1.6,0.4-1.4-0.2,0
				C208.77,67.26,209.17,67.06,209.77,65.86z M212.37,101.72c7.21-2.6,20.23-10.42,24.24-14.63c0.6-0.8,0.2-0.6-1.4,0.8
				c-8.21,6.61-18.43,11.22-25.84,14.22C209.37,102.52,210.17,102.52,212.37,101.72z M210.17,85.89c0.4,0,1.8-1,4.61-2.8
				c9.02-6.41,21.04-16.63,23.24-25.44c-1-1-12.62-0.8-15.23-0.2c-0.6,0-0.6,0.2-0.6,2.2c0,2-0.4,2.6-6.01,14.02
				C213.37,80.28,208.77,85.89,210.17,85.89z M210.77,114.34c4.21,6.41,14.22,18.43,20.84,19.83
				C225.19,129.17,216.78,121.75,210.77,114.34z M216.98,129.36c-0.2-0.4-4.61-4.61-6.21-6.01
				C212.17,124.76,217.38,130.37,216.98,129.36z M211.77,62.45c0.6-1.6,0.2-1.2-0.4,0C210.57,64.05,210.97,63.85,211.77,62.45z
				 M210.97,126.76l2.6,2.6c2.4,2.2,2.6,2.41,2.6,2.2C216.18,131.17,211.97,127.76,210.97,126.76z M212.97,132.57
				c0,1.2,7.01,6.21,7.61,5.41C220.39,137.78,213.57,132.97,212.97,132.57z M214.98,49.23c0.4,0.6,1.2,0.6,6.61-0.4
				c2.6-0.6,5.01-1,5.61-1.2C225.6,47.23,213.98,48.83,214.98,49.23z M216.38,87.29c1,0,14.22-10.22,15.23-11.42
				C232.81,74.87,215.98,87.29,216.38,87.29z M220.59,96.51c7.01-3.81,13.82-8.61,18.23-13.02c3.81-3.21,6.21-7.81,6.81-10.22
				c-1.8,1.8-7.41,10.42-7.81,9.82c-0.6-0.2,0.2,0.6-0.4,0.6c-4.41,3.41-10.22,8.82-17.63,12.82
				C215.58,98.91,216.18,98.91,220.59,96.51z M218.38,131.57c1,0.8,4.61,4.01,5.21,3.61c0-0.2-3.21-2.61-5.41-4.21
				C216.98,130.17,216.98,130.37,218.38,131.57z M225.8,86.49c0,0,1.2-1,4.41-3.41c2-1.6,4.21-4.01,6.21-5.81
				C233.61,79.88,225.6,86.49,225.8,86.49z M233.61,76.68c3.01-2.8,2.4-2.6-0.4,0C230.4,79.68,231,79.48,233.61,76.68z
				 M234.01,71.47c1.4-1.4,3-3.21,3.41-4.21c0.6-1,0.8-1.4,0.8-1.4c-0.4,0-3.41,4.21-5.41,6.61
				C232.01,73.47,232.21,73.27,234.01,71.47z M234.61,55.64h-0.8C233.01,55.84,235.21,55.84,234.61,55.64z M236.01,76.68
				c0,0,0.8-0.8,2.4-2.4c1.2-1.4,3.61-5.21,3.41-5.21c0,0-0.8,0.8-2.6,3.41C237.22,74.67,235.81,76.68,236.01,76.68z M237.82,56.04
				c-0.2-0.2-0.6-0.2-0.8,0C236.41,56.24,238.02,56.44,237.82,56.04z"/>
			<path class="st1" d="M272.26,55.29c2.23-4.46,1.93-2.68-2.97-2.83c-6.4-0.3-4.61,2.08-9.52,1.04l-0.45-1.64
				c0.15-0.3,0.74-0.89,1.04-1.04l-0.59-0.45c-2.83-1.34,3.87-1.34,1.04-2.68c-1.93-1.04-0.89-1.04-2.08-3.27
				c3.42-9.07,23.05-7.44,37.18-7.88c11.9,0.3,13.39,0.15,13.83,2.68c0.45,0,0.74,1.04,0.45,1.49c-0.3,0.3-0.3,0.3,0,0.45
				c0.45,0.3-1.04,1.19-1.19,1.49c0.3,0.15,1.04,0.3,1.49,0.45c-2.08,1.19-4.91,0.89-0.74,1.78c1.34,0.45-0.45,0.89,0.45,1.64
				c0.59,0.59,0.3,0.74-0.45,0.74c0.89,3.72-1.49,4.02-12.49,4.61c-3.12,0.45-6.54-0.74-7.29,1.19c-0.45,1.93-3.42,9.07-7.58,17.55
				c-6.99,14.57-14.87,32.42-21.42,48.04c-0.45,1.93-1.49,2.38-2.97,2.68l-0.15-1.49c0-2.83,0.59-2.23-1.64-1.93
				c-0.45-0.89,1.64-4.46-0.89-3.57c-1.19,0.3-0.89-0.59-1.64-0.74C244.6,110.02,267.65,68.83,272.26,55.29z M263.34,104.67
				c8.33-20.08,17.4-36.59,23.94-52.35c0.15-1.34-3.42,6.54-3.57,6.25c-5.35,9.07-22.31,49.38-24.24,54.58
				C258.88,115.08,260.21,112.4,263.34,104.67z M263.19,99.17c8.63-20.67,15.17-30.93,20.52-46.85
				c-5.65,8.03-22.16,50.12-23.8,54.14C259.92,106.9,260.21,106.01,263.19,99.17z M268.1,48.75c1.64-0.3,1.64-0.3-0.74-0.15
				c-1.34,0-2.83,0.15-3.27,0.3C262.89,49.49,267.35,48.75,268.1,48.75z M266.01,42.06c0.15,0.15,0.89-0.15,1.64-0.3
				C270.48,40.87,265.12,42.06,266.01,42.06z M266.01,46.52c1.04,1.04,2.97-0.15,6.54-0.15c4.76-0.45,5.5-0.74,5.5-1.49
				c0-0.3-2.08-0.3-7.88,0.3C266.46,45.63,265.86,45.63,266.01,46.52z M274.19,48.75c-2.38,0-6.99,0.3-8.18,0.89
				c0.89,0.45,3.57-0.45,5.95-0.3C276.57,49.05,276.13,48.75,274.19,48.75z M266.16,77.01c0.45-0.45,10.56-23.2,11.01-24.69
				c-0.45-0.45-4.16,7.88-8.77,18.89C266.16,76.86,266.01,77.15,266.16,77.01z M270.03,41.16c-0.3-0.15-0.45-0.15-0.74,0
				C268.84,41.31,270.48,41.31,270.03,41.16z M269.43,78.94c0.15,0.3,0.59-0.74,0.45-0.74C269.73,77.9,269.29,78.94,269.43,78.94z
				 M270.77,76.26c-0.15-0.3-0.59,0.74-0.59,0.89C270.33,77.3,270.77,76.41,270.77,76.26z M271.96,48.15h-1.34
				C269.88,48.3,272.71,48.3,271.96,48.15z M272.86,71.65c1.19-2.97,6.1-12.94,6.84-15.47c0.3-1.78-8.03,16.95-8.92,19.63
				C270.77,76.26,271.22,75.37,272.86,71.65z M305.87,44.88c0.15-0.45,1.78,0.3,0.59-0.45c-0.45-0.3-1.49-0.45-9.96-0.3
				c-5.5,0.45-9.67-0.3-9.67,0.89C284.46,45.92,306.76,45.03,305.87,44.88z M302.6,47.71c-5.06,0-13.83,0.3-12.49,0.74
				c2.23,0.45,8.77-0.15,11.75-0.15C307.66,47.86,306.17,47.71,302.6,47.71z M309.14,46.82c0.74,0.3,1.19,0,0.74-0.3
				C309.59,46.22,308.25,46.52,309.14,46.82z"/>
			<path class="st1" d="M302.3,72.99c1.64-4.91,13.09-33.61,19.19-33.61c0.59,0,1.19,0.15,1.93,0.59c1.93,1.04,2.53,1.49,2.23,2.08
				c-0.15,0.3-0.3,0.59-0.15,0.74c0.15,0,0,0.3-0.3,0.3c-0.59,0.3-3.12,4.02-5.5,8.18c-5.5,9.82-10.41,21.27-13.09,32.27
				c0,0.15,0.59-1.34,1.19-2.97c2.38-6.25,8.77-20.08,12.94-28.11c2.97-5.5,5.65-9.96,5.95-9.96c0.45,0,0,1.93-0.6,3.27
				c-5.65,9.52-10.71,19.63-15.02,29.89c-1.34,3.72-3.12,8.92-3.27,10.26c-0.15,0.89,0,0.45,0.74-1.49
				c0.45-1.34,1.04-2.68,1.19-2.97c0.15-0.15,0.89-1.78,1.49-3.42c3.12-8.03,11.45-25.73,14.87-31.53c0.74-1.34,1.19-2.38,1.19-2.97
				c0-1.04,0-0.89,1.19,0.59c4.02,5.06,1.19,4.16-4.76,15.62c-9.67,18.74-12.2,26.77-12.2,32.57v0.89
				c8.48-0.45,20.52-21.27,29.3-44.77c2.68-7.14,4.31-11.15,5.06-11.6c0.59-0.59,2.53-0.45,2.53,0c0,0.45,0.15,0.45,0.45,0.15
				c0.3-0.3,0.45-0.3,0.45,0c0.3,0,0.45,0.15,0.45,0.45c0,0.45,0.15,0.59,0.45,0.45h0.45c0,0.59-1.19,4.76-2.23,7.58
				c-0.59,1.78-1.04,3.42-1.04,3.42c0.15,0.15,1.04-2.38,2.38-6.69c0.59-1.93,1.04-3.27,1.19-2.97c0,0.3,0,0.3,0.15,0
				c0.45-0.59,0.45-0.15-0.15,2.23c-1.49,5.65-6.69,18.89-11.75,29.6c-4.31,8.92-11.9,24.84-21.27,29.89
				c-1.78,0.89-2.08,1.19-1.49,1.19c0.3,0.15,1.64-0.45,3.12-1.19c3.87-1.64,7.88-6.4,10.26-9.67c4.16-6.69,10.26-18.59,15.62-30.93
				c3.57-8.48,4.16-10.26,5.5-15.62c0.74-2.68,1.34-4.61,1.64-4.76c0.74-0.15-0.74,6.84-2.38,11.3
				c-4.91,12.64-15.76,37.78-24.84,47.15c-1.34,1.49-1.93,2.23-1.78,2.23c0.15,0,1.19-0.89,2.97-2.68
				c4.31-4.16,8.63-11.45,15.02-25.13c2.68-5.35,10.56-21.86,11.15-28.11c0.59-2.97,1.04-4.46,1.04-3.72
				c0.15,0.3,0.3,0.74,0.45,0.89c0.59,0.45,0.59,2.83,0.15,5.8c-1.04,8.77-17.55,41.35-22.76,48.93c-2.23,3.12-7.44,8.33-9.82,9.67
				c-2.68,1.64-6.4,2.53-8.48,2.23s-3.12-0.89-4.61-2.53c-0.89-0.74-1.64-1.78-1.64-2.08c-0.15-0.3-0.3-0.59-0.45-0.59
				c-0.15,0-0.45-0.59-0.89-1.19c-0.3-0.74-1.64-2.08-2.68-3.12c-2.23-2.23-2.97-3.57-3.72-7.29
				C298.44,87.71,299.33,81.77,302.3,72.99z M305.28,72.25c0.15,0,1.04-2.23,2.08-4.76c1.04-2.68,2.23-5.5,2.68-6.4
				c0.3-0.89,0.74-2.08,0.89-2.38c0.15-0.59,0.15-0.59-0.15-0.15C309.74,59.9,304.38,73.14,305.28,72.25z M309.74,70.02
				c0.59-1.49,1.78-4.31,2.68-6.25c0.89-1.93,1.49-3.57,1.34-3.57c-0.15-0.3-4.46,9.67-5.21,12.2
				C308.25,73.73,308.7,72.69,309.74,70.02z M312.86,56.18c0,0.15,0.59-1.04,1.49-2.68c0.74-1.49,1.93-3.42,2.23-4.31
				c0.59-0.74,0.74-1.19,0.45-0.89C316.43,49.05,312.86,55.89,312.86,56.18z M313.31,58.27c0,0.45,0.15,0.15,1.19-1.93
				c0.59-1.04,1.04-1.93,0.89-1.93C315.24,54.4,313.31,58.12,313.31,58.27z M314.94,58.56c0,0.45,0.15,0.15,1.34-2.23
				c0.59-1.19,1.04-2.23,1.04-2.23C317.18,54.1,314.94,58.27,314.94,58.56z M317.92,53.36l0.59-1.19c0.3-0.59,0.45-1.04,0.45-1.04
				c-0.15,0-0.45,0.45-0.74,1.04C317.92,52.76,317.77,53.36,317.92,53.36z M319.11,50.83c0.15,0,0.3-0.3,0.45-0.45
				c0.15-0.45,0.3-0.59,0.15-0.59c0,0-0.15,0.15-0.3,0.59C319.11,50.53,319.11,50.83,319.11,50.83z M321.49,103.03
				c1.49-0.74,2.68-1.64,4.31-3.27c0.89-1.04,1.93-1.93,2.23-2.23c-0.59,0.45-5.21,4.31-5.35,4.31c-0.74,0.45-3.57,1.93-3.57,2.08
				C319.11,104.22,319.41,104.07,321.49,103.03z M321.19,93.96c0.59-0.45,1.49-1.49,1.93-2.08c1.78-2.08,1.19-1.64-0.89,0.74
				C321.19,93.81,320.75,94.41,321.19,93.96z M321.94,55.74c0,0,1.04-1.78,2.68-4.91c1.49-2.68,2.68-5.06,2.53-5.06
				c-0.15-0.15-2.08,3.27-4.16,7.44C322.08,54.85,321.79,55.74,321.94,55.74z M323.57,95.6c0.59-0.45,1.49-1.64,2.23-2.53
				c1.64-1.93,0.89-1.49-1.34,1.34C323.57,95.45,323.12,95.89,323.57,95.6z M325.35,91.13c0.15,0,0.3-0.3,0.59-0.59
				c0.3-0.45,0.3-0.45-0.15,0C325.35,90.84,325.21,91.13,325.35,91.13z M327.59,84.29c5.65-8.03,12.34-23.65,15.76-33.02
				c0.74-1.78,1.19-3.27,1.19-3.27c0-0.15-0.3,0.45-0.59,1.19c-4.46,12.05-10.41,24.69-16.36,34.95
				C327.44,84.14,327.44,84.29,327.59,84.29z M329.37,87.42c0.15-0.15,0.89-1.49,1.78-2.83c1.49-2.53,6.99-13.09,6.99-13.53
				c0-0.15-1.19,2.08-2.83,4.91c-1.34,2.83-3.27,6.54-4.31,8.18C328.92,87.71,328.92,87.71,329.37,87.42z M342.9,60.65
				c2.83-6.84,4.46-11.15,4.31-11.3c0-0.15-0.3,0.59-0.74,1.64c-0.89,2.68-5.35,13.09-6.84,16.06c-0.59,1.64-1.19,2.97-1.19,2.97
				C338.44,70.61,340.97,64.96,342.9,60.65z"/>
			<path class="st1" d="M338.29,105.41c0-7.14,5.5-22.31,15.62-42.39c4.02-8.03,4.16-8.48,3.87-9.37c-0.45-1.34,0.15-0.59,0.6-0.89
				c0-0.15-0.3-0.3-0.6-0.3c-1.49-0.15,4.16-1.34,2.23-1.64c-0.3,0-0.74,0.15-1.04,0.45c-0.74,0.74-3.27,0.15-1.64-0.45
				c1.04,0,0-1.49,1.04-1.34c1.34,0,5.65-2.68,5.06-3.12c-0.15-0.3-4.46,1.64-5.21,2.23c-0.89,0.89-0.74,0-1.49,0.15
				c-0.74-1.64-3.12-6.54,2.23-8.18c4.31-1.78,11.15-3.72,17.4-3.72c4.61,0,8.92,1.04,11.75,4.02c15.91,18.44-0.74,38.37-21.27,46.1
				c-0.89,0.45-1.78,0.74-1.78,0.74c2.08,4.61,15.76,19.78,18.89,19.78c1.64,0,3.42,2.97,0.74,2.68c-2.23,0-0.74,2.23-3.87,1.04
				c-0.3,0-0.45,0-0.59,0.59c-0.3,0.89-2.83,4.16-4.16,3.72c-8.48-0.89-19.48-12.64-23.2-20.97c-2.53,5.21-7.29,17.4-6.54,17.4
				c1.78,1.49-0.59,5.95-2.53,4.31c-0.59-0.59-0.3-2.08-1.19-2.53c-0.45-0.3-0.59-0.74-0.59-1.64
				C341.71,108.98,337.55,109.43,338.29,105.41z M348.26,97.98c0.15,0,0.59-1.04,1.64-3.57c0.74-1.78,1.34-3.27,1.34-3.42
				C350.79,91.28,348.11,97.98,348.26,97.98z M353.02,82.36c0-0.15-0.15-0.3-0.3-0.3c-0.15,0.15-3.87,9.37-3.87,9.52
				C348.85,91.73,353.46,82.36,353.02,82.36z M350.34,76.41c0.15,0,1.19-2.38,4.16-8.48c2.08-4.31,3.72-8.03,3.72-8.03
				C357.18,60.94,350.19,76.41,350.34,76.41z M353.31,86.08c0,0,0.15-0.15,0.45-0.3C354.36,84.74,352.87,85.78,353.31,86.08z
				 M353.91,76.26c0,0,1.19-2.08,3.27-6.4c2.97-5.8,4.02-8.33,3.87-8.33c-0.15,0-1.34,2.23-3.12,5.95
				C355.1,73.44,353.76,76.26,353.91,76.26z M354.21,83.85c0.15,0.59,0.59,0.15,0.59-0.3C354.65,82.96,354.21,83.55,354.21,83.85z
				 M356.59,75.82c0.74-1.04,12.05-23.35,12.49-23.65c-0.45,0-1.78,0.3-1.93,0.3C366.55,53.81,352.27,79.83,356.59,75.82z
				 M358.07,46.52c0.15,0,0.3-0.3,0.59-0.45C359.56,44.88,357.63,46.67,358.07,46.52z M358.82,47.56c0-0.15,0-0.15-0.3-0.15
				C357.63,47.86,358.52,48.01,358.82,47.56z M358.52,89.2c1.19,6.1,8.92,13.53,14.13,17.7c2.08,1.64,3.87,2.53,4.46,2.53
				c0.45,0,0-0.59-1.49-1.93C367.89,101.55,363.43,95.3,358.52,89.2z M359.26,82.96c0.74,0,2.68-0.45,4.31-1.04
				c9.52-3.87,22.16-11.45,25.13-20.82c-5.65,7.73-18.29,17.7-28.11,20.67C358.52,82.51,358.37,82.96,359.26,82.96z M358.82,75.22
				c0.3,0,3.12-4.91,6.25-11.45c4.31-8.03,5.95-11.75,5.65-11.75c-0.45,0-4.02,6.25-9.37,17.1
				C359.26,73.44,358.67,75.22,358.82,75.22z M362.09,54.25c0-0.3-0.15-0.15-0.45,0.59C360.9,56.18,362.24,54.55,362.09,54.25z
				 M361.79,102.29c1.04,1.34,4.46,4.46,4.46,4.16c0,0-1.19-1.34-2.83-2.83C361.79,101.99,361.05,101.4,361.79,102.29z
				 M372.35,101.69c0,0-1.04-1.34-2.38-2.97c-1.49-1.04-7.73-10.41-8.33-9.96C361.79,89.8,370.27,99.76,372.35,101.69z
				 M363.58,57.67c0.6-1.19,0.3-1.04-0.15,0C362.83,58.71,363.13,58.56,363.58,57.67z M365.51,84.29c5.35-1.93,15.02-7.73,18-10.86
				c0.45-0.59,0.15-0.45-1.04,0.59c-6.1,4.91-13.68,8.33-19.19,10.56C363.28,84.89,363.87,84.89,365.51,84.29z M363.87,72.54
				c0.3,0,1.34-0.74,3.42-2.08c6.69-4.76,15.62-12.34,17.25-18.89c-0.74-0.74-9.37-0.59-11.3-0.15c-0.45,0-0.45,0.15-0.45,1.64
				c0,1.49-0.3,1.93-4.46,10.41C366.25,68.38,362.83,72.54,363.87,72.54z M364.32,93.66c3.12,4.76,10.56,13.68,15.47,14.72
				C375.03,104.67,368.78,99.17,364.32,93.66z M368.93,104.82c-0.15-0.3-3.42-3.42-4.61-4.46
				C365.36,101.4,369.23,105.56,368.93,104.82z M365.06,55.14c0.45-1.19,0.15-0.89-0.3,0C364.17,56.33,364.47,56.18,365.06,55.14z
				 M364.47,102.88l1.93,1.93c1.78,1.64,1.93,1.78,1.93,1.64C368.34,106.16,365.21,103.63,364.47,102.88z M365.96,107.2
				c0,0.89,5.2,4.61,5.65,4.02C371.46,111.06,366.4,107.49,365.96,107.2z M367.44,45.33c0.3,0.45,0.89,0.45,4.91-0.3
				c1.93-0.45,3.72-0.74,4.16-0.89C375.33,43.84,366.7,45.03,367.44,45.33z M368.48,73.59c0.74,0,10.56-7.58,11.3-8.48
				C380.68,64.36,368.19,73.59,368.48,73.59z M371.61,80.43c5.21-2.83,10.26-6.4,13.53-9.67c2.83-2.38,4.61-5.8,5.06-7.58
				c-1.34,1.34-5.5,7.73-5.8,7.29c-0.45-0.15,0.15,0.45-0.3,0.45c-3.27,2.53-7.58,6.54-13.09,9.52
				C367.89,82.21,368.34,82.21,371.61,80.43z M369.97,106.45c0.74,0.59,3.42,2.97,3.87,2.68c0-0.15-2.38-1.93-4.01-3.12
				C368.93,105.41,368.93,105.56,369.97,106.45z M375.48,72.99c0,0,0.89-0.74,3.27-2.53c1.49-1.19,3.12-2.97,4.61-4.31
				C381.27,68.08,375.33,72.99,375.48,72.99z M381.27,65.7c2.23-2.08,1.78-1.93-0.3,0C378.89,67.93,379.34,67.79,381.27,65.7z
				 M381.57,61.84c1.04-1.04,2.23-2.38,2.53-3.12c0.45-0.74,0.59-1.04,0.59-1.04c-0.3,0-2.53,3.12-4.02,4.91
				C380.08,63.32,380.23,63.17,381.57,61.84z M382.02,50.09h-0.59C380.83,50.24,382.46,50.24,382.02,50.09z M383.06,65.7
				c0,0,0.59-0.59,1.78-1.78c0.89-1.04,2.68-3.87,2.53-3.87c0,0-0.59,0.59-1.93,2.53C383.95,64.22,382.91,65.7,383.06,65.7z
				 M384.4,50.38c-0.15-0.15-0.45-0.15-0.59,0C383.36,50.53,384.55,50.68,384.4,50.38z"/>
			<path class="st1" d="M382.62,103.93c2.23-16.06,16.51-48.04,23.5-59.04c2.53-3.87,4.02-5.5,5.5-5.5c0.74,0,1.49,0.45,2.38,1.34
				c1.04,0.89,1.19,1.04,0.89,1.78c-0.15,0.45-0.15,0.59,0,0.59c0.45-0.3,0.15,0.74,0.45,0.15c0.74,1.04-10.11,20.52-10.86,22.9
				c-2.08,5.06-5.65,13.24-5.65,13.39c1.19-1.64,16.21-31.98,17.1-35.1c5.8,6.1-0.3,12.49-5.65,24.99
				c-7.73,15.47-11.45,24.69-17.25,38.97c-2.53,4.91-2.08,7.14-5.2,6.99c-0.15-0.3,0.3-1.04-0.15-1.19
				c-0.6-0.74,1.19-2.53,1.34-3.12c0.3-0.74,0.3-0.74-0.15-0.3c-1.04,0.89-1.78,1.49-2.08,1.49c-0.59-0.3,0.59-2.97,0.15-3.72
				c-0.15-0.59-0.3-0.89-0.3-0.45c0,1.19-1.04-0.59-0.89,1.64c-0.15-0.45-1.04-1.49-0.89-1.64c0.15-0.15,0-0.15-0.3,0
				c-1.04-0.15-0.59-0.74-1.34-1.49C382.47,106.01,382.47,105.86,382.62,103.93z M399.87,83.7c5.65-13.53,12.05-22.61,15.62-33.02
				c0.45-1.04,0.6-2.08,0.6-2.08c-0.15,0-0.6,0.74-1.64,2.97c-4.31,9.52-14.57,28.85-16.81,37.18
				C397.64,88.76,398.68,86.38,399.87,83.7z M408.05,47.56c0.45-0.89,1.19-1.93,1.49-2.38c0.3-2.97-8.77,15.17-9.67,18
				C400.31,62.73,407.6,48.15,408.05,47.56z M413.7,44.73c-0.3,0-10.56,19.33-9.96,19.33c0.74-1.04,8.48-16.21,9.07-17.25
				C413.55,45.33,413.85,44.73,413.7,44.73z"/>
			<path class="st1" d="M411.02,100.36c0.59-1.78,0.3-3.57,2.08-3.57c0.45,0,1.19,0.15,2.08,0.59c2.38,0.89,5.35,1.34,8.63,1.34
				c5.35,0,11.01-1.34,13.83-4.16c-8.03-7.73-22.16-15.91-20.97-28.11c0.89-11.6,8.92-20.08,19.33-27.37
				c6.39-3.72,10.41-6.1,14.13-6.1c5.8,0,14.72,8.48,15.02,14.28c0.45,5.95-3.72,15.91-11.9,28.26c-3.27,5.06-5.8,8.03-6.84,8.33
				c-1.34,0.45-2.38-1.34-1.04-2.08c1.34-0.74,4.91-5.65,7.73-10.41c1.04-1.93,0.15-0.59-2.68,3.57c-2.53,3.87-7.58,9.67-6.39,6.4
				c6.54-11.01,17.7-26.32,16.21-34.36c-2.68,8.33-7.29,18.14-15.91,31.53c-0.74,0.74-0.74,2.68-1.04,1.93
				c-0.59-0.59-0.3,1.04-1.34,0.3c-4.16-3.12-2.23-4.76,1.93-13.53c3.57-7.14,7.29-14.43,8.33-19.19
				c-10.71,3.87-29.45,19.78-22.31,30.19c7.58,6.1,21.12,12.05,22.31,22.9c0.15,6.69-12.64,14.43-20.82,12.94
				c-5.5-0.89-12.94-2.38-15.02-6.99c-0.15-0.59-1.04-1.34-1.19-2.08c-0.45-0.45,0.74,0.3,1.19,0.15
				C418.46,105.41,410.13,100.95,411.02,100.36z M420.69,61.09c1.04-3.57-0.3-1.49-0.74,1.04C419.8,63.77,420.09,63.17,420.69,61.09
				z M421.73,59.61c0.15,0,0.45-0.74,1.49-2.68c0.74-1.19,1.04-2.08,0.74-1.78C423.22,56.18,421.58,59.61,421.73,59.61z
				 M423.22,63.32c0.15,0.59,0.74-1.64,0.74-1.78C423.81,61.54,423.07,63.32,423.22,63.32z M423.22,59.9
				c0.15,0.45,1.19-1.78,1.04-1.78C424.11,57.82,423.07,59.9,423.22,59.9z M424.11,68.23c0,0,0.89-1.78,1.78-3.87
				c1.93-8.03,13.39-17.55,18-21.12C435.41,47.71,423.07,58.71,424.11,68.23z M425.89,58.71c0.3-0.74,0-0.59-0.3,0
				C425.3,59.61,425.59,59.31,425.89,58.71z M425.89,70.16c0-0.15,0.15-0.74,0.45-1.19c1.34-3.72,3.27-8.77,5.5-11.75
				C428.72,60.05,424.7,67.64,425.89,70.16z M429.16,62.88c0.15,0,0.59-0.74,1.04-1.49c1.19-2.53,7.14-8.33,8.18-9.96
				C435.86,52.91,429.61,60.65,429.16,62.88z M435.11,112.85h-2.08C431.54,113,436.45,113,435.11,112.85z M438.39,104.82
				c0.74-0.15,1.93-0.59,2.83-1.04c1.93-0.74,4.46-2.53,4.46-3.12c-0.45-1.19-0.59-1.04-2.53,0.59
				C442.85,102.14,435.86,105.41,438.39,104.82z M442.25,76.11c0-0.3-0.15-0.59-0.15-0.59C441.66,75.82,441.81,77.6,442.25,76.11z
				 M441.95,107.49c1.34,0,5.95-3.42,6.54-4.61C448.65,102.59,441.36,107.49,441.95,107.49z M443,77.01c0,0.3,0.15,0.3,0.3-0.15
				C443.59,76.11,443,76.86,443,77.01z M444.04,77.9c1.49-2.38-0.59,0.45-0.74,1.04C443.29,79.24,443.29,79.24,444.04,77.9z
				 M444.78,71.8c0.59-1.19,0.15-0.89-0.3,0C443.89,72.99,444.33,72.69,444.78,71.8z M445.52,70.16c0.15,0,0.3-0.3,0.59-0.89
				C447.16,67.19,445.38,69.87,445.52,70.16z M447.9,101.84c-0.3-0.3-0.89,0.3-1.49,1.34C446.12,103.93,448.2,101.84,447.9,101.84z
				 M446.42,79.98c0.15,0,1.19-1.34,2.97-4.02c7.88-12.05,13.39-22.01,12.79-27.66c-2.23,8.48-6.69,17.4-13.68,28.11
				C447.01,78.79,446.27,79.98,446.42,79.98z M448.5,70.76c0.3-0.89,0-0.74-0.3,0C447.76,71.5,448.2,71.35,448.5,70.76z
				 M449.24,63.62c0.45-0.74,0-0.59-0.3,0C448.65,64.36,448.95,64.22,449.24,63.62z M449.24,69.27c0.45-0.74,0-0.59-0.3,0
				C448.65,70.16,448.95,70.02,449.24,69.27z M449.69,68.53c0,0,0.3-0.45,0.59-1.04C451.62,64.51,449.54,68.08,449.69,68.53z
				 M454.15,51.13c0.89-2.97,1.34-4.31,1.19-4.31c-0.15,0-1.78,4.02-3.27,8.77C451.77,56.93,453.41,53.06,454.15,51.13z
				 M453.7,61.24c0.3-0.59,0.45-0.89,0.45-1.04c-0.15,0-0.45,0.45-0.59,0.89C452.96,62.28,453.11,62.28,453.7,61.24z M453.7,70.16
				c0.15,0,0.3-0.15,0.45-0.59C454.74,68.23,453.56,70.02,453.7,70.16z M455.04,68.23c0.3-0.74,0-0.59-0.3,0
				C454.3,69.12,454.74,68.83,455.04,68.23z M455.64,55.59c0.15,0,1.64-3.42,2.08-4.76c0.45-1.19,0.74-2.83,0.89-3.42
				c-0.15-0.74-1.64,4.76-2.08,5.5C455.79,55,455.64,55.59,455.64,55.59z"/>
			<path class="st1" d="M487.47,37.3c1.34,0,2.53,0.89,3.42,2.53c0.59-0.15,0.59-0.15,0.15,0.74c-0.45,0.89-0.3,1.49,0.15,0.89
				c1.34-1.19,1.19,0.89,2.08,0.74c0.45-0.15,1.78,2.38,1.78,3.42c4.46,5.65,0.45,19.04-0.15,27.37
				c4.76-3.87,11.15-13.09,16.81-17.85c8.92-8.18,13.53-14.72,22.01-16.51c2.97,0,4.16,1.64,5.06,3.12c0.3-0.3,0.3,0.3-0.15,1.19
				c-1.04,1.49,0.6,2.08,0.45,0.74v-0.74c0.3-0.3,1.34,0.3,1.34,0.89c0,0.3,0.15,0.59,0.15,0.59c0.59,0-0.15-1.04,0.3-0.45
				c0.45,0.45,1.34,2.97,1.34,4.02c-3.87,13.24-27.37,52.95-29.74,63.65c-0.59,1.78-1.49,4.46-2.38,4.46c-0.15,0-0.45-0.3-0.74-0.74
				c-0.3-0.59,0.45-3.12,0.45-3.57c0,0-0.45,0.3-0.89,0.74c-2.38,3.12-0.15-4.46-0.74-2.83c-0.15,0.74-0.6,0.59-0.6-0.15
				c0.15-1.04-1.04,0.45-1.04,0.59c0,0.59-0.45,0.45-0.6-0.15c-0.3-0.89-1.64-0.3-1.49-1.19c-0.89-0.3-1.49-0.45-1.19-3.12
				c0.45-5.21,3.57-14.72,8.48-27.37c2.23-4.31-3.87,3.27-9.37,8.18c-8.92,8.92-9.52,9.67-9.67,10.71c0,1.19-1.34,3.12-2.08,1.93
				c-0.15-0.15-0.89,0.45-2.08,1.64c-2.68,3.57-4.31,1.34-2.23-0.89c1.64-1.78,2.53-2.97,2.38-3.57c-0.3-0.59-4.46,4.91-4.61,3.57
				c0,0,4.46-5.5,3.57-5.35c0-0.89-2.97,2.97-2.97,2.23c0.15-1.04,1.19-2.68-0.45-0.45c-1.49,1.93-1.04-0.15-1.04-0.74
				c-0.59,1.34-1.34-0.59-1.78-0.74c-1.34,0,1.34-5.5,2.68-7.29c-0.15-5.8,0.3-15.17,0.45-20.08c-4.31,7.29-17.99,32.12-23.2,42.39
				c-2.08,4.76-5.21,9.22-4.16,2.83c1.64-4.16,3.27-7.58,6.25-13.24c4.16-8.77,19.78-34.65,22.31-43.43
				c-0.59,0.59-7.73,13.53-7.58,13.98c0,0.3-0.15,0.3-0.3,0.3c-0.3-0.15,0.15,0.74-0.15,0.89c-0.59,0.3,0-0.45-0.15-0.45
				c-0.15-0.15-1.19,1.64-0.74,1.49c0.45-0.15-0.15,0.74-0.3,0.45c-0.15,0-0.15,0.15,0,0.3c0,0.45,0,0.45-0.3,0.3
				c-0.45-0.15,0,1.04-0.6,1.34c-1.19,1.34-16.06,30.19-17.25,34.06c-1.04,2.53-2.68,4.91-3.27,4.31c-0.3,0.15,2.23-6.4,1.34-4.91
				c0.15,1.04-0.74,0-0.74,0.89c-0.15,0.89-0.74,0.3-0.59-0.15c0.3-1.04-0.89,0.15-1.04,0.59c-0.45,1.19-0.45-0.89-1.04-0.74
				c-0.3-0.15-0.3,0-0.3,0.15c-0.3,0.59-1.04-1.04-0.59-1.49c0-0.3-1.19,1.34-1.19-0.15C447.16,111.66,474.53,37.3,487.47,37.3z
				 M460.7,99.61c2.97-6.1,6.54-12.79,12.2-23.05c13.39-24.39,13.98-25.88,14.57-29.15l0.15-1.04
				c-4.16,5.65-27.07,49.08-29.89,59.64C458.02,105.56,459.36,102.59,460.7,99.61z M469.17,68.98c3.27-6.69,4.46-9.37,4.31-9.37
				c-0.3,0-11.75,22.61-12.2,24.84C463.37,80.87,465.6,75.97,469.17,68.98z M461.89,92.03c0.15,0.3,0.89-1.34,0.74-1.34
				C462.48,90.39,461.74,92.03,461.89,92.03z M463.08,89.35c0.15,0,1.93-3.57,6.84-13.24c4.02-7.88,6.25-12.49,6.25-12.49
				c-0.15,0-1.64,2.68-4.91,8.77C468.13,78.34,462.93,89.35,463.08,89.35z M475.72,61.69c1.04-2.08,0.74-1.93-0.3,0
				C474.38,63.92,474.68,63.77,475.72,61.69z M475.42,58.27c0.15,0,1.04-1.34,2.23-3.57c2.08-4.16,4.76-8.18,5.8-10.26
				c-0.3,0-5.06,7.88-7.29,12.34C475.57,57.82,475.42,58.27,475.42,58.27z M479.88,53.66c-0.15,0-3.27,5.5-3.12,6.1
				c0.15-0.15,0.89-1.64,1.78-3.27C479.58,54.4,479.88,53.66,479.88,53.66z M477.95,61.24c0.15,0,0.3-0.3,0.59-0.89
				C479.58,58.27,477.8,60.94,477.95,61.24z M480.48,56.93c1.19-2.38,5.65-9.52,6.25-10.86c-0.3,0.15-6.39,9.96-7.44,12.64
				C479.29,58.71,479.88,57.97,480.48,56.93z M500.11,84.44c3.57-4.02,16.06-16.06,17.1-18.74c0.3-1.04-18.59,19.19-20.23,20.67
				l1.34-1.19c0.74-0.74,0.3-0.15-1.04,1.19c-3.27,3.12-4.16,4.16-4.31,5.21C492.67,92.47,491.93,93.22,500.11,84.44z M493.41,88.76
				c1.93-2.08,3.27-3.57,6.99-7.58c4.61-5.5,19.19-19.04,21.42-24.39c-4.16,2.97-15.32,15.32-24.54,25.43
				C492.97,87.27,493.41,86.08,493.41,88.76z M493.71,84.44c0.15,0,1.19-1.19,4.02-4.31c3.57-4.31,3.57-3.57,5.8-5.95
				C501.45,74.92,493.41,84.44,493.71,84.44z M494.01,78.94c0.15,0,1.34-1.34,4.31-4.91c1.64-1.93,2.38-2.97,2.38-2.97
				c-0.15,0-0.3,0.15-0.74,0.59C497.13,74.48,493.86,78.94,494.01,78.94z M495.5,47.71c0.15,0,0.3-0.15,0.3-0.3
				C495.5,46.52,494.9,47.86,495.5,47.71z M497.43,78.34c0.15,0,0.45-0.3,0.74-0.59C499.21,76.41,497.43,78.05,497.43,78.34z
				 M499.96,75.52l0.89-0.89C499.81,75.37,497.88,77.75,499.96,75.52z M500.7,74.48c0.15,0,2.38-2.38,5.06-5.35
				c2.68-2.97,3.87-4.31,2.68-3.12C505.76,68.83,500.55,74.48,500.7,74.48z M501.89,70.91c0.15,0,1.19-1.19,3.87-4.02
				c0.74-1.04,10.86-11.6,10.56-11.6c0,0-0.3,0.3-0.89,0.89C512.15,59.31,501.74,70.91,501.89,70.91z M505.91,71.5
				c1.19-1.19,4.31-4.61,7.14-7.44l4.76-5.21c-3.27,3.27-8.63,8.92-11.45,11.9C504.12,73.29,503.97,73.44,505.91,71.5z
				 M508.73,76.11c0,0,1.34-1.19,3.57-3.42c2.23-2.38,3.27-3.42,3.27-3.42c-0.15,0-1.34,1.19-3.57,3.42
				C509.63,74.92,508.58,76.11,508.73,76.11z M510.82,107.94c0.3,0,3.27-8.63,4.02-9.82c5.21-11.75,16.21-32.27,22.61-45.96
				c-0.59,0.59-3.12,3.57-2.53,3.72c0.3-0.15,0.3,0,0,0.3c-0.59,1.04-0.89,0.74-1.64,2.38c-0.45,0.89-0.74,1.64-0.59,1.49
				c0.15-0.15,0.3,0,0.15,0.15c-0.15,0.3-0.3,0.45-0.3,0.3c-0.45-0.15,0.15,0.89-0.45,0.89l-0.3,0.3c0,0.45-0.74,0.59-1.04,1.64
				c-0.45,0.89-0.59,1.49-0.45,1.34c0.45-0.3-0.15,0.74-0.3,0.45c-0.3-0.15,0.3,1.04-0.15,0.59c-0.3-0.15-0.3,0-0.15,0.3
				c0.3,0.74-0.59-0.3-0.3,0.45c-5.21,8.92-14.13,28.26-17.7,38.52C510.96,107.2,510.82,107.94,510.82,107.94z M510.96,101.69
				c0.15,0,0.89-1.93,2.97-6.84c4.31-9.96,14.87-30.79,18.89-37.78c-5.5,3.72-7.88,11.75-13.39,23.05
				C516.47,86.67,510.67,101.69,510.96,101.69z M513.49,81.77c0,0,0.74-1.49,2.38-5.35c2.08-4.61,2.53-5.65,1.78-4.76
				C516.91,72.84,513.34,81.77,513.49,81.77z M515.13,86.67c0.15,0.3,0.59-0.74,0.45-0.89C515.43,85.48,514.98,86.52,515.13,86.67z
				 M518.1,80.28c1.34-3.42,6.69-13.83,7.59-16.51c-0.74,0.45-8.48,17.1-9.96,21.27C515.13,86.52,516.17,84.59,518.1,80.28z
				 M529.55,50.68c0.15-0.3,0.74-0.89,1.04-1.49C531.79,46.82,528.96,50.83,529.55,50.68z M535.06,50.53
				c0.45-0.45,1.04-1.19,1.19-1.34c0.45-0.59,0.3-0.59-0.45,0C534.17,50.38,533.12,52.62,535.06,50.53z M538.03,46.22
				c0.15-0.3-0.45-0.3-0.45,0C537.73,46.67,537.88,46.52,538.03,46.22z"/>
			<path class="st1" d="M531.93,89.05c-0.59-11.3,15.32-49.23,29-49.23c1.04,0,1.93,0.3,2.83,0.59c1.19-2.23,3.12-3.12,5.2-3.12
				c4.02,0,8.78,2.97,10.71,6.1c20.82,21.71-14.72,67.67-35.1,64.4c-3.42-1.04-4.31-3.72-6.1-6.4
				C535.36,96.79,531.34,96.64,531.93,89.05z M537.74,74.78c0.15,0,0.59-1.19,1.93-4.46c0.89-2.08,3.27-7.58,3.12-7.58
				s-0.59,0.74-1.64,2.83C540.12,67.64,537.59,74.78,537.74,74.78z M540.56,83.4c1.19-2.53,3.87-9.22,5.65-12.94
				c5.21-11.75,10.86-18.29,15.62-24.84C553.5,49.94,542.5,72.54,540.56,83.4z M541.31,75.37c0,0,0.59-1.19,1.78-4.16
				c1.19-2.97,2.53-5.35,2.97-7.14C545.47,64.07,541.16,75.37,541.31,75.37z M541.31,88.46c0.45-0.3,0.74-2.38,1.49-4.02
				c3.12-9.82,12.2-26.32,15.32-31.23c-4.02,4.76-8.78,12.34-9.37,15.02C547.85,68.53,541.16,85.48,541.31,88.46z M546.06,92.92
				c14.28-4.02,29-28.7,29.3-41.35c0.89-5.06-3.42-1.93-5.95-3.12c-11.9,4.91-22.76,31.98-26.03,44.32
				C542.79,94.56,545.02,93.07,546.06,92.92z M545.62,59.46c1.04-1.78,3.57-5.65,4.31-6.99c-0.3,0-3.57,5.06-4.76,7.29
				C543.54,62.73,543.98,62.43,545.62,59.46z M546.66,60.8c0.45-1.04,0.15-0.89-0.3,0C545.77,61.99,546.21,61.84,546.66,60.8z
				 M548,107.2c0-0.15-0.3-0.15-0.45-0.15C546.96,107.2,548.29,107.35,548,107.2z M547.85,61.54c0.15,0,0.45-0.59,1.49-2.23
				c0.89-1.64,1.93-2.68,2.23-3.57C551.27,55.44,547.85,61.54,547.85,61.54z M553.35,99.17c12.34-4.02,27.51-25.73,27.51-37.18
				c-6.1,16.66-15.17,31.08-31.08,37.92C548.29,100.5,551.57,99.91,553.35,99.17z M553.65,61.54c0,0,0.89-1.19,2.68-3.72
				c2.83-4.31,5.65-7.44,7.88-10.26c-0.74,0-5.21,5.35-8.03,9.82C554.39,60.2,553.5,61.54,553.65,61.54z M554.99,101.99
				c0.15,0,1.04-0.45,2.97-1.49c4.16-2.23,8.48-5.8,11.75-9.82c2.38-2.97,2.68-3.42,0.74-1.19
				C568.08,93.81,554.24,101.99,554.99,101.99z M562.72,96.19c0.15,0,1.64-1.34,4.02-3.72c7.29-6.69,14.43-18.29,15.91-27.37
				c0.74-2.97,0.45-3.27-0.3-0.59c-1.34,4.91-5.35,13.09-6.84,15.91c-2.83,4.02-6.1,8.77-10.71,13.39
				C563.17,95.45,562.57,96.19,562.72,96.19z M567.33,85.63c1.93-2.53,2.53-3.42,2.53-3.42c-0.3,0-5.06,5.95-6.4,7.29
				C564.8,88.31,565.99,87.12,567.33,85.63z M567.33,44.29c0.15,0.3,1.19,0,1.64-0.45C570.16,42.8,567.18,43.84,567.33,44.29z
				 M567.48,82.36c0,0,0.3-0.3,0.45-0.59C568.82,80.72,566.89,82.51,567.48,82.36z M567.93,45.63c0,0.3,0.59,0.3,1.04,0
				C569.86,45.03,567.78,45.03,567.93,45.63z M569.27,47.71c0-0.15-0.15-0.15-0.3-0.3C568.08,47.26,569.27,48.15,569.27,47.71z
				 M568.82,80.43c0.15,0,0.3-0.3,0.45-0.45C570.16,78.94,568.22,80.58,568.82,80.43z M568.97,76.11c0,0,0.45-0.59,1.34-2.08
				c1.78-2.97,4.16-7.73,5.06-10.56c0.89-2.53,0.74-3.12-0.15-0.59C575.51,63.32,568.52,76.11,568.97,76.11z M571.05,79.68
				c0.3,0.3,0.3,0.15,0.59,0C571.79,79.24,570.9,79.24,571.05,79.68z M572.09,47.86h-0.74C570.6,48.01,572.69,48.01,572.09,47.86z
				 M572.39,77.45c2.38-3.42,6.25-12.05,6.84-14.57c0-0.45-0.3,0.15-0.74,1.49c-1.93,4.91-5.5,11.45-7.14,14.72
				C571.35,79.09,571.94,78.34,572.39,77.45z M583.39,61.99c0.15-0.3,0.3-0.74,0.3-1.34C583.84,58.42,582.95,62.58,583.39,61.99z"/>
		</g>
	</g>
</g>
</svg>
