<?xml version="1.0" encoding="utf-8"?>
<!-- Generator: Adobe Illustrator 25.4.1, SVG Export Plug-In . SVG Version: 6.00 Build 0)  -->
<svg version="1.1" id="Layer_1" xmlns="http://www.w3.org/2000/svg" xmlns:xlink="http://www.w3.org/1999/xlink" x="0px" y="0px"
	 viewBox="0 0 595.28 184.11" style="enable-background:new 0 0 595.28 184.11;" xml:space="preserve">
<g>
	<g>
		<path d="M272.19,128.45h-8.62v23.35h-2.12v-23.35h-8.6v-1.8h19.34V128.45z"/>
		<path d="M293.57,126.65v17.16c-0.01,1.69-0.39,3.17-1.12,4.42c-0.74,1.25-1.78,2.22-3.12,2.89c-1.34,0.67-2.88,1.01-4.62,1.01
			c-2.65,0-4.77-0.72-6.36-2.17c-1.59-1.44-2.42-3.44-2.48-6v-17.32h2.11v17.01c0,2.12,0.6,3.76,1.81,4.93
			c1.21,1.17,2.85,1.75,4.92,1.75c2.07,0,3.71-0.59,4.91-1.76c1.2-1.17,1.8-2.81,1.8-4.9v-17.03H293.57z"/>
		<path d="M308.89,141.31h-7.3v10.48h-2.14v-25.14h8.17c2.68,0,4.78,0.65,6.28,1.95c1.51,1.3,2.26,3.12,2.26,5.45
			c0,1.61-0.47,3.03-1.42,4.26c-0.94,1.23-2.21,2.08-3.8,2.55l6.28,10.7v0.23h-2.26L308.89,141.31z M301.58,139.52h6.51
			c1.78,0,3.22-0.51,4.3-1.52c1.08-1.01,1.62-2.33,1.62-3.94c0-1.78-0.56-3.15-1.69-4.13c-1.13-0.98-2.71-1.47-4.75-1.47h-5.99
			V139.52z"/>
		<path d="M324.53,151.8h-2.12v-25.14h2.12V151.8z"/>
		<path d="M345.58,145.61c0-1.39-0.49-2.49-1.47-3.31c-0.98-0.81-2.77-1.58-5.37-2.31s-4.5-1.53-5.7-2.39
			c-1.7-1.22-2.56-2.82-2.56-4.8c0-1.92,0.79-3.49,2.37-4.69c1.58-1.2,3.61-1.8,6.07-1.8c1.67,0,3.16,0.32,4.48,0.97
			c1.32,0.65,2.34,1.54,3.07,2.69c0.72,1.15,1.09,2.43,1.09,3.85h-2.14c0-1.72-0.59-3.1-1.76-4.15c-1.17-1.04-2.75-1.57-4.73-1.57
			c-1.92,0-3.45,0.43-4.59,1.29c-1.14,0.86-1.71,1.98-1.71,3.36c0,1.28,0.51,2.32,1.54,3.13c1.02,0.81,2.67,1.52,4.92,2.14
			c2.26,0.62,3.97,1.26,5.13,1.92c1.16,0.66,2.04,1.45,2.62,2.38c0.59,0.92,0.88,2.01,0.88,3.26c0,1.98-0.79,3.57-2.37,4.77
			c-1.58,1.2-3.67,1.8-6.26,1.8c-1.77,0-3.4-0.32-4.88-0.95c-1.48-0.63-2.6-1.52-3.37-2.66c-0.77-1.14-1.15-2.45-1.15-3.92h2.12
			c0,1.77,0.66,3.17,1.99,4.2c1.32,1.03,3.09,1.54,5.28,1.54c1.96,0,3.53-0.43,4.71-1.3C344.99,148.19,345.58,147.04,345.58,145.61z
			"/>
		<path d="M355.11,126.65l9.27,22.19l9.31-22.19h2.83v25.14h-2.12v-10.95l0.17-11.22l-9.36,22.17h-1.64l-9.32-22.09l0.17,11.07
			v11.02h-2.12v-25.14H355.11z"/>
		<path d="M401.48,140.59c0,2.31-0.4,4.35-1.2,6.1c-0.8,1.75-1.94,3.1-3.43,4.04c-1.48,0.94-3.2,1.42-5.14,1.42
			c-2.94,0-5.31-1.05-7.11-3.15c-1.81-2.1-2.71-4.94-2.71-8.5v-2.59c0-2.29,0.41-4.32,1.22-6.09c0.81-1.77,1.96-3.13,3.44-4.08
			c1.48-0.95,3.2-1.43,5.13-1.43c1.93,0,3.64,0.47,5.12,1.4c1.48,0.93,2.62,2.25,3.43,3.95c0.81,1.7,1.23,3.68,1.26,5.92V140.59z
			 M399.35,137.86c0-3.03-0.69-5.4-2.05-7.11c-1.37-1.72-3.25-2.57-5.63-2.57c-2.34,0-4.2,0.86-5.59,2.58
			c-1.39,1.72-2.08,4.13-2.08,7.21v2.62c0,2.98,0.69,5.34,2.07,7.09c1.38,1.74,3.26,2.62,5.63,2.62c2.41,0,4.28-0.86,5.63-2.58
			c1.35-1.72,2.02-4.12,2.02-7.19V137.86z"/>
		<path d="M434.15,151.8h-2.12l-14.45-21.52v21.52h-2.14v-25.14h2.14l14.47,21.53v-21.53h2.11V151.8z"/>
		<path d="M459.12,140.59c0,2.31-0.4,4.35-1.2,6.1c-0.8,1.75-1.94,3.1-3.43,4.04c-1.48,0.94-3.2,1.42-5.15,1.42
			c-2.94,0-5.31-1.05-7.11-3.15c-1.81-2.1-2.71-4.94-2.71-8.5v-2.59c0-2.29,0.4-4.32,1.22-6.09c0.81-1.77,1.96-3.13,3.44-4.08
			c1.48-0.95,3.19-1.43,5.13-1.43s3.64,0.47,5.12,1.4c1.48,0.93,2.62,2.25,3.43,3.95c0.81,1.7,1.23,3.68,1.26,5.92V140.59z
			 M456.99,137.86c0-3.03-0.69-5.4-2.06-7.11c-1.37-1.72-3.25-2.57-5.63-2.57c-2.34,0-4.2,0.86-5.59,2.58
			c-1.39,1.72-2.08,4.13-2.08,7.21v2.62c0,2.98,0.69,5.34,2.07,7.09c1.38,1.74,3.26,2.62,5.63,2.62c2.41,0,4.28-0.86,5.63-2.58
			c1.35-1.72,2.02-4.12,2.02-7.19V137.86z"/>
		<path d="M473.86,141.31h-7.3v10.48h-2.14v-25.14h8.17c2.68,0,4.78,0.65,6.29,1.95c1.51,1.3,2.26,3.12,2.26,5.45
			c0,1.61-0.47,3.03-1.42,4.26c-0.94,1.23-2.21,2.08-3.8,2.55l6.29,10.7v0.23h-2.26L473.86,141.31z M466.56,139.52h6.51
			c1.78,0,3.22-0.51,4.3-1.52c1.08-1.01,1.62-2.33,1.62-3.94c0-1.78-0.56-3.15-1.69-4.13c-1.13-0.98-2.71-1.47-4.75-1.47h-5.99
			V139.52z"/>
		<path d="M502.6,128.45h-8.62v23.35h-2.12v-23.35h-8.6v-1.8h19.34V128.45z"/>
		<path d="M520.54,139.74h-11.76V150h13.52v1.8h-15.64v-25.14h15.56v1.8h-13.43v9.5h11.76V139.74z"/>
		<path d="M545.49,151.8h-2.12l-14.45-21.52v21.52h-2.14v-25.14h2.14l14.47,21.53v-21.53h2.11V151.8z M542.02,120.57
			c0,1.1-0.33,1.99-0.98,2.66c-0.65,0.67-1.45,1.01-2.39,1.01c-0.87,0-1.73-0.32-2.56-0.95c-0.83-0.63-1.58-0.95-2.24-0.95
			c-0.54,0-0.99,0.18-1.35,0.54c-0.36,0.36-0.54,0.86-0.54,1.5l-1.55-0.05c0-1.05,0.31-1.93,0.94-2.61
			c0.63-0.69,1.44-1.03,2.43-1.03c0.55,0,1.03,0.1,1.42,0.29c0.39,0.2,0.76,0.41,1.11,0.66c0.35,0.24,0.69,0.46,1.04,0.66
			s0.76,0.29,1.24,0.29c0.53,0,0.98-0.19,1.35-0.57c0.37-0.38,0.56-0.89,0.56-1.54L542.02,120.57z"/>
		<path d="M570.46,140.59c0,2.31-0.4,4.35-1.2,6.1c-0.8,1.75-1.94,3.1-3.43,4.04c-1.48,0.94-3.2,1.42-5.14,1.42
			c-2.94,0-5.31-1.05-7.11-3.15c-1.81-2.1-2.71-4.94-2.71-8.5v-2.59c0-2.29,0.41-4.32,1.22-6.09c0.81-1.77,1.96-3.13,3.44-4.08
			c1.48-0.95,3.2-1.43,5.13-1.43c1.93,0,3.64,0.47,5.12,1.4c1.48,0.93,2.62,2.25,3.43,3.95c0.81,1.7,1.23,3.68,1.26,5.92V140.59z
			 M568.33,137.86c0-3.03-0.69-5.4-2.05-7.11c-1.37-1.72-3.25-2.57-5.63-2.57c-2.34,0-4.2,0.86-5.59,2.58
			c-1.39,1.72-2.08,4.13-2.08,7.21v2.62c0,2.98,0.69,5.34,2.07,7.09c1.38,1.74,3.26,2.62,5.63,2.62c2.41,0,4.28-0.86,5.63-2.58
			c1.35-1.72,2.02-4.12,2.02-7.19V137.86z"/>
	</g>
	<g>
		<g>
			<path d="M41.33,67.83c9.01-13.82,16.62-33.84,25.03-36.25c2.2,0.4,3.8,2.6,4.61,3.2c1.4-0.2-0.6,2.2,0.2,2
				c1.6-0.2,1.4,1.8,2.4,2.4c1,0.6,0.6,1,1.6,2c1,1.2,0.4,2.2,1.8,3.6c1,0.8,1.2,1.2,1.2,2.4c0,1.8,0,0.2,0.6,0
				c0.2,0,0.2-0.2,0.2-0.4c0.2-0.8,2,5.21,2.4,6.41c-1.6,13.22-4.01,52.27-3,53.67c8.41-15.82,32.04-60.48,35.24-78.1
				c0.4-4.21,1.8-7.21,3.4-7.21c0.8,0,1.4,0.6,2,1.6c0,0.8,0,0.8,0.4,0.2c1-1.6,0.8,0.4,1.4,0.4c0.4-0.2,0.8,0,0.8,0.4
				c0.4,1.2,1.2,0.4,1.4,1.6c0.4,1.2,1.8,2.2,1.8,3.2c0,1,1.8,1.2,2,2c0.2,0.4,0.6,2.2,0.8,3c0-0.6-0.2-2-0.2-2.6
				c8.61,13.02-3,28.44-15.62,56.27c-17.62,33.24-20.63,44.26-34.24,56.87c-0.4,0-1.4-2.2-1.4-3.2c0-0.4-0.2-0.6-0.8-0.4
				c-0.4,0-0.8-0.2-1.2-1.8c-0.4-2.4-1.2-2-2.2-3.2c-8.21-2.6-9.21-43.66-9.81-53.47c0-4.41,0-8.01-0.2-8.01
				c-8.81,13.22-34.64,62.48-37.45,75.9c-2.4,5,0.8,13.62-6.21,12.01c-0.4,0-0.2-4.6-0.8-4.41c-1,0.4-1.6-0.8-1.6-3.2
				c-0.2-3.8-0.8-1.8-3.2-4.81C1.28,138.92,33.32,85.25,41.33,67.83z M30.92,122.1c0.6-1,11.01-22.23,12.02-23.43
				c5.21-9.61,15.02-24.43,19.62-35.04c0-0.8-0.6-0.2-2.8,3.4C51.75,79.04,35.73,109.28,30.92,122.1z M33.12,110.48
				c0.2,0,1.4-2.6,4.01-7.41c4.21-10.21,22.83-37.65,26.23-47.86c0.2-1.4,0.4-2.6,0.2-2.8c-6.81,10.01-21.43,37.85-27.63,51.06
				C33.92,108.08,32.92,110.48,33.12,110.48z M40.53,78.64c8.21-15.62,16.82-29.44,21.43-37.85c-4.01,4.41-24.83,41.25-25.63,45.26
				C36.53,86.05,38.33,82.65,40.53,78.64z M50.74,70.83c2.4-4.61,11.01-18.62,12.82-22.43c-3.8,4.41-23.03,39.25-24.03,42.65
				C41.73,87.65,47.94,75.44,50.74,70.83z M63.36,45.8c0.6-1,0-0.8-0.4,0C62.56,46.8,62.96,46.6,63.36,45.8z M64.36,39.79
				c0.4-0.2,0.6-0.6,0.8-1C66.36,36.79,63.96,39.79,64.36,39.79z M87.19,99.87c13.42-26.23,24.23-48.26,28.84-63.68
				c0-0.2-1.2,2.4-2.4,5.81c-6.81,18.02-25.03,53.27-35.24,73.49C78.38,116.29,80.78,112.08,87.19,99.87z M82.38,119.69
				c13.42-24.43,31.84-59.48,38.45-81.1c-8.61,24.23-31.64,66.68-41.85,86.91C78.98,125.5,80.58,122.9,82.38,119.69z M79.38,131.31
				c0.2,0,0.8-0.4,1.4-1.6c8.41-15.02,40.25-70.69,42.25-90.51C115.43,59.82,93,106.28,81.38,124.7
				C79.38,127.3,78.58,131.31,79.38,131.31z M81.78,134.71c4.61-5.81,46.06-83.91,44.46-93.92c-3.4,12.02-36.45,81.1-45.86,92.52
				C78.58,135.31,79.98,136.91,81.78,134.71z M80.98,139.12c0-0.2-0.2-0.4-0.4-0.4C79.98,138.72,80.98,140.12,80.98,139.12z
				 M123.64,28.18c0.4,0.6,0.4,0.6,0.2-0.2S123.24,27.78,123.64,28.18z"/>
			<path d="M113.83,106.28c-0.8-15.22,20.63-66.28,39.05-66.28c1.4,0,2.6,0.4,3.8,0.8c1.6-3,4.21-4.21,7.01-4.21
				c5.41,0,11.82,4.01,14.42,8.21c28.04,29.24-19.83,91.12-47.26,86.71c-4.61-1.4-5.81-5.01-8.21-8.61
				C118.43,116.69,113.02,116.49,113.83,106.28z M121.64,87.05c0.2,0,0.8-1.6,2.6-6.01c1.2-2.8,4.4-10.21,4.21-10.21s-0.8,1-2.2,3.8
				C124.84,77.44,121.43,87.05,121.64,87.05z M125.44,98.67c1.6-3.4,5.21-12.42,7.61-17.42c7.01-15.82,14.62-24.63,21.03-33.44
				C142.86,53.61,128.04,84.05,125.44,98.67z M126.44,87.85c0,0,0.8-1.6,2.4-5.61c1.6-4.01,3.4-7.21,4.01-9.61
				C132.05,72.63,126.24,87.85,126.44,87.85z M126.44,105.47c0.6-0.4,1-3.2,2-5.41c4.21-13.22,16.42-35.44,20.63-42.05
				c-5.41,6.41-11.82,16.62-12.62,20.23C135.25,78.64,126.24,101.47,126.44,105.47z M132.85,111.48
				c19.22-5.41,39.05-38.65,39.45-55.67c1.2-6.81-4.61-2.6-8.01-4.21c-16.02,6.61-30.64,43.05-35.04,59.68
				C128.44,113.68,131.45,111.68,132.85,111.48z M132.25,66.42c1.4-2.4,4.81-7.61,5.81-9.41c-0.4,0-4.81,6.81-6.41,9.81
				C129.44,70.83,130.05,70.43,132.25,66.42z M133.65,68.23c0.6-1.4,0.2-1.2-0.4,0C132.45,69.83,133.05,69.63,133.65,68.23z
				 M135.45,130.71c0-0.2-0.4-0.2-0.6-0.2C134.05,130.71,135.85,130.91,135.45,130.71z M135.25,69.23c0.2,0,0.6-0.8,2-3
				c1.2-2.2,2.6-3.61,3-4.81C139.86,61.02,135.25,69.23,135.25,69.23z M142.66,119.89c16.62-5.41,37.05-34.64,37.05-50.06
				c-8.21,22.43-20.43,41.85-41.85,51.07C135.85,121.69,140.26,120.89,142.66,119.89z M143.06,69.23c0,0,1.2-1.6,3.61-5.01
				c3.8-5.81,7.61-10.01,10.61-13.82c-1,0-7.01,7.21-10.81,13.22C144.06,67.43,142.86,69.23,143.06,69.23z M144.86,123.7
				c0.2,0,1.4-0.6,4.01-2c5.61-3,11.41-7.81,15.82-13.22c3.2-4.01,3.61-4.61,1-1.6C162.49,112.68,143.86,123.7,144.86,123.7z
				 M155.28,115.89c0.2,0,2.2-1.8,5.41-5.01c9.81-9.01,19.42-24.63,21.43-36.85c1-4.01,0.6-4.41-0.4-0.8
				c-1.8,6.61-7.21,17.62-9.21,21.43c-3.81,5.41-8.21,11.82-14.42,18.02C155.88,114.89,155.08,115.89,155.28,115.89z M161.49,101.67
				c2.6-3.4,3.4-4.61,3.4-4.61c-0.4,0-6.81,8.01-8.61,9.81C158.08,105.27,159.68,103.67,161.49,101.67z M161.49,46
				c0.2,0.4,1.6,0,2.2-0.6C165.29,44,161.29,45.4,161.49,46z M161.69,97.26c0,0,0.4-0.4,0.6-0.8
				C163.49,95.06,160.88,97.46,161.69,97.26z M162.29,47.8c0,0.4,0.8,0.4,1.4,0C164.89,47,162.09,47,162.29,47.8z M164.09,50.6
				c0-0.2-0.2-0.2-0.4-0.4C162.49,50,164.09,51.21,164.09,50.6z M163.49,94.66c0.2,0,0.4-0.4,0.6-0.6
				C165.29,92.66,162.69,94.86,163.49,94.66z M163.69,88.85c0,0,0.6-0.8,1.8-2.8c2.4-4.01,5.61-10.41,6.81-14.22
				c1.2-3.4,1-4.21-0.2-0.8C172.5,71.63,163.09,88.85,163.69,88.85z M166.49,93.66c0.4,0.4,0.4,0.2,0.8,0
				C167.49,93.06,166.29,93.06,166.49,93.66z M167.89,50.81h-1C165.89,51.01,168.69,51.01,167.89,50.81z M168.29,90.66
				c3.2-4.61,8.41-16.22,9.21-19.62c0-0.6-0.4,0.2-1,2c-2.6,6.61-7.41,15.42-9.61,19.83C166.89,92.86,167.69,91.86,168.29,90.66z
				 M183.11,69.83c0.2-0.4,0.4-1,0.4-1.8C183.71,65.02,182.51,70.63,183.11,69.83z"/>
			<path d="M174.9,128.3c0-9.61,7.41-30.04,21.03-57.07c5.41-10.81,5.61-11.41,5.21-12.62c-0.6-1.8,0.2-0.8,0.8-1.2
				c0-0.2-0.4-0.4-0.8-0.4c-2-0.2,5.61-1.8,3-2.2c-0.4,0-1,0.2-1.4,0.6c-1,1-4.41,0.2-2.2-0.6c1.4,0,0-2,1.4-1.8
				c1.8,0,7.61-3.6,6.81-4.21c-0.2-0.4-6.01,2.2-7.01,3c-1.2,1.2-1,0-2,0.2c-1-2.2-4.21-8.81,3-11.01
				c5.81-2.4,15.02-5.01,23.43-5.01c6.21,0,12.02,1.4,15.82,5.41c21.43,24.83-1,51.66-28.64,62.08c-1.2,0.6-2.4,1-2.4,1
				c2.8,6.21,21.23,26.63,25.43,26.63c2.2,0,4.61,4,1,3.6c-3,0-1,3-5.21,1.4c-0.4,0-0.6,0-0.8,0.8c-0.4,1.2-3.8,5.61-5.61,5
				c-11.41-1.2-26.23-17.02-31.24-28.23c-3.4,7.01-9.81,23.43-8.81,23.43c2.4,2-0.8,8.01-3.4,5.81c-0.8-0.8-0.4-2.8-1.6-3.4
				c-0.6-0.4-0.8-1-0.8-2.2C179.51,133.11,173.9,133.71,174.9,128.3z M188.32,118.29c0.2,0,0.8-1.4,2.2-4.81
				c1-2.4,1.8-4.41,1.8-4.61C191.72,109.28,188.12,118.29,188.32,118.29z M194.73,97.26c0-0.2-0.2-0.4-0.4-0.4
				c-0.2,0.2-5.21,12.62-5.21,12.82S195.33,97.26,194.73,97.26z M191.12,89.25c0.2,0,1.6-3.2,5.61-11.41
				c2.8-5.81,5.01-10.81,5.01-10.81C200.33,68.43,190.92,89.25,191.12,89.25z M195.13,102.27c0,0,0.2-0.2,0.6-0.4
				C196.53,100.47,194.53,101.87,195.13,102.27z M195.93,89.05c0,0,1.6-2.8,4.41-8.61c4.01-7.81,5.41-11.21,5.21-11.21
				s-1.8,3-4.21,8.01C197.53,85.25,195.73,89.05,195.93,89.05z M196.33,99.27c0.2,0.8,0.8,0.2,0.8-0.4
				C196.93,98.07,196.33,98.87,196.33,99.27z M199.53,88.45c1-1.4,16.22-31.44,16.82-31.84c-0.6,0-2.4,0.4-2.6,0.4
				C212.95,58.82,193.73,93.86,199.53,88.45z M201.54,49c0.2,0,0.4-0.4,0.8-0.6C203.54,46.8,200.94,49.2,201.54,49z M202.54,50.4
				c0-0.2,0-0.2-0.4-0.2C200.94,50.81,202.14,51.01,202.54,50.4z M202.14,106.48c1.6,8.21,12.02,18.22,19.02,23.83
				c2.8,2.2,5.21,3.41,6.01,3.41c0.6,0,0-0.8-2-2.6C214.75,123.1,208.75,114.69,202.14,106.48z M203.14,98.07c1,0,3.6-0.6,5.81-1.4
				c12.82-5.21,29.84-15.42,33.84-28.04c-7.61,10.41-24.63,23.83-37.85,27.83C202.14,97.46,201.94,98.07,203.14,98.07z
				 M202.54,87.65c0.4,0,4.21-6.61,8.41-15.42c5.81-10.81,8.01-15.82,7.61-15.82c-0.6,0-5.41,8.41-12.62,23.03
				C203.14,85.25,202.34,87.65,202.54,87.65z M206.94,59.42c0-0.4-0.2-0.2-0.6,0.8C205.34,62.02,207.14,59.82,206.94,59.42z
				 M206.54,124.1c1.4,1.8,6.01,6.01,6.01,5.61c0,0-1.6-1.8-3.81-3.81C206.54,123.7,205.54,122.9,206.54,124.1z M220.76,123.3
				c0,0-1.4-1.8-3.2-4c-2-1.4-10.41-14.02-11.21-13.42C206.54,107.28,217.96,120.69,220.76,123.3z M208.95,64.02
				c0.8-1.6,0.4-1.4-0.2,0C207.94,65.42,208.34,65.22,208.95,64.02z M211.55,99.87c7.21-2.6,20.23-10.41,24.23-14.62
				c0.6-0.8,0.2-0.6-1.4,0.8c-8.21,6.61-18.42,11.21-25.83,14.22C208.55,100.67,209.35,100.67,211.55,99.87z M209.35,84.05
				c0.4,0,1.8-1,4.61-2.8c9.01-6.41,21.03-16.62,23.23-25.43c-1-1-12.62-0.8-15.22-0.2c-0.6,0-0.6,0.2-0.6,2.2
				c0,2-0.4,2.6-6.01,14.02C212.55,78.44,207.94,84.05,209.35,84.05z M209.95,112.48c4.21,6.41,14.22,18.42,20.83,19.82
				C224.37,127.3,215.95,119.89,209.95,112.48z M216.15,127.5c-0.2-0.4-4.61-4.6-6.21-6.01C211.35,122.9,216.56,128.5,216.15,127.5z
				 M210.95,60.62c0.6-1.6,0.2-1.2-0.4,0C209.75,62.22,210.15,62.02,210.95,60.62z M210.15,124.9l2.6,2.6c2.4,2.2,2.6,2.4,2.6,2.2
				C215.35,129.3,211.15,125.9,210.15,124.9z M212.15,130.71c0,1.2,7.01,6.21,7.61,5.41C219.56,135.91,212.75,131.11,212.15,130.71z
				 M214.15,47.4c0.4,0.6,1.2,0.6,6.61-0.4c2.6-0.6,5.01-1,5.61-1.2C224.77,45.4,213.15,47,214.15,47.4z M215.55,85.45
				c1,0,14.22-10.21,15.22-11.41C231.97,73.03,215.15,85.45,215.55,85.45z M219.76,94.66c7.01-3.8,13.82-8.61,18.22-13.02
				c3.8-3.2,6.21-7.81,6.81-10.21c-1.8,1.8-7.41,10.41-7.81,9.81c-0.6-0.2,0.2,0.6-0.4,0.6c-4.41,3.4-10.21,8.81-17.62,12.82
				C214.75,97.06,215.35,97.06,219.76,94.66z M217.56,129.7c1,0.8,4.61,4.01,5.21,3.61c0-0.2-3.2-2.6-5.41-4.21
				C216.15,128.3,216.15,128.5,217.56,129.7z M224.97,84.65c0,0,1.2-1,4.41-3.4c2-1.6,4.21-4.01,6.21-5.81
				C232.78,78.04,224.77,84.65,224.97,84.65z M232.78,74.84c3-2.8,2.4-2.6-0.4,0C229.57,77.84,230.17,77.64,232.78,74.84z
				 M233.18,69.63c1.4-1.4,3-3.2,3.4-4.21c0.6-1,0.8-1.4,0.8-1.4c-0.4,0-3.4,4.21-5.41,6.61C231.17,71.63,231.37,71.43,233.18,69.63
				z M233.78,53.81h-0.8C232.17,54.01,234.38,54.01,233.78,53.81z M235.18,74.84c0,0,0.8-0.8,2.4-2.4c1.2-1.4,3.6-5.21,3.4-5.21
				c0,0-0.8,0.8-2.6,3.4C236.38,72.83,234.98,74.84,235.18,74.84z M236.98,54.21c-0.2-0.2-0.6-0.2-0.8,0
				C235.58,54.41,237.18,54.61,236.98,54.21z"/>
			<path d="M271.41,53.46c2.23-4.46,1.93-2.68-2.97-2.82c-6.39-0.3-4.61,2.08-9.51,1.04l-0.45-1.64c0.15-0.3,0.74-0.89,1.04-1.04
				l-0.59-0.45c-2.82-1.34,3.87-1.34,1.04-2.68c-1.93-1.04-0.89-1.04-2.08-3.27c3.42-9.07,23.04-7.43,37.16-7.88
				c11.89,0.3,13.38,0.15,13.82,2.68c0.45,0,0.74,1.04,0.45,1.49c-0.3,0.3-0.3,0.3,0,0.45c0.45,0.3-1.04,1.19-1.19,1.49
				c0.3,0.15,1.04,0.3,1.49,0.45c-2.08,1.19-4.91,0.89-0.74,1.78c1.34,0.45-0.45,0.89,0.45,1.64c0.59,0.59,0.3,0.74-0.45,0.74
				c0.89,3.72-1.49,4.01-12.49,4.61c-3.12,0.45-6.54-0.74-7.28,1.19c-0.45,1.93-3.42,9.07-7.58,17.54
				c-6.99,14.57-14.87,32.41-21.41,48.02c-0.45,1.93-1.49,2.38-2.97,2.68l-0.15-1.49c0-2.82,0.59-2.23-1.64-1.93
				c-0.45-0.89,1.64-4.46-0.89-3.57c-1.19,0.3-0.89-0.59-1.64-0.74C243.76,108.17,266.8,66.99,271.41,53.46z M262.49,102.82
				c8.32-20.07,17.39-36.57,23.93-52.33c0.15-1.34-3.42,6.54-3.57,6.24c-5.35,9.07-22.3,49.35-24.23,54.56
				C258.03,113.22,259.37,110.55,262.49,102.82z M262.34,97.32c8.62-20.66,15.16-30.92,20.52-46.83
				c-5.65,8.03-22.15,50.1-23.79,54.11C259.07,105.05,259.37,104.15,262.34,97.32z M267.25,46.92c1.64-0.3,1.64-0.3-0.74-0.15
				c-1.34,0-2.82,0.15-3.27,0.3C262.04,47.66,266.5,46.92,267.25,46.92z M265.17,40.23c0.15,0.15,0.89-0.15,1.64-0.3
				C269.63,39.04,264.27,40.23,265.17,40.23z M265.17,44.69c1.04,1.04,2.97-0.15,6.54-0.15c4.76-0.45,5.5-0.74,5.5-1.49
				c0-0.3-2.08-0.3-7.88,0.3C265.61,43.8,265.02,43.8,265.17,44.69z M273.34,46.92c-2.38,0-6.99,0.3-8.18,0.89
				c0.89,0.45,3.57-0.45,5.95-0.3C275.72,47.22,275.28,46.92,273.34,46.92z M265.32,75.17c0.45-0.45,10.56-23.19,11-24.68
				c-0.45-0.45-4.16,7.88-8.77,18.88C265.32,75.02,265.17,75.31,265.32,75.17z M269.18,39.34c-0.3-0.15-0.45-0.15-0.74,0
				C267.99,39.49,269.63,39.49,269.18,39.34z M268.59,77.1c0.15,0.3,0.59-0.74,0.45-0.74C268.88,76.06,268.44,77.1,268.59,77.1z
				 M269.92,74.42c-0.15-0.3-0.59,0.74-0.59,0.89C269.48,75.46,269.92,74.57,269.92,74.42z M271.11,46.33h-1.34
				C269.03,46.47,271.86,46.47,271.11,46.33z M272.01,69.81c1.19-2.97,6.09-12.93,6.84-15.46c0.3-1.78-8.03,16.95-8.92,19.62
				C269.92,74.42,270.37,73.53,272.01,69.81z M305.01,43.06c0.15-0.45,1.78,0.3,0.59-0.45c-0.45-0.3-1.49-0.45-9.96-0.3
				c-5.5,0.45-9.66-0.3-9.66,0.89C283.6,44.1,305.9,43.2,305.01,43.06z M301.74,45.88c-5.05,0-13.82,0.3-12.49,0.74
				c2.23,0.45,8.77-0.15,11.74-0.15C306.79,46.03,305.3,45.88,301.74,45.88z M308.28,44.99c0.74,0.3,1.19,0,0.74-0.3
				C308.72,44.39,307.39,44.69,308.28,44.99z"/>
			<path d="M301.44,71.15c1.64-4.91,13.08-33.6,19.18-33.6c0.59,0,1.19,0.15,1.93,0.59c1.93,1.04,2.53,1.49,2.23,2.08
				c-0.15,0.3-0.3,0.59-0.15,0.74c0.15,0,0,0.3-0.3,0.3c-0.59,0.3-3.12,4.01-5.5,8.18c-5.5,9.81-10.41,21.26-13.08,32.26
				c0,0.15,0.59-1.34,1.19-2.97c2.38-6.24,8.77-20.07,12.93-28.1c2.97-5.5,5.65-9.96,5.95-9.96c0.45,0,0,1.93-0.59,3.27
				c-5.65,9.51-10.7,19.62-15.01,29.88c-1.34,3.72-3.12,8.92-3.27,10.26c-0.15,0.89,0,0.45,0.74-1.49c0.45-1.34,1.04-2.68,1.19-2.97
				c0.15-0.15,0.89-1.78,1.49-3.42c3.12-8.03,11.45-25.72,14.87-31.52c0.74-1.34,1.19-2.38,1.19-2.97c0-1.04,0-0.89,1.19,0.59
				c4.01,5.05,1.19,4.16-4.76,15.61c-9.66,18.73-12.19,26.76-12.19,32.56v0.89c8.47-0.45,20.52-21.26,29.29-44.75
				c2.68-7.14,4.31-11.15,5.05-11.6c0.59-0.59,2.53-0.45,2.53,0c0,0.45,0.15,0.45,0.45,0.15c0.3-0.3,0.45-0.3,0.45,0
				c0.3,0,0.45,0.15,0.45,0.45c0,0.45,0.15,0.59,0.45,0.45h0.45c0,0.59-1.19,4.76-2.23,7.58c-0.59,1.78-1.04,3.42-1.04,3.42
				c0.15,0.15,1.04-2.38,2.38-6.69c0.59-1.93,1.04-3.27,1.19-2.97c0,0.3,0,0.3,0.15,0c0.45-0.59,0.45-0.15-0.15,2.23
				c-1.49,5.65-6.69,18.88-11.74,29.58c-4.31,8.92-11.89,24.83-21.26,29.88c-1.78,0.89-2.08,1.19-1.49,1.19
				c0.3,0.15,1.64-0.45,3.12-1.19c3.86-1.64,7.88-6.39,10.26-9.66c4.16-6.69,10.26-18.58,15.61-30.92
				c3.57-8.47,4.16-10.26,5.5-15.61c0.74-2.68,1.34-4.61,1.64-4.76c0.74-0.15-0.74,6.84-2.38,11.3
				c-4.91,12.64-15.76,37.76-24.83,47.12c-1.34,1.49-1.93,2.23-1.78,2.23c0.15,0,1.19-0.89,2.97-2.68
				c4.31-4.16,8.62-11.45,15.02-25.12c2.68-5.35,10.55-21.85,11.15-28.1c0.59-2.97,1.04-4.46,1.04-3.72c0.15,0.3,0.3,0.74,0.45,0.89
				c0.59,0.45,0.59,2.82,0.15,5.8c-1.04,8.77-17.54,41.33-22.75,48.91c-2.23,3.12-7.43,8.32-9.81,9.66
				c-2.68,1.64-6.39,2.53-8.47,2.23c-2.08-0.3-3.12-0.89-4.61-2.53c-0.89-0.74-1.63-1.78-1.63-2.08c-0.15-0.3-0.3-0.59-0.45-0.59
				c-0.15,0-0.45-0.59-0.89-1.19c-0.3-0.74-1.64-2.08-2.68-3.12c-2.23-2.23-2.97-3.57-3.72-7.28
				C297.57,85.87,298.47,79.92,301.44,71.15z M304.41,70.41c0.15,0,1.04-2.23,2.08-4.76c1.04-2.68,2.23-5.5,2.68-6.39
				c0.3-0.89,0.74-2.08,0.89-2.38c0.15-0.59,0.15-0.59-0.15-0.15C308.87,58.07,303.52,71.3,304.41,70.41z M308.87,68.18
				c0.59-1.49,1.78-4.31,2.68-6.24c0.89-1.93,1.49-3.57,1.34-3.57c-0.15-0.3-4.46,9.66-5.2,12.19
				C307.39,71.9,307.83,70.85,308.87,68.18z M311.99,54.35c0,0.15,0.59-1.04,1.49-2.68c0.74-1.49,1.93-3.42,2.23-4.31
				c0.59-0.74,0.74-1.19,0.45-0.89C315.56,47.22,311.99,54.06,311.99,54.35z M312.44,56.43c0,0.45,0.15,0.15,1.19-1.93
				c0.59-1.04,1.04-1.93,0.89-1.93C314.37,52.57,312.44,56.29,312.44,56.43z M314.08,56.73c0,0.45,0.15,0.15,1.34-2.23
				c0.59-1.19,1.04-2.23,1.04-2.23C316.3,52.27,314.08,56.43,314.08,56.73z M317.05,51.53l0.59-1.19c0.3-0.59,0.45-1.04,0.45-1.04
				c-0.15,0-0.45,0.45-0.74,1.04C317.05,50.93,316.9,51.53,317.05,51.53z M318.24,49c0.15,0,0.3-0.3,0.45-0.45
				c0.15-0.45,0.3-0.59,0.15-0.59c0,0-0.15,0.15-0.3,0.59C318.24,48.7,318.24,49,318.24,49z M320.62,101.18
				c1.49-0.74,2.68-1.64,4.31-3.27c0.89-1.04,1.93-1.93,2.23-2.23c-0.59,0.45-5.2,4.31-5.35,4.31c-0.74,0.45-3.57,1.93-3.57,2.08
				C318.24,102.37,318.53,102.22,320.62,101.18z M320.32,92.11c0.59-0.45,1.49-1.49,1.93-2.08c1.78-2.08,1.19-1.64-0.89,0.74
				C320.32,91.96,319.87,92.56,320.32,92.11z M321.06,53.91c0,0,1.04-1.78,2.68-4.91c1.49-2.68,2.68-5.05,2.53-5.05
				c-0.15-0.15-2.08,3.27-4.16,7.43C321.21,53.02,320.91,53.91,321.06,53.91z M322.7,93.75c0.59-0.45,1.49-1.64,2.23-2.53
				c1.64-1.93,0.89-1.49-1.34,1.34C322.7,93.6,322.25,94.04,322.7,93.75z M324.48,89.29c0.15,0,0.3-0.3,0.59-0.59
				c0.3-0.45,0.3-0.45-0.15,0C324.48,88.99,324.33,89.29,324.48,89.29z M326.71,82.45c5.65-8.03,12.34-23.64,15.76-33
				c0.74-1.78,1.19-3.27,1.19-3.27c0-0.15-0.3,0.45-0.59,1.19c-4.46,12.04-10.41,24.68-16.35,34.93
				C326.56,82.3,326.56,82.45,326.71,82.45z M328.49,85.57c0.15-0.15,0.89-1.49,1.78-2.82c1.49-2.53,6.99-13.08,6.99-13.53
				c0-0.15-1.19,2.08-2.82,4.91c-1.34,2.82-3.27,6.54-4.31,8.18C328.05,85.87,328.05,85.87,328.49,85.57z M342.02,58.81
				c2.82-6.84,4.46-11.15,4.31-11.3c0-0.15-0.3,0.59-0.74,1.64c-0.89,2.68-5.35,13.08-6.84,16.06c-0.59,1.64-1.19,2.97-1.19,2.97
				C337.56,68.77,340.09,63.12,342.02,58.81z"/>
			<path d="M337.41,103.56c0-7.14,5.5-22.3,15.61-42.37c4.01-8.03,4.16-8.47,3.86-9.37c-0.45-1.34,0.15-0.59,0.59-0.89
				c0-0.15-0.3-0.3-0.59-0.3c-1.49-0.15,4.16-1.34,2.23-1.64c-0.3,0-0.74,0.15-1.04,0.45c-0.74,0.74-3.27,0.15-1.64-0.45
				c1.04,0,0-1.49,1.04-1.34c1.34,0,5.65-2.68,5.05-3.12c-0.15-0.3-4.46,1.64-5.2,2.23c-0.89,0.89-0.74,0-1.49,0.15
				c-0.74-1.64-3.12-6.54,2.23-8.18c4.31-1.78,11.15-3.72,17.39-3.72c4.61,0,8.92,1.04,11.74,4.01
				c15.91,18.43-0.74,38.35-21.26,46.08c-0.89,0.45-1.78,0.74-1.78,0.74c2.08,4.61,15.76,19.77,18.88,19.77
				c1.64,0,3.42,2.97,0.74,2.68c-2.23,0-0.74,2.23-3.86,1.04c-0.3,0-0.45,0-0.59,0.59c-0.3,0.89-2.82,4.16-4.16,3.72
				c-8.47-0.89-19.48-12.64-23.19-20.96c-2.53,5.2-7.28,17.39-6.54,17.39c1.78,1.49-0.59,5.95-2.53,4.31
				c-0.59-0.59-0.3-2.08-1.19-2.53c-0.45-0.3-0.59-0.74-0.59-1.64C340.83,107.13,336.67,107.57,337.41,103.56z M347.37,96.13
				c0.15,0,0.59-1.04,1.64-3.57c0.74-1.78,1.34-3.27,1.34-3.42C349.9,89.44,347.22,96.13,347.37,96.13z M352.13,80.52
				c0-0.15-0.15-0.3-0.3-0.3c-0.15,0.15-3.86,9.37-3.86,9.51C347.97,89.88,352.58,80.52,352.13,80.52z M349.45,74.57
				c0.15,0,1.19-2.38,4.16-8.47c2.08-4.31,3.72-8.03,3.72-8.03C356.29,59.11,349.31,74.57,349.45,74.57z M352.43,84.23
				c0,0,0.15-0.15,0.45-0.3C353.47,82.9,351.98,83.94,352.43,84.23z M353.02,74.42c0,0,1.19-2.08,3.27-6.39
				c2.97-5.8,4.01-8.32,3.86-8.32c-0.15,0-1.34,2.23-3.12,5.95C354.21,71.6,352.87,74.42,353.02,74.42z M353.32,82
				c0.15,0.59,0.59,0.15,0.59-0.3C353.77,81.11,353.32,81.71,353.32,82z M355.7,73.98c0.74-1.04,12.04-23.34,12.49-23.64
				c-0.45,0-1.78,0.3-1.93,0.3C365.66,51.97,351.39,77.99,355.7,73.98z M357.19,44.69c0.15,0,0.3-0.3,0.59-0.45
				C358.67,43.06,356.74,44.84,357.19,44.69z M357.93,45.73c0-0.15,0-0.15-0.3-0.15C356.74,46.03,357.63,46.18,357.93,45.73z
				 M357.63,87.36c1.19,6.1,8.92,13.53,14.12,17.69c2.08,1.64,3.87,2.53,4.46,2.53c0.45,0,0-0.59-1.49-1.93
				C367,99.69,362.54,93.45,357.63,87.36z M358.38,81.11c0.74,0,2.68-0.45,4.31-1.04c9.51-3.86,22.15-11.45,25.12-20.81
				c-5.65,7.73-18.28,17.69-28.1,20.66C357.63,80.67,357.48,81.11,358.38,81.11z M357.93,73.38c0.3,0,3.12-4.91,6.24-11.45
				c4.31-8.03,5.95-11.74,5.65-11.74c-0.45,0-4.01,6.24-9.37,17.1C358.38,71.6,357.78,73.38,357.93,73.38z M361.2,52.42
				c0-0.3-0.15-0.15-0.45,0.59C360.01,54.35,361.35,52.72,361.2,52.42z M360.9,100.44c1.04,1.34,4.46,4.46,4.46,4.16
				c0,0-1.19-1.34-2.82-2.82C360.9,100.14,360.16,99.55,360.9,100.44z M371.46,99.84c0,0-1.04-1.34-2.38-2.97
				c-1.49-1.04-7.73-10.41-8.32-9.96C360.9,87.95,369.38,97.91,371.46,99.84z M362.69,55.84c0.59-1.19,0.3-1.04-0.15,0
				C361.94,56.88,362.24,56.73,362.69,55.84z M364.62,82.45c5.35-1.93,15.02-7.73,17.99-10.85c0.45-0.59,0.15-0.45-1.04,0.59
				c-6.09,4.91-13.68,8.32-19.18,10.55C362.39,83.04,362.98,83.04,364.62,82.45z M362.98,70.71c0.3,0,1.34-0.74,3.42-2.08
				c6.69-4.76,15.61-12.34,17.24-18.88c-0.74-0.74-9.37-0.59-11.3-0.15c-0.45,0-0.45,0.15-0.45,1.64c0,1.49-0.3,1.93-4.46,10.41
				C365.36,66.54,361.94,70.71,362.98,70.71z M363.43,91.81c3.12,4.76,10.56,13.68,15.46,14.72
				C374.13,102.82,367.89,97.32,363.43,91.81z M368.04,102.96c-0.15-0.3-3.42-3.42-4.61-4.46
				C364.47,99.55,368.34,103.71,368.04,102.96z M364.17,53.31c0.45-1.19,0.15-0.89-0.3,0C363.28,54.5,363.58,54.35,364.17,53.31z
				 M363.58,101.03l1.93,1.93c1.78,1.64,1.93,1.78,1.93,1.64C367.44,104.3,364.32,101.78,363.58,101.03z M365.07,105.34
				c0,0.89,5.2,4.61,5.65,4.01C370.57,109.21,365.51,105.64,365.07,105.34z M366.55,43.5c0.3,0.45,0.89,0.45,4.91-0.3
				c1.93-0.45,3.72-0.74,4.16-0.89C374.43,42.01,365.81,43.2,366.55,43.5z M367.59,71.75c0.74,0,10.55-7.58,11.3-8.47
				C379.78,62.53,367.29,71.75,367.59,71.75z M370.71,78.58c5.2-2.82,10.26-6.39,13.53-9.66c2.82-2.38,4.61-5.8,5.05-7.58
				c-1.34,1.34-5.5,7.73-5.8,7.28c-0.45-0.15,0.15,0.45-0.3,0.45c-3.27,2.53-7.58,6.54-13.08,9.51
				C367,80.37,367.44,80.37,370.71,78.58z M369.08,104.6c0.74,0.59,3.42,2.97,3.87,2.68c0-0.15-2.38-1.93-4.01-3.12
				C368.04,103.56,368.04,103.71,369.08,104.6z M374.58,71.15c0,0,0.89-0.74,3.27-2.53c1.49-1.19,3.12-2.97,4.61-4.31
				C380.38,66.25,374.43,71.15,374.58,71.15z M380.38,63.87c2.23-2.08,1.78-1.93-0.3,0C378,66.1,378.44,65.95,380.38,63.87z
				 M380.67,60c1.04-1.04,2.23-2.38,2.53-3.12c0.45-0.74,0.59-1.04,0.59-1.04c-0.3,0-2.53,3.12-4.01,4.91
				C379.19,61.49,379.34,61.34,380.67,60z M381.12,48.26h-0.59C379.93,48.41,381.57,48.41,381.12,48.26z M382.16,63.87
				c0,0,0.59-0.59,1.78-1.78c0.89-1.04,2.68-3.86,2.53-3.86c0,0-0.59,0.59-1.93,2.53C383.05,62.38,382.01,63.87,382.16,63.87z
				 M383.5,48.56c-0.15-0.15-0.45-0.15-0.59,0C382.46,48.7,383.65,48.85,383.5,48.56z"/>
			<path d="M381.72,102.07c2.23-16.06,16.5-48.02,23.49-59.02c2.53-3.86,4.01-5.5,5.5-5.5c0.74,0,1.49,0.45,2.38,1.34
				c1.04,0.89,1.19,1.04,0.89,1.78c-0.15,0.45-0.15,0.59,0,0.59c0.45-0.3,0.15,0.74,0.45,0.15c0.74,1.04-10.11,20.51-10.85,22.89
				c-2.08,5.05-5.65,13.23-5.65,13.38c1.19-1.64,16.2-31.96,17.1-35.08c5.8,6.1-0.3,12.49-5.65,24.97
				c-7.73,15.46-11.45,24.68-17.25,38.95c-2.53,4.91-2.08,7.14-5.2,6.99c-0.15-0.3,0.3-1.04-0.15-1.19
				c-0.59-0.74,1.19-2.53,1.34-3.12c0.3-0.74,0.3-0.74-0.15-0.3c-1.04,0.89-1.78,1.49-2.08,1.49c-0.59-0.3,0.59-2.97,0.15-3.72
				c-0.15-0.59-0.3-0.89-0.3-0.45c0,1.19-1.04-0.59-0.89,1.64c-0.15-0.45-1.04-1.49-0.89-1.64c0.15-0.15,0-0.15-0.3,0
				c-1.04-0.15-0.59-0.74-1.34-1.49C381.57,104.15,381.57,104.01,381.72,102.07z M398.96,81.85c5.65-13.53,12.04-22.6,15.61-33
				c0.45-1.04,0.59-2.08,0.59-2.08c-0.15,0-0.59,0.74-1.64,2.97c-4.31,9.51-14.57,28.84-16.8,37.16
				C396.73,86.91,397.77,84.53,398.96,81.85z M407.14,45.73c0.45-0.89,1.19-1.93,1.49-2.38c0.3-2.97-8.77,15.16-9.66,17.99
				C399.41,60.89,406.69,46.33,407.14,45.73z M412.78,42.91c-0.3,0-10.55,19.33-9.96,19.33c0.74-1.04,8.47-16.2,9.07-17.24
				C412.64,43.5,412.93,42.91,412.78,42.91z"/>
			<path d="M410.11,98.51c0.59-1.78,0.3-3.57,2.08-3.57c0.45,0,1.19,0.15,2.08,0.59c2.38,0.89,5.35,1.34,8.62,1.34
				c5.35,0,11-1.34,13.82-4.16c-8.03-7.73-22.15-15.91-20.96-28.1c0.89-11.6,8.92-20.07,19.33-27.35
				c6.39-3.72,10.41-6.09,14.12-6.09c5.8,0,14.72,8.47,15.01,14.27c0.45,5.95-3.72,15.91-11.89,28.25c-3.27,5.05-5.8,8.03-6.84,8.32
				c-1.34,0.45-2.38-1.34-1.04-2.08c1.34-0.74,4.91-5.65,7.73-10.41c1.04-1.93,0.15-0.59-2.68,3.57c-2.53,3.87-7.58,9.66-6.39,6.39
				c6.54-11,17.69-26.31,16.2-34.34c-2.68,8.32-7.28,18.14-15.91,31.52c-0.74,0.74-0.74,2.68-1.04,1.93
				c-0.59-0.59-0.3,1.04-1.34,0.3c-4.16-3.12-2.23-4.76,1.93-13.53c3.57-7.14,7.28-14.42,8.32-19.18
				c-10.7,3.86-29.44,19.77-22.3,30.18c7.58,6.09,21.11,12.04,22.3,22.89c0.15,6.69-12.64,14.42-20.81,12.93
				c-5.5-0.89-12.93-2.38-15.01-6.99c-0.15-0.59-1.04-1.34-1.19-2.08c-0.45-0.45,0.74,0.3,1.19,0.15
				C417.54,103.56,409.22,99.1,410.11,98.51z M419.77,59.26c1.04-3.57-0.3-1.49-0.74,1.04C418.88,61.93,419.18,61.34,419.77,59.26z
				 M420.81,57.77c0.15,0,0.45-0.74,1.49-2.68c0.74-1.19,1.04-2.08,0.74-1.78C422.3,54.35,420.66,57.77,420.81,57.77z M422.3,61.49
				c0.15,0.59,0.74-1.64,0.74-1.78C422.89,59.7,422.15,61.49,422.3,61.49z M422.3,58.07c0.15,0.45,1.19-1.78,1.04-1.78
				C423.19,55.99,422.15,58.07,422.3,58.07z M423.19,66.39c0,0,0.89-1.78,1.78-3.86c1.93-8.03,13.38-17.54,17.99-21.11
				C434.49,45.88,422.15,56.88,423.19,66.39z M424.97,56.88c0.3-0.74,0-0.59-0.3,0C424.38,57.77,424.68,57.47,424.97,56.88z
				 M424.97,68.33c0-0.15,0.15-0.74,0.45-1.19c1.34-3.72,3.27-8.77,5.5-11.74C427.8,58.22,423.79,65.8,424.97,68.33z M428.24,61.04
				c0.15,0,0.59-0.74,1.04-1.49c1.19-2.53,7.14-8.33,8.18-9.96C434.93,51.08,428.69,58.81,428.24,61.04z M434.19,110.99h-2.08
				C430.62,111.14,435.53,111.14,434.19,110.99z M437.46,102.96c0.74-0.15,1.93-0.59,2.82-1.04c1.93-0.74,4.46-2.53,4.46-3.12
				c-0.45-1.19-0.59-1.04-2.53,0.59C441.92,100.29,434.93,103.56,437.46,102.96z M441.33,74.27c0-0.3-0.15-0.59-0.15-0.59
				C440.73,73.98,440.88,75.76,441.33,74.27z M441.03,105.64c1.34,0,5.95-3.42,6.54-4.61C447.72,100.73,440.43,105.64,441.03,105.64
				z M442.07,75.17c0,0.3,0.15,0.3,0.3-0.15C442.66,74.27,442.07,75.02,442.07,75.17z M443.11,76.06c1.49-2.38-0.59,0.45-0.74,1.04
				C442.37,77.4,442.37,77.4,443.11,76.06z M443.85,69.96c0.59-1.19,0.15-0.89-0.3,0C442.96,71.15,443.41,70.85,443.85,69.96z
				 M444.6,68.33c0.15,0,0.3-0.3,0.59-0.89C446.23,65.35,444.45,68.03,444.6,68.33z M446.98,99.99c-0.3-0.3-0.89,0.3-1.49,1.34
				C445.19,102.07,447.27,99.99,446.98,99.99z M445.49,78.14c0.15,0,1.19-1.34,2.97-4.01c7.88-12.04,13.38-22,12.78-27.65
				c-2.23,8.47-6.69,17.39-13.68,28.1C446.08,76.95,445.34,78.14,445.49,78.14z M447.57,68.92c0.3-0.89,0-0.74-0.3,0
				C446.83,69.67,447.27,69.52,447.57,68.92z M448.31,61.79c0.45-0.74,0-0.59-0.3,0C447.72,62.53,448.02,62.38,448.31,61.79z
				 M448.31,67.44c0.45-0.74,0-0.59-0.3,0C447.72,68.33,448.02,68.18,448.31,67.44z M448.76,66.69c0,0,0.3-0.45,0.59-1.04
				C450.69,62.68,448.61,66.25,448.76,66.69z M453.22,49.3c0.89-2.97,1.34-4.31,1.19-4.31c-0.15,0-1.78,4.01-3.27,8.77
				C450.84,55.1,452.48,51.23,453.22,49.3z M452.77,59.41c0.3-0.59,0.45-0.89,0.45-1.04c-0.15,0-0.45,0.45-0.59,0.89
				C452.03,60.45,452.18,60.45,452.77,59.41z M452.77,68.33c0.15,0,0.3-0.15,0.45-0.59C453.81,66.39,452.63,68.18,452.77,68.33z
				 M454.11,66.39c0.3-0.74,0-0.59-0.3,0C453.37,67.29,453.81,66.99,454.11,66.39z M454.71,53.76c0.15,0,1.64-3.42,2.08-4.76
				c0.45-1.19,0.74-2.82,0.89-3.42c-0.15-0.74-1.64,4.76-2.08,5.5C454.86,53.16,454.71,53.76,454.71,53.76z"/>
			<path d="M486.52,35.47c1.34,0,2.53,0.89,3.42,2.53c0.59-0.15,0.59-0.15,0.15,0.74s-0.3,1.49,0.15,0.89
				c1.34-1.19,1.19,0.89,2.08,0.74c0.45-0.15,1.78,2.38,1.78,3.42c4.46,5.65,0.45,19.03-0.15,27.35
				c4.76-3.86,11.15-13.08,16.8-17.84c8.92-8.18,13.53-14.72,22-16.5c2.97,0,4.16,1.64,5.05,3.12c0.3-0.3,0.3,0.3-0.15,1.19
				c-1.04,1.49,0.59,2.08,0.45,0.74v-0.74c0.3-0.3,1.34,0.3,1.34,0.89c0,0.3,0.15,0.59,0.15,0.59c0.59,0-0.15-1.04,0.3-0.45
				c0.45,0.45,1.34,2.97,1.34,4.01c-3.86,13.23-27.35,52.92-29.73,63.63c-0.59,1.78-1.49,4.46-2.38,4.46c-0.15,0-0.45-0.3-0.74-0.74
				c-0.3-0.59,0.45-3.12,0.45-3.57c0,0-0.45,0.3-0.89,0.74c-2.38,3.12-0.15-4.46-0.74-2.82c-0.15,0.74-0.59,0.59-0.59-0.15
				c0.15-1.04-1.04,0.45-1.04,0.59c0,0.59-0.45,0.45-0.59-0.15c-0.3-0.89-1.64-0.3-1.49-1.19c-0.89-0.3-1.49-0.45-1.19-3.12
				c0.45-5.2,3.57-14.72,8.47-27.35c2.23-4.31-3.86,3.27-9.37,8.18c-8.92,8.92-9.51,9.66-9.66,10.7c0,1.19-1.34,3.12-2.08,1.93
				c-0.15-0.15-0.89,0.45-2.08,1.64c-2.68,3.57-4.31,1.34-2.23-0.89c1.64-1.78,2.53-2.97,2.38-3.57c-0.3-0.59-4.46,4.91-4.61,3.57
				c0,0,4.46-5.5,3.57-5.35c0-0.89-2.97,2.97-2.97,2.23c0.15-1.04,1.19-2.68-0.45-0.45c-1.49,1.93-1.04-0.15-1.04-0.74
				c-0.59,1.34-1.34-0.59-1.78-0.74c-1.34,0,1.34-5.5,2.68-7.28c-0.15-5.8,0.3-15.16,0.45-20.07c-4.31,7.28-17.99,32.11-23.19,42.37
				c-2.08,4.76-5.2,9.22-4.16,2.82c1.64-4.16,3.27-7.58,6.24-13.23c4.16-8.77,19.77-34.64,22.3-43.41
				c-0.59,0.59-7.73,13.53-7.58,13.97c0,0.3-0.15,0.3-0.3,0.3c-0.3-0.15,0.15,0.74-0.15,0.89c-0.59,0.3,0-0.45-0.15-0.45
				c-0.15-0.15-1.19,1.64-0.74,1.49c0.45-0.15-0.15,0.74-0.3,0.45c-0.15,0-0.15,0.15,0,0.3c0,0.45,0,0.45-0.3,0.3
				c-0.45-0.15,0,1.04-0.59,1.34c-1.19,1.34-16.05,30.18-17.24,34.04c-1.04,2.53-2.68,4.91-3.27,4.31c-0.3,0.15,2.23-6.39,1.34-4.91
				c0.15,1.04-0.74,0-0.74,0.89c-0.15,0.89-0.74,0.3-0.59-0.15c0.3-1.04-0.89,0.15-1.04,0.59c-0.45,1.19-0.45-0.89-1.04-0.74
				c-0.3-0.15-0.3,0-0.3,0.15c-0.3,0.59-1.04-1.04-0.59-1.49c0-0.3-1.19,1.34-1.19-0.15C446.23,109.8,473.59,35.47,486.52,35.47z
				 M459.76,97.76c2.97-6.09,6.54-12.78,12.19-23.04c13.38-24.38,13.97-25.87,14.57-29.14l0.15-1.04
				c-4.16,5.65-27.06,49.06-29.88,59.61C457.09,103.71,458.42,100.73,459.76,97.76z M468.24,67.14c3.27-6.69,4.46-9.37,4.31-9.37
				c-0.3,0-11.74,22.6-12.19,24.83C462.44,79.03,464.67,74.12,468.24,67.14z M460.95,90.18c0.15,0.3,0.89-1.34,0.74-1.34
				C461.55,88.54,460.8,90.18,460.95,90.18z M462.14,87.5c0.15,0,1.93-3.57,6.84-13.23c4.01-7.88,6.24-12.49,6.24-12.49
				c-0.15,0-1.64,2.68-4.91,8.77C467.2,76.5,461.99,87.5,462.14,87.5z M474.78,59.85c1.04-2.08,0.74-1.93-0.3,0
				C473.44,62.08,473.74,61.93,474.78,59.85z M474.48,56.43c0.15,0,1.04-1.34,2.23-3.57c2.08-4.16,4.76-8.18,5.8-10.26
				c-0.3,0-5.05,7.88-7.28,12.34C474.63,55.99,474.48,56.43,474.48,56.43z M478.94,51.83c-0.15,0-3.27,5.5-3.12,6.1
				c0.15-0.15,0.89-1.64,1.78-3.27C478.64,52.57,478.94,51.83,478.94,51.83z M477.01,59.41c0.15,0,0.3-0.3,0.59-0.89
				C478.64,56.43,476.86,59.11,477.01,59.41z M479.53,55.1c1.19-2.38,5.65-9.51,6.24-10.85c-0.3,0.15-6.39,9.96-7.43,12.64
				C478.34,56.88,478.94,56.14,479.53,55.1z M499.16,82.6c3.57-4.01,16.05-16.05,17.1-18.73c0.3-1.04-18.58,19.18-20.22,20.66
				l1.34-1.19c0.74-0.74,0.3-0.15-1.04,1.19c-3.27,3.12-4.16,4.16-4.31,5.2C491.72,90.63,490.98,91.37,499.16,82.6z M492.47,86.91
				c1.93-2.08,3.27-3.57,6.99-7.58c4.61-5.5,19.18-19.03,21.41-24.38c-4.16,2.97-15.31,15.31-24.53,25.42
				C492.02,85.42,492.47,84.23,492.47,86.91z M492.76,82.6c0.15,0,1.19-1.19,4.01-4.31c3.57-4.31,3.57-3.57,5.8-5.95
				C500.49,73.08,492.47,82.6,492.76,82.6z M493.06,77.1c0.15,0,1.34-1.34,4.31-4.91c1.64-1.93,2.38-2.97,2.38-2.97
				c-0.15,0-0.3,0.15-0.74,0.59C496.18,72.64,492.91,77.1,493.06,77.1z M494.55,45.88c0.15,0,0.3-0.15,0.3-0.3
				C494.55,44.69,493.95,46.03,494.55,45.88z M496.48,76.5c0.15,0,0.45-0.3,0.74-0.59C498.26,74.57,496.48,76.21,496.48,76.5z
				 M499.01,73.68l0.89-0.89C498.86,73.53,496.93,75.91,499.01,73.68z M499.75,72.64c0.15,0,2.38-2.38,5.05-5.35
				c2.68-2.97,3.87-4.31,2.68-3.12C504.8,66.99,499.6,72.64,499.75,72.64z M500.94,69.07c0.15,0,1.19-1.19,3.86-4.01
				c0.74-1.04,10.85-11.6,10.56-11.6c0,0-0.3,0.3-0.89,0.89C511.2,57.47,500.79,69.07,500.94,69.07z M504.95,69.67
				c1.19-1.19,4.31-4.61,7.14-7.43l4.76-5.2c-3.27,3.27-8.62,8.92-11.45,11.89C503.17,71.45,503.02,71.6,504.95,69.67z
				 M507.78,74.27c0,0,1.34-1.19,3.57-3.42c2.23-2.38,3.27-3.42,3.27-3.42c-0.15,0-1.34,1.19-3.57,3.42
				C508.67,73.08,507.63,74.27,507.78,74.27z M509.86,106.09c0.3,0,3.27-8.62,4.01-9.81c5.2-11.74,16.2-32.26,22.6-45.94
				c-0.59,0.59-3.12,3.57-2.53,3.72c0.3-0.15,0.3,0,0,0.3c-0.59,1.04-0.89,0.74-1.64,2.38c-0.45,0.89-0.74,1.64-0.59,1.49
				c0.15-0.15,0.3,0,0.15,0.15c-0.15,0.3-0.3,0.45-0.3,0.3c-0.45-0.15,0.15,0.89-0.45,0.89l-0.3,0.3c0,0.45-0.74,0.59-1.04,1.64
				c-0.45,0.89-0.59,1.49-0.45,1.34c0.45-0.3-0.15,0.74-0.3,0.45c-0.3-0.15,0.3,1.04-0.15,0.59c-0.3-0.15-0.3,0-0.15,0.3
				c0.3,0.74-0.59-0.3-0.3,0.45c-5.2,8.92-14.12,28.25-17.69,38.5C510.01,105.34,509.86,106.09,509.86,106.09z M510.01,99.84
				c0.15,0,0.89-1.93,2.97-6.84c4.31-9.96,14.87-30.77,18.88-37.76c-5.5,3.72-7.88,11.74-13.38,23.04
				C515.51,84.83,509.71,99.84,510.01,99.84z M512.54,79.92c0,0,0.74-1.49,2.38-5.35c2.08-4.61,2.53-5.65,1.78-4.76
				C515.96,71,512.39,79.92,512.54,79.92z M514.17,84.83c0.15,0.3,0.59-0.74,0.45-0.89C514.47,83.64,514.02,84.68,514.17,84.83z
				 M517.14,78.44c1.34-3.42,6.69-13.82,7.58-16.5c-0.74,0.45-8.47,17.1-9.96,21.26C514.17,84.68,515.21,82.75,517.14,78.44z
				 M528.59,48.85c0.15-0.3,0.74-0.89,1.04-1.49C530.82,44.99,528,49,528.59,48.85z M534.09,48.7c0.45-0.45,1.04-1.19,1.19-1.34
				c0.45-0.59,0.3-0.59-0.45,0C533.2,48.56,532.16,50.79,534.09,48.7z M537.06,44.39c0.15-0.3-0.45-0.3-0.45,0
				C536.77,44.84,536.92,44.69,537.06,44.39z"/>
			<path d="M530.97,87.21C530.38,75.91,546.28,38,559.96,38c1.04,0,1.93,0.3,2.82,0.59c1.19-2.23,3.12-3.12,5.2-3.12
				c4.01,0,8.77,2.97,10.7,6.09c20.81,21.7-14.72,67.64-35.08,64.37c-3.42-1.04-4.31-3.72-6.09-6.39
				C534.39,94.94,530.38,94.79,530.97,87.21z M536.77,72.94c0.15,0,0.59-1.19,1.93-4.46c0.89-2.08,3.27-7.58,3.12-7.58
				c-0.15,0-0.59,0.74-1.64,2.82C539.15,65.8,536.62,72.94,536.77,72.94z M539.59,81.56c1.19-2.53,3.87-9.22,5.65-12.93
				c5.2-11.74,10.85-18.28,15.61-24.83C552.53,48.11,541.53,70.71,539.59,81.56z M540.34,73.53c0,0,0.59-1.19,1.78-4.16
				c1.19-2.97,2.53-5.35,2.97-7.14C544.5,62.23,540.19,73.53,540.34,73.53z M540.34,86.61c0.45-0.3,0.74-2.38,1.49-4.01
				c3.12-9.81,12.19-26.31,15.31-31.22c-4.01,4.76-8.77,12.34-9.37,15.01C546.88,66.69,540.19,83.64,540.34,86.61z M545.09,91.07
				c14.27-4.01,28.99-28.69,29.29-41.33c0.89-5.05-3.42-1.93-5.95-3.12c-11.89,4.91-22.75,31.96-26.02,44.3
				C541.82,92.71,544.05,91.22,545.09,91.07z M544.65,57.62c1.04-1.78,3.57-5.65,4.31-6.99c-0.3,0-3.57,5.05-4.76,7.28
				C542.57,60.89,543.01,60.6,544.65,57.62z M545.69,58.96c0.45-1.04,0.15-0.89-0.3,0C544.8,60.15,545.24,60,545.69,58.96z
				 M547.03,105.34c0-0.15-0.3-0.15-0.45-0.15C545.99,105.34,547.32,105.49,547.03,105.34z M546.88,59.7c0.15,0,0.45-0.59,1.49-2.23
				c0.89-1.64,1.93-2.68,2.23-3.57C550.3,53.61,546.88,59.7,546.88,59.7z M552.38,97.32c12.34-4.01,27.5-25.72,27.5-37.16
				c-6.09,16.65-15.16,31.07-31.07,37.91C547.32,98.65,550.59,98.06,552.38,97.32z M552.67,59.7c0,0,0.89-1.19,2.68-3.72
				c2.82-4.31,5.65-7.43,7.88-10.26c-0.74,0-5.2,5.35-8.03,9.81C553.42,58.37,552.53,59.7,552.67,59.7z M554.01,100.14
				c0.15,0,1.04-0.45,2.97-1.49c4.16-2.23,8.47-5.8,11.74-9.81c2.38-2.97,2.68-3.42,0.74-1.19
				C567.09,91.96,553.27,100.14,554.01,100.14z M561.74,94.34c0.15,0,1.64-1.34,4.01-3.72c7.28-6.69,14.42-18.29,15.91-27.35
				c0.74-2.97,0.45-3.27-0.3-0.59c-1.34,4.91-5.35,13.08-6.84,15.91c-2.82,4.01-6.09,8.77-10.7,13.38
				C562.19,93.6,561.59,94.34,561.74,94.34z M566.35,83.79c1.93-2.53,2.53-3.42,2.53-3.42c-0.3,0-5.05,5.95-6.39,7.28
				C563.82,86.46,565.01,85.27,566.35,83.79z M566.35,42.46c0.15,0.3,1.19,0,1.64-0.45C569.18,40.97,566.2,42.01,566.35,42.46z
				 M566.5,80.52c0,0,0.3-0.3,0.45-0.59C567.84,78.88,565.9,80.67,566.5,80.52z M566.95,43.8c0,0.3,0.59,0.3,1.04,0
				C568.88,43.2,566.8,43.2,566.95,43.8z M568.28,45.88c0-0.15-0.15-0.15-0.3-0.3C567.09,45.43,568.28,46.33,568.28,45.88z
				 M567.84,78.58c0.15,0,0.3-0.3,0.45-0.45C569.18,77.1,567.24,78.73,567.84,78.58z M567.99,74.27c0,0,0.45-0.59,1.34-2.08
				c1.78-2.97,4.16-7.73,5.05-10.56c0.89-2.53,0.74-3.12-0.15-0.59C574.53,61.49,567.54,74.27,567.99,74.27z M570.07,77.84
				c0.3,0.3,0.3,0.15,0.59,0C570.81,77.4,569.92,77.4,570.07,77.84z M571.11,46.03h-0.74C569.62,46.18,571.7,46.18,571.11,46.03z
				 M571.4,75.61c2.38-3.42,6.24-12.04,6.84-14.57c0-0.45-0.3,0.15-0.74,1.49c-1.93,4.91-5.5,11.45-7.14,14.72
				C570.36,77.25,570.96,76.5,571.4,75.61z M582.41,60.15c0.15-0.3,0.3-0.74,0.3-1.34C582.85,56.58,581.96,60.75,582.41,60.15z"/>
		</g>
	</g>
</g>
</svg>
