<?xml version="1.0" encoding="utf-8"?>
<!-- Generator: Adobe Illustrator 25.4.1, SVG Export Plug-In . SVG Version: 6.00 Build 0)  -->
<svg version="1.1" id="Layer_1" xmlns="http://www.w3.org/2000/svg" xmlns:xlink="http://www.w3.org/1999/xlink" x="0px" y="0px"
	 viewBox="0 0 595.28 184.11" style="enable-background:new 0 0 595.28 184.11;" xml:space="preserve">
<style type="text/css">
	.st0{fill:#FFFFFF;}
</style>
<g>
	<g>
		<path class="st0" d="M272.59,131.13h-8.61v23.32h-2.12v-23.32h-8.59v-1.79h19.31V131.13z"/>
		<path class="st0" d="M293.94,129.33v17.14c-0.01,1.69-0.39,3.16-1.12,4.42c-0.74,1.25-1.77,2.22-3.11,2.89
			c-1.34,0.67-2.88,1.01-4.61,1.01c-2.64,0-4.76-0.72-6.35-2.16c-1.59-1.44-2.42-3.44-2.47-5.99v-17.3h2.1v16.99
			c0,2.12,0.6,3.76,1.81,4.92c1.21,1.17,2.85,1.75,4.91,1.75c2.07,0,3.7-0.59,4.91-1.76c1.2-1.17,1.8-2.8,1.8-4.9v-17H293.94z"/>
		<path class="st0" d="M309.23,143.97h-7.29v10.47h-2.14v-25.11h8.16c2.68,0,4.77,0.65,6.28,1.95c1.51,1.3,2.26,3.11,2.26,5.44
			c0,1.61-0.47,3.03-1.41,4.26c-0.94,1.23-2.21,2.08-3.79,2.55l6.28,10.69v0.23h-2.26L309.23,143.97z M301.94,142.18h6.5
			c1.78,0,3.21-0.51,4.29-1.52c1.08-1.01,1.62-2.33,1.62-3.94c0-1.77-0.56-3.15-1.69-4.13c-1.13-0.98-2.71-1.47-4.74-1.47h-5.98
			V142.18z"/>
		<path class="st0" d="M324.86,154.44h-2.12v-25.11h2.12V154.44z"/>
		<path class="st0" d="M345.88,148.27c0-1.39-0.49-2.49-1.47-3.3c-0.98-0.81-2.76-1.58-5.36-2.31s-4.49-1.53-5.69-2.39
			c-1.7-1.22-2.55-2.82-2.55-4.79c0-1.92,0.79-3.48,2.37-4.68c1.58-1.2,3.6-1.8,6.06-1.8c1.67,0,3.16,0.32,4.48,0.97
			c1.32,0.64,2.34,1.54,3.06,2.69c0.72,1.15,1.09,2.43,1.09,3.85h-2.14c0-1.72-0.59-3.1-1.76-4.14c-1.17-1.04-2.75-1.56-4.73-1.56
			c-1.92,0-3.45,0.43-4.59,1.29c-1.14,0.86-1.71,1.98-1.71,3.36c0,1.28,0.51,2.32,1.54,3.13c1.02,0.81,2.66,1.52,4.91,2.13
			c2.25,0.62,3.96,1.25,5.12,1.92c1.16,0.66,2.03,1.45,2.62,2.37c0.59,0.92,0.88,2.01,0.88,3.26c0,1.98-0.79,3.56-2.37,4.76
			c-1.58,1.2-3.67,1.79-6.25,1.79c-1.77,0-3.39-0.32-4.87-0.95c-1.48-0.63-2.6-1.52-3.36-2.66c-0.77-1.14-1.15-2.44-1.15-3.91h2.12
			c0,1.77,0.66,3.17,1.98,4.19c1.32,1.02,3.08,1.54,5.28,1.54c1.95,0,3.52-0.43,4.71-1.29C345.29,150.84,345.88,149.7,345.88,148.27
			z"/>
		<path class="st0" d="M355.4,129.33l9.26,22.16l9.3-22.16h2.83v25.11h-2.12v-10.93l0.17-11.21l-9.35,22.14h-1.64l-9.31-22.06
			l0.17,11.05v11h-2.12v-25.11H355.4z"/>
		<path class="st0" d="M401.7,143.25c0,2.31-0.4,4.34-1.2,6.09c-0.8,1.75-1.94,3.09-3.42,4.03c-1.48,0.94-3.2,1.41-5.14,1.41
			c-2.93,0-5.3-1.05-7.11-3.15s-2.71-4.93-2.71-8.49v-2.59c0-2.29,0.41-4.31,1.22-6.08s1.96-3.12,3.44-4.07
			c1.48-0.95,3.19-1.42,5.12-1.42c1.93,0,3.64,0.47,5.11,1.4c1.48,0.93,2.62,2.25,3.42,3.95c0.81,1.7,1.22,3.67,1.26,5.92V143.25z
			 M399.58,140.53c0-3.02-0.68-5.39-2.05-7.1c-1.37-1.71-3.24-2.57-5.62-2.57c-2.33,0-4.19,0.86-5.58,2.58
			c-1.39,1.72-2.08,4.12-2.08,7.2v2.62c0,2.98,0.69,5.34,2.07,7.08c1.38,1.74,3.25,2.61,5.62,2.61c2.4,0,4.28-0.86,5.62-2.58
			c1.35-1.72,2.02-4.11,2.02-7.18V140.53z"/>
		<path class="st0" d="M434.33,154.44h-2.12l-14.43-21.49v21.49h-2.14v-25.11h2.14l14.45,21.51v-21.51h2.1V154.44z"/>
		<path class="st0" d="M459.27,143.25c0,2.31-0.4,4.34-1.2,6.09c-0.8,1.75-1.94,3.09-3.42,4.03c-1.48,0.94-3.2,1.41-5.14,1.41
			c-2.93,0-5.3-1.05-7.1-3.15c-1.81-2.1-2.71-4.93-2.71-8.49v-2.59c0-2.29,0.4-4.31,1.22-6.08c0.81-1.77,1.96-3.12,3.44-4.07
			c1.48-0.95,3.19-1.42,5.12-1.42s3.64,0.47,5.11,1.4c1.48,0.93,2.62,2.25,3.42,3.95c0.81,1.7,1.22,3.67,1.26,5.92V143.25z
			 M457.15,140.53c0-3.02-0.68-5.39-2.05-7.1c-1.37-1.71-3.24-2.57-5.62-2.57c-2.33,0-4.19,0.86-5.58,2.58
			c-1.39,1.72-2.08,4.12-2.08,7.2v2.62c0,2.98,0.69,5.34,2.07,7.08c1.38,1.74,3.25,2.61,5.62,2.61c2.4,0,4.28-0.86,5.62-2.58
			c1.35-1.72,2.02-4.11,2.02-7.18V140.53z"/>
		<path class="st0" d="M474,143.97h-7.3v10.47h-2.14v-25.11h8.16c2.68,0,4.77,0.65,6.28,1.95c1.51,1.3,2.26,3.11,2.26,5.44
			c0,1.61-0.47,3.03-1.41,4.26c-0.94,1.23-2.21,2.08-3.79,2.55l6.28,10.69v0.23h-2.26L474,143.97z M466.7,142.18h6.5
			c1.78,0,3.21-0.51,4.29-1.52c1.08-1.01,1.62-2.33,1.62-3.94c0-1.77-0.56-3.15-1.69-4.13c-1.13-0.98-2.71-1.47-4.74-1.47h-5.98
			V142.18z"/>
		<path class="st0" d="M502.69,131.13h-8.61v23.32h-2.12v-23.32h-8.59v-1.79h19.31V131.13z"/>
		<path class="st0" d="M520.61,142.41h-11.74v10.24h13.5v1.79h-15.62v-25.11h15.54v1.79h-13.42v9.49h11.74V142.41z"/>
		<path class="st0" d="M545.53,154.44h-2.12l-14.43-21.49v21.49h-2.14v-25.11h2.14l14.45,21.51v-21.51h2.1V154.44z M542.06,123.26
			c0,1.1-0.33,1.98-0.97,2.65c-0.65,0.67-1.45,1-2.39,1c-0.87,0-1.73-0.32-2.56-0.95c-0.83-0.63-1.58-0.95-2.23-0.95
			c-0.54,0-0.99,0.18-1.35,0.54c-0.36,0.36-0.54,0.86-0.54,1.5l-1.55-0.05c0-1.05,0.31-1.92,0.94-2.61
			c0.63-0.69,1.43-1.03,2.42-1.03c0.55,0,1.02,0.1,1.41,0.29c0.39,0.2,0.76,0.41,1.1,0.65c0.34,0.24,0.69,0.46,1.04,0.66
			c0.35,0.2,0.76,0.29,1.23,0.29c0.53,0,0.98-0.19,1.35-0.57c0.37-0.38,0.56-0.89,0.56-1.54L542.06,123.26z"/>
		<path class="st0" d="M570.47,143.25c0,2.31-0.4,4.34-1.2,6.09c-0.8,1.75-1.94,3.09-3.42,4.03c-1.48,0.94-3.2,1.41-5.14,1.41
			c-2.93,0-5.3-1.05-7.11-3.15c-1.8-2.1-2.71-4.93-2.71-8.49v-2.59c0-2.29,0.41-4.31,1.22-6.08c0.81-1.77,1.96-3.12,3.44-4.07
			c1.48-0.95,3.19-1.42,5.12-1.42c1.93,0,3.64,0.47,5.11,1.4c1.48,0.93,2.62,2.25,3.42,3.95c0.81,1.7,1.22,3.67,1.26,5.92V143.25z
			 M568.34,140.53c0-3.02-0.68-5.39-2.05-7.1c-1.37-1.71-3.24-2.57-5.62-2.57c-2.33,0-4.19,0.86-5.58,2.58
			c-1.39,1.72-2.08,4.12-2.08,7.2v2.62c0,2.98,0.69,5.34,2.07,7.08s3.25,2.61,5.62,2.61c2.4,0,4.28-0.86,5.62-2.58
			c1.35-1.72,2.02-4.11,2.02-7.18V140.53z"/>
	</g>
	<g>
		<g>
			<path class="st0" d="M42.03,70.58c9-13.8,16.6-33.8,25-36.2c2.2,0.4,3.8,2.6,4.6,3.2c1.4-0.2-0.6,2.2,0.2,2
				c1.6-0.2,1.4,1.8,2.4,2.4c1,0.6,0.6,1,1.6,2c1,1.2,0.4,2.2,1.8,3.6c1,0.8,1.2,1.2,1.2,2.4c0,1.8,0,0.2,0.6,0
				c0.2,0,0.2-0.2,0.2-0.4c0.2-0.8,2,5.2,2.4,6.4c-1.6,13.2-4,52.2-3,53.6c8.4-15.8,32-60.4,35.2-78c0.4-4.2,1.8-7.2,3.4-7.2
				c0.8,0,1.4,0.6,2,1.6c0,0.8,0,0.8,0.4,0.2c1-1.6,0.8,0.4,1.4,0.4c0.4-0.2,0.8,0,0.8,0.4c0.4,1.2,1.2,0.4,1.4,1.6
				c0.4,1.2,1.8,2.2,1.8,3.2c0,1,1.8,1.2,2,2c0.2,0.4,0.6,2.2,0.8,3c0-0.6-0.2-2-0.2-2.6c8.6,13-3,28.4-15.6,56.2
				c-17.6,33.2-20.6,44.2-34.2,56.8c-0.4,0-1.4-2.2-1.4-3.2c0-0.4-0.2-0.6-0.8-0.4c-0.4,0-0.8-0.2-1.2-1.8c-0.4-2.4-1.2-2-2.2-3.2
				c-8.2-2.6-9.2-43.6-9.8-53.4c0-4.4,0-8-0.2-8c-8.8,13.2-34.6,62.4-37.4,75.8c-2.4,5,0.8,13.6-6.2,12c-0.4,0-0.2-4.6-0.8-4.4
				c-1,0.4-1.6-0.8-1.6-3.2c-0.2-3.8-0.8-1.8-3.2-4.8C2.03,141.58,34.03,87.98,42.03,70.58z M31.63,124.78c0.6-1,11-22.2,12-23.4
				c5.2-9.6,15-24.4,19.6-35c0-0.8-0.6-0.2-2.8,3.4C52.43,81.78,36.43,111.98,31.63,124.78z M33.83,113.18c0.2,0,1.4-2.6,4-7.4
				c4.2-10.2,22.8-37.6,26.2-47.8c0.2-1.4,0.4-2.6,0.2-2.8c-6.8,10-21.4,37.8-27.6,51C34.63,110.78,33.63,113.18,33.83,113.18z
				 M41.23,81.38c8.2-15.6,16.8-29.4,21.4-37.8c-4,4.4-24.8,41.2-25.6,45.2C37.23,88.78,39.03,85.38,41.23,81.38z M51.43,73.58
				c2.4-4.6,11-18.6,12.8-22.4c-3.8,4.4-23,39.2-24,42.6C42.43,90.38,48.63,78.18,51.43,73.58z M64.03,48.58c0.6-1,0-0.8-0.4,0
				C63.23,49.58,63.63,49.38,64.03,48.58z M65.03,42.58c0.4-0.2,0.6-0.6,0.8-1C67.03,39.58,64.63,42.58,65.03,42.58z M87.83,102.58
				c13.4-26.2,24.2-48.2,28.8-63.6c0-0.2-1.2,2.4-2.4,5.8c-6.8,18-25,53.2-35.2,73.4C79.03,118.98,81.43,114.78,87.83,102.58z
				 M83.03,122.38c13.4-24.4,31.8-59.4,38.4-81c-8.6,24.2-31.6,66.6-41.8,86.8C79.63,128.18,81.23,125.58,83.03,122.38z
				 M80.03,133.98c0.2,0,0.8-0.4,1.4-1.6c8.4-15,40.2-70.6,42.2-90.4c-7.6,20.6-30,67-41.6,85.4
				C80.03,129.98,79.23,133.98,80.03,133.98z M82.43,137.38c4.6-5.8,46-83.8,44.4-93.8c-3.4,12-36.4,81-45.8,92.4
				C79.23,137.98,80.63,139.58,82.43,137.38z M81.63,141.78c0-0.2-0.2-0.4-0.4-0.4C80.63,141.38,81.63,142.78,81.63,141.78z
				 M124.22,30.98c0.4,0.6,0.4,0.6,0.2-0.2C124.22,29.98,123.82,30.59,124.22,30.98z"/>
			<path class="st0" d="M114.43,108.98c-0.8-15.2,20.6-66.2,39-66.2c1.4,0,2.6,0.4,3.8,0.8c1.6-3,4.2-4.2,7-4.2
				c5.4,0,11.8,4,14.4,8.2c28,29.2-19.8,91-47.2,86.6c-4.6-1.4-5.8-5-8.2-8.6C119.03,119.38,113.63,119.18,114.43,108.98z
				 M122.23,89.78c0.2,0,0.8-1.6,2.6-6c1.2-2.8,4.4-10.2,4.2-10.2s-0.8,1-2.2,3.8C125.43,80.18,122.03,89.78,122.23,89.78z
				 M126.03,101.38c1.6-3.4,5.2-12.4,7.6-17.4c7-15.8,14.6-24.6,21-33.4C143.43,56.38,128.63,86.78,126.03,101.38z M127.03,90.58
				c0,0,0.8-1.6,2.4-5.6c1.6-4,3.4-7.2,4-9.6C132.63,75.38,126.83,90.58,127.03,90.58z M127.03,108.18c0.6-0.4,1-3.2,2-5.4
				c4.2-13.2,16.4-35.4,20.6-42c-5.4,6.4-11.8,16.6-12.6,20.2C135.83,81.38,126.83,104.18,127.03,108.18z M133.43,114.18
				c19.2-5.4,39-38.6,39.4-55.6c1.2-6.8-4.6-2.6-8-4.2c-16,6.6-30.6,43-35,59.6C129.03,116.38,132.03,114.38,133.43,114.18z
				 M132.83,69.18c1.4-2.4,4.8-7.6,5.8-9.4c-0.4,0-4.8,6.8-6.4,9.8C130.03,73.58,130.63,73.18,132.83,69.18z M134.23,70.98
				c0.6-1.4,0.2-1.2-0.4,0C133.03,72.58,133.63,72.38,134.23,70.98z M136.03,133.38c0-0.2-0.4-0.2-0.6-0.2
				C134.63,133.38,136.42,133.58,136.03,133.38z M135.83,71.98c0.2,0,0.6-0.8,2-3c1.2-2.2,2.6-3.6,3-4.8
				C140.42,63.78,135.83,71.98,135.83,71.98z M143.23,122.58c16.6-5.4,37-34.6,37-50c-8.2,22.4-20.4,41.8-41.8,51
				C136.42,124.38,140.83,123.58,143.23,122.58z M143.62,71.98c0,0,1.2-1.6,3.6-5c3.8-5.8,7.6-10,10.6-13.8c-1,0-7,7.2-10.8,13.2
				C144.62,70.18,143.43,71.98,143.62,71.98z M145.42,126.38c0.2,0,1.4-0.6,4-2c5.6-3,11.4-7.8,15.8-13.2c3.2-4,3.6-4.6,1-1.6
				C163.02,115.38,144.42,126.38,145.42,126.38z M155.82,118.58c0.2,0,2.2-1.8,5.4-5c9.8-9,19.4-24.6,21.4-36.8c1-4,0.6-4.4-0.4-0.8
				c-1.8,6.6-7.2,17.6-9.2,21.4c-3.8,5.4-8.2,11.8-14.4,18C156.42,117.58,155.62,118.58,155.82,118.58z M162.02,104.38
				c2.6-3.4,3.4-4.6,3.4-4.6c-0.4,0-6.8,8-8.6,9.8C158.62,107.98,160.22,106.38,162.02,104.38z M162.02,48.78c0.2,0.4,1.6,0,2.2-0.6
				C165.82,46.78,161.82,48.18,162.02,48.78z M162.22,99.98c0,0,0.4-0.4,0.6-0.8C164.02,97.78,161.42,100.18,162.22,99.98z
				 M162.82,50.58c0,0.4,0.8,0.4,1.4,0C165.42,49.78,162.62,49.78,162.82,50.58z M164.62,53.38c0-0.2-0.2-0.2-0.4-0.4
				C163.02,52.78,164.62,53.98,164.62,53.38z M164.02,97.38c0.2,0,0.4-0.4,0.6-0.6C165.82,95.38,163.22,97.58,164.02,97.38z
				 M164.22,91.58c0,0,0.6-0.8,1.8-2.8c2.4-4,5.6-10.4,6.8-14.2c1.2-3.4,1-4.2-0.2-0.8C173.02,74.38,163.62,91.58,164.22,91.58z
				 M167.02,96.38c0.4,0.4,0.4,0.2,0.8,0C168.02,95.78,166.82,95.78,167.02,96.38z M168.42,53.58h-1
				C166.42,53.78,169.22,53.78,168.42,53.58z M168.82,93.38c3.2-4.6,8.4-16.2,9.2-19.6c0-0.6-0.4,0.2-1,2
				c-2.6,6.6-7.4,15.4-9.6,19.8C167.42,95.58,168.22,94.58,168.82,93.38z M183.62,72.58c0.2-0.4,0.4-1,0.4-1.8
				C184.22,67.78,183.02,73.38,183.62,72.58z"/>
			<path class="st0" d="M175.42,130.98c0-9.6,7.4-30,21-57c5.4-10.8,5.6-11.4,5.2-12.6c-0.6-1.8,0.2-0.8,0.8-1.2
				c0-0.2-0.4-0.4-0.8-0.4c-2-0.2,5.6-1.8,3-2.2c-0.4,0-1,0.2-1.4,0.6c-1,1-4.4,0.2-2.2-0.6c1.4,0,0-2,1.4-1.8
				c1.8,0,7.6-3.6,6.8-4.2c-0.2-0.4-6,2.2-7,3c-1.2,1.2-1,0-2,0.2c-1-2.2-4.2-8.8,3-11c5.8-2.4,15-5,23.4-5c6.2,0,12,1.4,15.8,5.4
				c21.4,24.8-1,51.6-28.6,62c-1.2,0.6-2.4,1-2.4,1c2.8,6.2,21.2,26.6,25.4,26.6c2.2,0,4.6,4,1,3.6c-3,0-1,3-5.2,1.4
				c-0.4,0-0.6,0-0.8,0.8c-0.4,1.2-3.8,5.6-5.6,5c-11.4-1.2-26.2-17-31.2-28.2c-3.4,7-9.8,23.4-8.8,23.4c2.4,2-0.8,8-3.4,5.8
				c-0.8-0.8-0.4-2.8-1.6-3.4c-0.6-0.4-0.8-1-0.8-2.2C180.02,135.78,174.42,136.38,175.42,130.98z M188.82,120.98
				c0.2,0,0.8-1.4,2.2-4.8c1-2.4,1.8-4.4,1.8-4.6C192.22,111.98,188.62,120.98,188.82,120.98z M195.22,99.98c0-0.2-0.2-0.4-0.4-0.4
				c-0.2,0.2-5.2,12.6-5.2,12.8S195.82,99.98,195.22,99.98z M191.62,91.98c0.2,0,1.6-3.2,5.6-11.4c2.8-5.8,5-10.8,5-10.8
				C200.82,71.18,191.42,91.98,191.62,91.98z M195.62,104.98c0,0,0.2-0.2,0.6-0.4C197.02,103.18,195.02,104.58,195.62,104.98z
				 M196.42,91.78c0,0,1.6-2.8,4.4-8.6c4-7.8,5.4-11.2,5.2-11.2s-1.8,3-4.2,8C198.02,87.98,196.22,91.78,196.42,91.78z
				 M196.82,101.98c0.2,0.8,0.8,0.2,0.8-0.4C197.42,100.78,196.82,101.58,196.82,101.98z M200.02,91.18c1-1.4,16.2-31.4,16.8-31.8
				c-0.6,0-2.4,0.4-2.6,0.4C213.42,61.58,194.22,96.58,200.02,91.18z M202.02,51.78c0.2,0,0.4-0.4,0.8-0.6
				C204.02,49.58,201.42,51.98,202.02,51.78z M203.02,53.18c0-0.2,0-0.2-0.4-0.2C201.42,53.58,202.62,53.78,203.02,53.18z
				 M202.62,109.18c1.6,8.2,12,18.2,19,23.8c2.8,2.2,5.2,3.4,6,3.4c0.6,0,0-0.8-2-2.6C215.22,125.78,209.22,117.38,202.62,109.18z
				 M203.62,100.78c1,0,3.6-0.6,5.8-1.4c12.8-5.2,29.8-15.4,33.8-28c-7.6,10.4-24.6,23.8-37.8,27.8
				C202.62,100.18,202.42,100.78,203.62,100.78z M203.02,90.38c0.4,0,4.2-6.6,8.4-15.4c5.8-10.8,8-15.8,7.6-15.8
				c-0.6,0-5.4,8.4-12.6,23C203.62,87.98,202.82,90.38,203.02,90.38z M207.42,62.18c0-0.4-0.2-0.2-0.6,0.8
				C205.82,64.78,207.62,62.58,207.42,62.18z M207.02,126.78c1.4,1.8,6,6,6,5.6c0,0-1.6-1.8-3.8-3.8
				C207.02,126.38,206.02,125.58,207.02,126.78z M221.22,125.98c0,0-1.4-1.8-3.2-4c-2-1.4-10.4-14-11.2-13.4
				C207.02,109.98,218.42,123.38,221.22,125.98z M209.42,66.78c0.8-1.6,0.4-1.4-0.2,0C208.42,68.18,208.82,67.98,209.42,66.78z
				 M212.02,102.58c7.2-2.6,20.2-10.4,24.2-14.6c0.6-0.8,0.2-0.6-1.4,0.8c-8.2,6.6-18.4,11.2-25.8,14.2
				C209.02,103.38,209.82,103.38,212.02,102.58z M209.82,86.78c0.4,0,1.8-1,4.6-2.8c9-6.4,21-16.6,23.2-25.4c-1-1-12.6-0.8-15.2-0.2
				c-0.6,0-0.6,0.2-0.6,2.2c0,2-0.4,2.6-6,14C213.02,81.18,208.42,86.78,209.82,86.78z M210.42,115.18c4.2,6.4,14.2,18.4,20.8,19.8
				C224.82,129.98,216.42,122.58,210.42,115.18z M216.62,130.18c-0.2-0.4-4.6-4.6-6.2-6C211.82,125.58,217.02,131.18,216.62,130.18z
				 M211.42,63.38c0.6-1.6,0.2-1.2-0.4,0C210.22,64.98,210.62,64.78,211.42,63.38z M210.62,127.58l2.6,2.6c2.4,2.2,2.6,2.4,2.6,2.2
				C215.82,131.98,211.62,128.58,210.62,127.58z M212.62,133.38c0,1.2,7,6.2,7.6,5.4C220.02,138.58,213.22,133.78,212.62,133.38z
				 M214.62,50.18c0.4,0.6,1.2,0.6,6.6-0.4c2.6-0.6,5-1,5.6-1.2C225.22,48.18,213.62,49.78,214.62,50.18z M216.02,88.18
				c1,0,14.2-10.2,15.2-11.4C232.42,75.78,215.62,88.18,216.02,88.18z M220.22,97.38c7-3.8,13.8-8.6,18.2-13
				c3.8-3.2,6.2-7.8,6.8-10.2c-1.8,1.8-7.4,10.4-7.8,9.8c-0.6-0.2,0.2,0.6-0.4,0.6c-4.4,3.4-10.2,8.8-17.6,12.8
				C215.22,99.78,215.82,99.78,220.22,97.38z M218.02,132.38c1,0.8,4.6,4,5.2,3.6c0-0.2-3.2-2.6-5.4-4.2
				C216.62,130.98,216.62,131.18,218.02,132.38z M225.42,87.38c0,0,1.2-1,4.4-3.4c2-1.6,4.2-4,6.2-5.8
				C233.22,80.78,225.22,87.38,225.42,87.38z M233.22,77.58c3-2.8,2.4-2.6-0.4,0C230.02,80.58,230.62,80.38,233.22,77.58z
				 M233.62,72.38c1.4-1.4,3-3.2,3.4-4.2c0.6-1,0.8-1.4,0.8-1.4c-0.4,0-3.4,4.2-5.4,6.6C231.62,74.38,231.82,74.18,233.62,72.38z
				 M234.22,56.58h-0.8C232.62,56.78,234.82,56.78,234.22,56.58z M235.62,77.58c0,0,0.8-0.8,2.4-2.4c1.2-1.4,3.6-5.2,3.4-5.2
				c0,0-0.8,0.8-2.6,3.4C236.82,75.58,235.42,77.58,235.62,77.58z M237.42,56.98c-0.2-0.2-0.6-0.2-0.8,0
				C236.02,57.18,237.62,57.38,237.42,56.98z"/>
			<path class="st0" d="M271.81,56.24c2.23-4.45,1.93-2.67-2.97-2.82c-6.38-0.3-4.6,2.08-9.5,1.04l-0.45-1.63
				c0.15-0.3,0.74-0.89,1.04-1.04l-0.59-0.45c-2.82-1.34,3.86-1.34,1.04-2.67c-1.93-1.04-0.89-1.04-2.08-3.27
				c3.41-9.06,23.01-7.42,37.12-7.87c11.88,0.3,13.36,0.15,13.81,2.67c0.45,0,0.74,1.04,0.45,1.48c-0.3,0.3-0.3,0.3,0,0.45
				c0.45,0.3-1.04,1.19-1.19,1.48c0.3,0.15,1.04,0.3,1.49,0.45c-2.08,1.19-4.9,0.89-0.74,1.78c1.34,0.45-0.45,0.89,0.45,1.63
				c0.59,0.59,0.3,0.74-0.45,0.74c0.89,3.71-1.48,4.01-12.47,4.6c-3.12,0.45-6.53-0.74-7.27,1.19c-0.45,1.93-3.41,9.06-7.57,17.52
				c-6.98,14.55-14.85,32.37-21.38,47.95c-0.45,1.93-1.48,2.38-2.97,2.67l-0.15-1.48c0-2.82,0.59-2.23-1.63-1.93
				c-0.45-0.89,1.63-4.45-0.89-3.56c-1.19,0.3-0.89-0.59-1.63-0.74C244.19,110.87,267.2,69.75,271.81,56.24z M262.9,105.53
				c8.31-20.04,17.37-36.52,23.9-52.26c0.15-1.34-3.41,6.53-3.56,6.24c-5.34,9.06-22.27,49.29-24.2,54.49
				C258.44,115.92,259.78,113.25,262.9,105.53z M262.75,100.03c8.61-20.64,15.14-30.88,20.49-46.77
				c-5.64,8.02-22.12,50.03-23.75,54.04C259.48,107.75,259.78,106.86,262.75,100.03z M267.65,49.7c1.63-0.3,1.63-0.3-0.74-0.15
				c-1.34,0-2.82,0.15-3.27,0.3C262.45,50.45,266.91,49.7,267.65,49.7z M265.57,43.02c0.15,0.15,0.89-0.15,1.63-0.3
				C270.02,41.84,264.68,43.02,265.57,43.02z M265.57,47.48c1.04,1.04,2.97-0.15,6.53-0.15c4.75-0.45,5.49-0.74,5.49-1.48
				c0-0.3-2.08-0.3-7.87,0.3C266.02,46.59,265.42,46.59,265.57,47.48z M273.74,49.7c-2.38,0-6.98,0.3-8.17,0.89
				c0.89,0.45,3.56-0.45,5.94-0.3C276.11,50,275.67,49.7,273.74,49.7z M265.72,77.91c0.45-0.45,10.54-23.16,10.99-24.65
				c-0.45-0.45-4.16,7.87-8.76,18.86C265.72,77.76,265.57,78.06,265.72,77.91z M269.58,42.13c-0.3-0.15-0.45-0.15-0.74,0
				C268.39,42.28,270.02,42.28,269.58,42.13z M268.99,79.84c0.15,0.3,0.59-0.74,0.45-0.74C269.28,78.8,268.84,79.84,268.99,79.84z
				 M270.32,77.17c-0.15-0.3-0.59,0.74-0.59,0.89C269.88,78.21,270.32,77.32,270.32,77.17z M271.51,49.11h-1.34
				C269.43,49.26,272.25,49.26,271.51,49.11z M272.4,72.57c1.19-2.97,6.09-12.92,6.83-15.44c0.3-1.78-8.02,16.93-8.91,19.6
				C270.32,77.17,270.77,76.28,272.4,72.57z M305.36,45.84c0.15-0.45,1.78,0.3,0.59-0.45c-0.45-0.3-1.48-0.45-9.95-0.3
				c-5.49,0.45-9.65-0.3-9.65,0.89C283.98,46.88,306.25,45.99,305.36,45.84z M302.09,48.67c-5.05,0-13.81,0.3-12.47,0.74
				c2.23,0.45,8.76-0.15,11.73-0.15C307.14,48.81,305.66,48.67,302.09,48.67z M308.63,47.77c0.74,0.3,1.19,0,0.74-0.3
				C309.07,47.18,307.73,47.48,308.63,47.77z"/>
			<path class="st0" d="M301.8,73.9c1.63-4.9,13.06-33.55,19.15-33.55c0.59,0,1.19,0.15,1.93,0.59c1.93,1.04,2.52,1.48,2.23,2.08
				c-0.15,0.3-0.3,0.59-0.15,0.74c0.15,0,0,0.3-0.3,0.3c-0.59,0.3-3.12,4.01-5.49,8.17c-5.49,9.8-10.39,21.23-13.07,32.22
				c0,0.15,0.59-1.34,1.19-2.97c2.38-6.24,8.76-20.04,12.92-28.06c2.97-5.49,5.64-9.95,5.94-9.95c0.45,0,0,1.93-0.59,3.27
				c-5.64,9.5-10.69,19.6-14.99,29.84c-1.34,3.71-3.12,8.91-3.27,10.24c-0.15,0.89,0,0.45,0.74-1.48c0.45-1.34,1.04-2.67,1.19-2.97
				c0.15-0.15,0.89-1.78,1.49-3.41c3.12-8.02,11.43-25.68,14.85-31.47c0.74-1.34,1.19-2.38,1.19-2.97c0-1.04,0-0.89,1.19,0.59
				c4.01,5.05,1.19,4.16-4.75,15.59C313.53,79.4,311,87.41,311,93.2v0.89c8.46-0.45,20.49-21.23,29.25-44.69
				c2.67-7.13,4.31-11.13,5.05-11.58c0.59-0.59,2.52-0.45,2.52,0c0,0.45,0.15,0.45,0.45,0.15c0.3-0.3,0.45-0.3,0.45,0
				c0.3,0,0.45,0.15,0.45,0.45c0,0.45,0.15,0.59,0.45,0.45h0.45c0,0.59-1.19,4.75-2.23,7.57c-0.59,1.78-1.04,3.41-1.04,3.41
				c0.15,0.15,1.04-2.38,2.38-6.68c0.59-1.93,1.04-3.27,1.19-2.97c0,0.3,0,0.3,0.15,0c0.45-0.59,0.45-0.15-0.15,2.23
				c-1.49,5.64-6.68,18.85-11.73,29.54c-4.31,8.91-11.88,24.79-21.23,29.84c-1.78,0.89-2.08,1.19-1.49,1.19
				c0.3,0.15,1.63-0.45,3.12-1.19c3.86-1.63,7.87-6.38,10.24-9.65c4.16-6.68,10.24-18.56,15.59-30.88
				c3.56-8.46,4.16-10.24,5.49-15.59c0.74-2.67,1.34-4.6,1.63-4.75c0.74-0.15-0.74,6.83-2.38,11.28
				c-4.9,12.62-15.74,37.71-24.79,47.06c-1.34,1.48-1.93,2.23-1.78,2.23c0.15,0,1.19-0.89,2.97-2.67c4.31-4.16,8.61-11.43,15-25.09
				c2.67-5.34,10.54-21.82,11.13-28.06c0.59-2.97,1.04-4.45,1.04-3.71c0.15,0.3,0.3,0.74,0.45,0.89c0.59,0.45,0.59,2.82,0.15,5.79
				c-1.04,8.76-17.52,41.27-22.72,48.84c-2.23,3.12-7.42,8.31-9.8,9.65c-2.67,1.63-6.38,2.52-8.46,2.23
				c-2.08-0.3-3.12-0.89-4.6-2.52c-0.89-0.74-1.63-1.78-1.63-2.08c-0.15-0.3-0.3-0.59-0.45-0.59c-0.15,0-0.45-0.59-0.89-1.19
				c-0.3-0.74-1.63-2.08-2.67-3.12c-2.23-2.23-2.97-3.56-3.71-7.27C297.94,88.6,298.83,82.66,301.8,73.9z M304.77,73.16
				c0.15,0,1.04-2.23,2.08-4.75c1.04-2.67,2.23-5.49,2.67-6.38c0.3-0.89,0.74-2.08,0.89-2.38c0.15-0.59,0.15-0.59-0.15-0.15
				C309.22,60.84,303.87,74.05,304.77,73.16z M309.22,70.93c0.59-1.48,1.78-4.31,2.67-6.24c0.89-1.93,1.48-3.56,1.34-3.56
				c-0.15-0.3-4.45,9.65-5.2,12.17C307.74,74.65,308.18,73.61,309.22,70.93z M312.34,57.13c0,0.15,0.59-1.04,1.48-2.67
				c0.74-1.48,1.93-3.41,2.23-4.31c0.59-0.74,0.74-1.19,0.45-0.89C315.9,50,312.34,56.83,312.34,57.13z M312.78,59.21
				c0,0.45,0.15,0.15,1.19-1.93c0.59-1.04,1.04-1.93,0.89-1.93C314.71,55.35,312.78,59.06,312.78,59.21z M314.42,59.5
				c0,0.45,0.15,0.15,1.34-2.23c0.59-1.19,1.04-2.23,1.04-2.23C316.64,55.05,314.42,59.21,314.42,59.5z M317.39,54.31l0.59-1.19
				c0.3-0.59,0.45-1.04,0.45-1.04c-0.15,0-0.45,0.45-0.74,1.04C317.39,53.71,317.24,54.31,317.39,54.31z M318.57,51.78
				c0.15,0,0.3-0.3,0.45-0.45c0.15-0.45,0.3-0.59,0.15-0.59c0,0-0.15,0.15-0.3,0.59C318.57,51.49,318.57,51.78,318.57,51.78z
				 M320.95,103.89c1.49-0.74,2.67-1.63,4.31-3.27c0.89-1.04,1.93-1.93,2.23-2.23c-0.59,0.45-5.2,4.31-5.35,4.31
				c-0.74,0.45-3.56,1.93-3.56,2.08C318.57,105.08,318.87,104.93,320.95,103.89z M320.65,94.84c0.59-0.45,1.48-1.48,1.93-2.08
				c1.78-2.08,1.19-1.63-0.89,0.74C320.65,94.69,320.21,95.28,320.65,94.84z M321.39,56.68c0,0,1.04-1.78,2.67-4.9
				c1.48-2.67,2.67-5.05,2.52-5.05c-0.15-0.15-2.08,3.27-4.16,7.42C321.54,55.79,321.25,56.68,321.39,56.68z M323.03,96.47
				c0.59-0.45,1.48-1.63,2.23-2.52c1.63-1.93,0.89-1.48-1.34,1.34C323.03,96.32,322.58,96.77,323.03,96.47z M324.81,92.02
				c0.15,0,0.3-0.3,0.59-0.59c0.3-0.45,0.3-0.45-0.15,0C324.81,91.72,324.66,92.02,324.81,92.02z M327.03,85.19
				c5.64-8.02,12.32-23.61,15.74-32.96c0.74-1.78,1.19-3.27,1.19-3.27c0-0.15-0.3,0.45-0.59,1.19
				c-4.45,12.03-10.39,24.65-16.33,34.89C326.89,85.04,326.89,85.19,327.03,85.19z M328.82,88.31c0.15-0.15,0.89-1.48,1.78-2.82
				c1.48-2.52,6.98-13.06,6.98-13.51c0-0.15-1.19,2.08-2.82,4.9c-1.34,2.82-3.27,6.53-4.31,8.17
				C328.37,88.6,328.37,88.6,328.82,88.31z M342.33,61.58c2.82-6.83,4.45-11.13,4.31-11.28c0-0.15-0.3,0.59-0.74,1.63
				C345,54.6,340.55,65,339.06,67.97c-0.59,1.63-1.19,2.97-1.19,2.97C337.87,71.53,340.4,65.89,342.33,61.58z"/>
			<path class="st0" d="M337.72,106.27c0-7.13,5.49-22.27,15.59-42.31c4.01-8.02,4.16-8.46,3.86-9.35
				c-0.45-1.34,0.15-0.59,0.59-0.89c0-0.15-0.3-0.3-0.59-0.3c-1.48-0.15,4.16-1.34,2.23-1.63c-0.3,0-0.74,0.15-1.04,0.45
				c-0.74,0.74-3.27,0.15-1.63-0.45c1.04,0,0-1.48,1.04-1.34c1.34,0,5.64-2.67,5.05-3.12c-0.15-0.3-4.45,1.63-5.2,2.23
				c-0.89,0.89-0.74,0-1.48,0.15c-0.74-1.63-3.12-6.53,2.23-8.17c4.31-1.78,11.13-3.71,17.37-3.71c4.6,0,8.91,1.04,11.73,4.01
				c15.89,18.41-0.74,38.3-21.23,46.02c-0.89,0.45-1.78,0.74-1.78,0.74c2.08,4.6,15.74,19.75,18.85,19.75
				c1.63,0,3.41,2.97,0.74,2.67c-2.23,0-0.74,2.23-3.86,1.04c-0.3,0-0.45,0-0.59,0.59c-0.3,0.89-2.82,4.16-4.16,3.71
				c-8.46-0.89-19.45-12.62-23.16-20.93c-2.52,5.2-7.27,17.37-6.53,17.37c1.78,1.48-0.59,5.94-2.52,4.31
				c-0.59-0.59-0.3-2.08-1.19-2.52c-0.45-0.3-0.59-0.74-0.59-1.63C341.14,109.83,336.98,110.28,337.72,106.27z M347.67,98.85
				c0.15,0,0.59-1.04,1.63-3.56c0.74-1.78,1.34-3.27,1.34-3.41C350.2,92.17,347.52,98.85,347.67,98.85z M352.42,83.26
				c0-0.15-0.15-0.3-0.3-0.3c-0.15,0.15-3.86,9.35-3.86,9.5C348.27,92.61,352.87,83.26,352.42,83.26z M349.75,77.32
				c0.15,0,1.19-2.38,4.16-8.46c2.08-4.31,3.71-8.02,3.71-8.02C356.58,61.88,349.6,77.32,349.75,77.32z M352.72,86.97
				c0,0,0.15-0.15,0.45-0.3C353.76,85.63,352.27,86.67,352.72,86.97z M353.31,77.17c0,0,1.19-2.08,3.27-6.38
				c2.97-5.79,4.01-8.31,3.86-8.31c-0.15,0-1.34,2.23-3.12,5.94C354.5,74.35,353.16,77.17,353.31,77.17z M353.61,84.74
				c0.15,0.59,0.59,0.15,0.59-0.3C354.06,83.85,353.61,84.45,353.61,84.74z M355.99,76.72c0.74-1.04,12.03-23.31,12.47-23.61
				c-0.45,0-1.78,0.3-1.93,0.3C365.93,54.75,351.68,80.73,355.99,76.72z M357.47,47.48c0.15,0,0.3-0.3,0.59-0.45
				C358.96,45.84,357.02,47.63,357.47,47.48z M358.21,48.52c0-0.15,0-0.15-0.3-0.15C357.02,48.81,357.92,48.96,358.21,48.52z
				 M357.92,90.09c1.19,6.09,8.91,13.51,14.1,17.67c2.08,1.63,3.86,2.52,4.45,2.52c0.45,0,0-0.59-1.49-1.93
				C367.27,102.41,362.82,96.17,357.92,90.09z M358.66,83.85c0.74,0,2.67-0.45,4.31-1.04c9.5-3.86,22.12-11.43,25.09-20.78
				c-5.64,7.72-18.26,17.67-28.06,20.64C357.92,83.41,357.77,83.85,358.66,83.85z M358.21,76.13c0.3,0,3.12-4.9,6.24-11.43
				c4.31-8.02,5.94-11.73,5.64-11.73c-0.45,0-4.01,6.24-9.35,17.07C358.66,74.35,358.06,76.13,358.21,76.13z M361.48,55.2
				c0-0.3-0.15-0.15-0.45,0.59C360.29,57.13,361.63,55.49,361.48,55.2z M361.18,103.15c1.04,1.34,4.45,4.45,4.45,4.16
				c0,0-1.19-1.34-2.82-2.82C361.18,102.86,360.44,102.26,361.18,103.15z M371.72,102.56c0,0-1.04-1.34-2.38-2.97
				c-1.48-1.04-7.72-10.39-8.31-9.95C361.18,90.68,369.64,100.63,371.72,102.56z M362.96,58.61c0.59-1.19,0.3-1.04-0.15,0
				C362.22,59.65,362.52,59.5,362.96,58.61z M364.89,85.19c5.35-1.93,15-7.72,17.96-10.84c0.45-0.59,0.15-0.45-1.04,0.59
				c-6.09,4.9-13.66,8.31-19.15,10.54C362.67,85.78,363.26,85.78,364.89,85.19z M363.26,73.46c0.3,0,1.34-0.74,3.41-2.08
				c6.68-4.75,15.59-12.32,17.22-18.85c-0.74-0.74-9.35-0.59-11.28-0.15c-0.45,0-0.45,0.15-0.45,1.63c0,1.48-0.3,1.93-4.45,10.39
				C365.64,69.3,362.22,73.46,363.26,73.46z M363.71,94.54c3.12,4.75,10.54,13.66,15.44,14.7
				C374.39,105.53,368.16,100.03,363.71,94.54z M368.31,105.68c-0.15-0.3-3.41-3.41-4.6-4.45
				C364.75,102.26,368.61,106.42,368.31,105.68z M364.45,56.09c0.45-1.19,0.15-0.89-0.3,0C363.56,57.28,363.85,57.13,364.45,56.09z
				 M363.85,103.75l1.93,1.93c1.78,1.63,1.93,1.78,1.93,1.63C367.71,107.01,364.6,104.49,363.85,103.75z M365.34,108.05
				c0,0.89,5.2,4.6,5.64,4.01C370.83,111.91,365.78,108.35,365.34,108.05z M366.82,46.29c0.3,0.45,0.89,0.45,4.9-0.3
				c1.93-0.45,3.71-0.74,4.16-0.89C374.69,44.8,366.08,45.99,366.82,46.29z M367.86,74.5c0.74,0,10.54-7.57,11.28-8.46
				C380.04,65.29,367.57,74.5,367.86,74.5z M370.98,81.33c5.2-2.82,10.24-6.38,13.51-9.65c2.82-2.38,4.6-5.79,5.05-7.57
				c-1.34,1.34-5.49,7.72-5.79,7.27c-0.45-0.15,0.15,0.45-0.3,0.45c-3.27,2.52-7.57,6.53-13.06,9.5
				C367.27,83.11,367.71,83.11,370.98,81.33z M369.35,107.31c0.74,0.59,3.41,2.97,3.86,2.67c0-0.15-2.37-1.93-4.01-3.12
				C368.31,106.27,368.31,106.42,369.35,107.31z M374.84,73.9c0,0,0.89-0.74,3.27-2.52c1.48-1.19,3.12-2.97,4.6-4.31
				C380.63,69,374.69,73.9,374.84,73.9z M380.63,66.63c2.23-2.08,1.78-1.93-0.3,0C378.25,68.86,378.7,68.71,380.63,66.63z
				 M380.93,62.77c1.04-1.04,2.23-2.38,2.52-3.12c0.45-0.74,0.59-1.04,0.59-1.04c-0.3,0-2.52,3.12-4.01,4.9
				C379.44,64.25,379.59,64.11,380.93,62.77z M381.37,51.04h-0.59C380.19,51.19,381.82,51.19,381.37,51.04z M382.41,66.63
				c0,0,0.59-0.59,1.78-1.78c0.89-1.04,2.67-3.86,2.52-3.86c0,0-0.59,0.59-1.93,2.52C383.3,65.14,382.26,66.63,382.41,66.63z
				 M383.75,51.34c-0.15-0.15-0.45-0.15-0.59,0C382.71,51.49,383.9,51.63,383.75,51.34z"/>
			<path class="st0" d="M381.97,104.79c2.23-16.03,16.48-47.95,23.46-58.94c2.52-3.86,4.01-5.49,5.49-5.49
				c0.74,0,1.49,0.45,2.38,1.34c1.04,0.89,1.19,1.04,0.89,1.78c-0.15,0.45-0.15,0.59,0,0.59c0.45-0.3,0.15,0.74,0.45,0.15
				c0.74,1.04-10.1,20.49-10.84,22.86c-2.08,5.05-5.64,13.21-5.64,13.36c1.19-1.63,16.18-31.92,17.07-35.04
				c5.79,6.09-0.3,12.47-5.64,24.94c-7.72,15.44-11.43,24.65-17.22,38.9c-2.52,4.9-2.08,7.13-5.2,6.98c-0.15-0.3,0.3-1.04-0.15-1.19
				c-0.59-0.74,1.19-2.52,1.34-3.12c0.3-0.74,0.3-0.74-0.15-0.3c-1.04,0.89-1.78,1.48-2.08,1.48c-0.59-0.3,0.59-2.97,0.15-3.71
				c-0.15-0.59-0.3-0.89-0.3-0.45c0,1.19-1.04-0.59-0.89,1.63c-0.15-0.45-1.04-1.48-0.89-1.63c0.15-0.15,0-0.15-0.3,0
				c-1.04-0.15-0.59-0.74-1.34-1.48C381.82,106.86,381.82,106.72,381.97,104.79z M399.19,84.59c5.64-13.51,12.03-22.57,15.59-32.96
				c0.45-1.04,0.59-2.08,0.59-2.08c-0.15,0-0.59,0.74-1.63,2.97c-4.31,9.5-14.55,28.8-16.78,37.12
				C396.96,89.64,398,87.27,399.19,84.59z M407.36,48.52c0.45-0.89,1.19-1.93,1.48-2.38c0.3-2.97-8.76,15.14-9.65,17.96
				C399.64,63.66,406.91,49.11,407.36,48.52z M413,45.7c-0.3,0-10.54,19.3-9.95,19.3c0.74-1.04,8.46-16.18,9.06-17.22
				C412.85,46.29,413.15,45.7,413,45.7z"/>
			<path class="st0" d="M410.32,101.22c0.59-1.78,0.3-3.56,2.08-3.56c0.45,0,1.19,0.15,2.08,0.59c2.38,0.89,5.34,1.34,8.61,1.34
				c5.34,0,10.99-1.34,13.81-4.16c-8.02-7.72-22.12-15.89-20.93-28.06c0.89-11.58,8.91-20.04,19.3-27.32
				c6.38-3.71,10.39-6.09,14.1-6.09c5.79,0,14.7,8.46,14.99,14.25c0.45,5.94-3.71,15.89-11.88,28.21c-3.27,5.05-5.79,8.02-6.83,8.31
				c-1.34,0.45-2.37-1.34-1.04-2.08c1.34-0.74,4.9-5.64,7.72-10.39c1.04-1.93,0.15-0.59-2.67,3.56c-2.52,3.86-7.57,9.65-6.38,6.38
				c6.53-10.99,17.67-26.28,16.18-34.3c-2.67,8.31-7.27,18.11-15.89,31.48c-0.74,0.74-0.74,2.67-1.04,1.93
				c-0.59-0.59-0.3,1.04-1.34,0.3c-4.16-3.12-2.23-4.75,1.93-13.51c3.56-7.13,7.27-14.4,8.31-19.15
				c-10.69,3.86-29.4,19.75-22.27,30.14c7.57,6.09,21.08,12.03,22.27,22.86c0.15,6.68-12.62,14.4-20.79,12.92
				c-5.49-0.89-12.92-2.38-14.99-6.98c-0.15-0.59-1.04-1.34-1.19-2.08c-0.45-0.45,0.74,0.3,1.19,0.15
				C417.75,106.27,409.43,101.82,410.32,101.22z M419.97,62.03c1.04-3.56-0.3-1.48-0.74,1.04C419.08,64.7,419.38,64.11,419.97,62.03
				z M421.01,60.54c0.15,0,0.45-0.74,1.49-2.67c0.74-1.19,1.04-2.08,0.74-1.78C422.5,57.13,420.87,60.54,421.01,60.54z M422.5,64.25
				c0.15,0.59,0.74-1.63,0.74-1.78C423.09,62.47,422.35,64.25,422.5,64.25z M422.5,60.84c0.15,0.45,1.19-1.78,1.04-1.78
				C423.39,58.76,422.35,60.84,422.5,60.84z M423.39,69.15c0,0,0.89-1.78,1.78-3.86c1.93-8.02,13.36-17.52,17.96-21.08
				C434.67,48.67,422.35,59.65,423.39,69.15z M425.17,59.65c0.3-0.74,0-0.59-0.3,0C424.58,60.54,424.87,60.25,425.17,59.65z
				 M425.17,71.08c0-0.15,0.15-0.74,0.45-1.19c1.34-3.71,3.27-8.76,5.49-11.73C427.99,60.99,423.98,68.56,425.17,71.08z
				 M428.44,63.81c0.15,0,0.59-0.74,1.04-1.48c1.19-2.52,7.13-8.31,8.17-9.95C435.12,53.86,428.88,61.58,428.44,63.81z
				 M434.38,113.69h-2.08C430.81,113.84,435.71,113.84,434.38,113.69z M437.64,105.68c0.74-0.15,1.93-0.59,2.82-1.04
				c1.93-0.74,4.45-2.52,4.45-3.12c-0.45-1.19-0.59-1.04-2.52,0.59C442.1,103,435.12,106.27,437.64,105.68z M441.5,77.02
				c0-0.3-0.15-0.59-0.15-0.59C440.91,76.72,441.06,78.51,441.5,77.02z M441.21,108.35c1.34,0,5.94-3.41,6.53-4.6
				C447.89,103.45,440.61,108.35,441.21,108.35z M442.24,77.91c0,0.3,0.15,0.3,0.3-0.15C442.84,77.02,442.24,77.76,442.24,77.91z
				 M443.28,78.8c1.48-2.38-0.59,0.45-0.74,1.04C442.54,80.14,442.54,80.14,443.28,78.8z M444.03,72.72c0.59-1.19,0.15-0.89-0.3,0
				C443.14,73.9,443.58,73.61,444.03,72.72z M444.77,71.08c0.15,0,0.3-0.3,0.59-0.89C446.4,68.11,444.62,70.79,444.77,71.08z
				 M447.14,102.71c-0.3-0.3-0.89,0.3-1.49,1.34C445.36,104.79,447.44,102.71,447.14,102.71z M445.66,80.88
				c0.15,0,1.19-1.34,2.97-4.01c7.87-12.03,13.36-21.97,12.77-27.62c-2.23,8.46-6.68,17.37-13.66,28.06
				C446.25,79.69,445.51,80.88,445.66,80.88z M447.74,71.68c0.3-0.89,0-0.74-0.3,0C447,72.42,447.44,72.27,447.74,71.68z
				 M448.48,64.55c0.45-0.74,0-0.59-0.3,0C447.89,65.29,448.18,65.14,448.48,64.55z M448.48,70.19c0.45-0.74,0-0.59-0.3,0
				C447.89,71.08,448.18,70.93,448.48,70.19z M448.92,69.45c0,0,0.3-0.45,0.59-1.04C450.86,65.44,448.78,69,448.92,69.45z
				 M453.38,52.08c0.89-2.97,1.34-4.31,1.19-4.31c-0.15,0-1.78,4.01-3.27,8.76C451,57.87,452.64,54.01,453.38,52.08z M452.93,62.18
				c0.3-0.59,0.45-0.89,0.45-1.04c-0.15,0-0.45,0.45-0.59,0.89C452.19,63.21,452.34,63.21,452.93,62.18z M452.93,71.08
				c0.15,0,0.3-0.15,0.45-0.59C453.97,69.15,452.79,70.93,452.93,71.08z M454.27,69.15c0.3-0.74,0-0.59-0.3,0
				C453.53,70.04,453.97,69.75,454.27,69.15z M454.86,56.53c0.15,0,1.63-3.41,2.08-4.75c0.45-1.19,0.74-2.82,0.89-3.41
				c-0.15-0.74-1.63,4.75-2.08,5.49C455.01,55.94,454.86,56.53,454.86,56.53z"/>
			<path class="st0" d="M486.64,38.27c1.34,0,2.52,0.89,3.41,2.52c0.59-0.15,0.59-0.15,0.15,0.74c-0.45,0.89-0.3,1.48,0.15,0.89
				c1.34-1.19,1.19,0.89,2.08,0.74c0.45-0.15,1.78,2.38,1.78,3.41c4.45,5.64,0.45,19-0.15,27.32c4.75-3.86,11.13-13.06,16.78-17.82
				c8.91-8.17,13.51-14.7,21.97-16.48c2.97,0,4.16,1.63,5.05,3.12c0.3-0.3,0.3,0.3-0.15,1.19c-1.04,1.48,0.59,2.08,0.45,0.74v-0.74
				c0.3-0.3,1.34,0.3,1.34,0.89c0,0.3,0.15,0.59,0.15,0.59c0.59,0-0.15-1.04,0.3-0.45c0.45,0.45,1.34,2.97,1.34,4.01
				c-3.86,13.21-27.32,52.85-29.69,63.54c-0.59,1.78-1.48,4.45-2.37,4.45c-0.15,0-0.45-0.3-0.74-0.74c-0.3-0.59,0.45-3.12,0.45-3.56
				c0,0-0.45,0.3-0.89,0.74c-2.38,3.12-0.15-4.45-0.74-2.82c-0.15,0.74-0.59,0.59-0.59-0.15c0.15-1.04-1.04,0.45-1.04,0.59
				c0,0.59-0.45,0.45-0.59-0.15c-0.3-0.89-1.63-0.3-1.48-1.19c-0.89-0.3-1.49-0.45-1.19-3.12c0.45-5.2,3.56-14.7,8.46-27.32
				c2.23-4.31-3.86,3.27-9.35,8.17c-8.91,8.91-9.5,9.65-9.65,10.69c0,1.19-1.34,3.12-2.08,1.93c-0.15-0.15-0.89,0.45-2.08,1.63
				c-2.67,3.56-4.31,1.34-2.23-0.89c1.63-1.78,2.52-2.97,2.38-3.56c-0.3-0.59-4.45,4.9-4.6,3.56c0,0,4.45-5.49,3.56-5.34
				c0-0.89-2.97,2.97-2.97,2.23c0.15-1.04,1.19-2.67-0.45-0.45c-1.48,1.93-1.04-0.15-1.04-0.74c-0.59,1.34-1.34-0.59-1.78-0.74
				c-1.34,0,1.34-5.49,2.67-7.27c-0.15-5.79,0.3-15.14,0.45-20.04c-4.31,7.27-17.96,32.07-23.16,42.31c-2.08,4.75-5.2,9.2-4.16,2.82
				c1.63-4.16,3.27-7.57,6.24-13.21c4.16-8.76,19.75-34.59,22.27-43.35c-0.59,0.59-7.72,13.51-7.57,13.96c0,0.3-0.15,0.3-0.3,0.3
				c-0.3-0.15,0.15,0.74-0.15,0.89c-0.59,0.3,0-0.45-0.15-0.45c-0.15-0.15-1.19,1.63-0.74,1.48c0.45-0.15-0.15,0.74-0.3,0.45
				c-0.15,0-0.15,0.15,0,0.3c0,0.45,0,0.45-0.3,0.3c-0.45-0.15,0,1.04-0.59,1.34c-1.19,1.34-16.03,30.14-17.22,34
				c-1.04,2.52-2.67,4.9-3.27,4.31c-0.3,0.15,2.23-6.38,1.34-4.9c0.15,1.04-0.74,0-0.74,0.89c-0.15,0.89-0.74,0.3-0.59-0.15
				c0.3-1.04-0.89,0.15-1.04,0.59c-0.45,1.19-0.45-0.89-1.04-0.74c-0.3-0.15-0.3,0-0.3,0.15c-0.3,0.59-1.04-1.04-0.59-1.48
				c0-0.3-1.19,1.34-1.19-0.15C446.4,112.51,473.72,38.27,486.64,38.27z M459.91,100.48c2.97-6.09,6.53-12.77,12.17-23.01
				c13.36-24.35,13.96-25.83,14.55-29.1l0.15-1.04c-4.16,5.64-27.02,48.99-29.84,59.53C457.24,106.42,458.58,103.45,459.91,100.48z
				 M468.38,69.9c3.27-6.68,4.45-9.35,4.31-9.35c-0.3,0-11.73,22.57-12.17,24.79C462.59,81.77,464.81,76.87,468.38,69.9z
				 M461.1,92.91c0.15,0.3,0.89-1.34,0.74-1.34C461.7,91.27,460.95,92.91,461.1,92.91z M462.29,90.24c0.15,0,1.93-3.56,6.83-13.21
				c4.01-7.87,6.24-12.47,6.24-12.47c-0.15,0-1.63,2.67-4.9,8.76C467.34,79.25,462.14,90.24,462.29,90.24z M474.91,62.62
				c1.04-2.08,0.74-1.93-0.3,0C473.57,64.85,473.87,64.7,474.91,62.62z M474.61,59.21c0.15,0,1.04-1.34,2.23-3.56
				c2.08-4.16,4.75-8.17,5.79-10.24c-0.3,0-5.05,7.87-7.27,12.32C474.76,58.76,474.61,59.21,474.61,59.21z M479.07,54.6
				c-0.15,0-3.27,5.49-3.12,6.09c0.15-0.15,0.89-1.63,1.78-3.27C478.77,55.35,479.07,54.6,479.07,54.6z M477.14,62.18
				c0.15,0,0.3-0.3,0.59-0.89C478.77,59.21,476.99,61.88,477.14,62.18z M479.66,57.87c1.19-2.38,5.64-9.5,6.23-10.84
				c-0.3,0.15-6.38,9.95-7.42,12.62C478.47,59.65,479.07,58.91,479.66,57.87z M499.26,85.34c3.56-4.01,16.03-16.03,17.07-18.71
				c0.3-1.04-18.56,19.15-20.19,20.64l1.34-1.19c0.74-0.74,0.3-0.15-1.04,1.19c-3.27,3.12-4.16,4.16-4.31,5.2
				C491.83,93.35,491.09,94.1,499.26,85.34z M492.58,89.64c1.93-2.08,3.27-3.56,6.98-7.57c4.6-5.49,19.15-19,21.38-24.35
				c-4.16,2.97-15.29,15.29-24.5,25.39C492.13,88.16,492.58,86.97,492.58,89.64z M492.87,85.34c0.15,0,1.19-1.19,4.01-4.31
				c3.56-4.31,3.56-3.56,5.79-5.94C500.59,75.83,492.58,85.34,492.87,85.34z M493.17,79.84c0.15,0,1.34-1.34,4.31-4.9
				c1.63-1.93,2.37-2.97,2.37-2.97c-0.15,0-0.3,0.15-0.74,0.59C496.29,75.39,493.02,79.84,493.17,79.84z M494.65,48.67
				c0.15,0,0.3-0.15,0.3-0.3C494.65,47.48,494.06,48.81,494.65,48.67z M496.58,79.25c0.15,0,0.45-0.3,0.74-0.59
				C498.37,77.32,496.58,78.95,496.58,79.25z M499.11,76.43l0.89-0.89C498.96,76.28,497.03,78.65,499.11,76.43z M499.85,75.39
				c0.15,0,2.38-2.38,5.05-5.34c2.67-2.97,3.86-4.31,2.67-3.12C504.9,69.75,499.7,75.39,499.85,75.39z M501.04,71.83
				c0.15,0,1.19-1.19,3.86-4.01c0.74-1.04,10.84-11.58,10.54-11.58c0,0-0.3,0.3-0.89,0.89C511.28,60.25,500.89,71.83,501.04,71.83z
				 M505.05,72.42c1.19-1.19,4.31-4.6,7.13-7.42l4.75-5.2c-3.27,3.27-8.61,8.91-11.43,11.88C503.26,74.2,503.12,74.35,505.05,72.42z
				 M507.87,77.02c0,0,1.34-1.19,3.56-3.41c2.23-2.38,3.27-3.41,3.27-3.41c-0.15,0-1.34,1.19-3.56,3.41
				C508.76,75.83,507.72,77.02,507.87,77.02z M509.95,108.79c0.3,0,3.27-8.61,4.01-9.8c5.2-11.73,16.18-32.22,22.57-45.88
				c-0.59,0.59-3.12,3.56-2.52,3.71c0.3-0.15,0.3,0,0,0.3c-0.59,1.04-0.89,0.74-1.63,2.38c-0.45,0.89-0.74,1.63-0.59,1.48
				c0.15-0.15,0.3,0,0.15,0.15c-0.15,0.3-0.3,0.45-0.3,0.3c-0.45-0.15,0.15,0.89-0.45,0.89l-0.3,0.3c0,0.45-0.74,0.59-1.04,1.63
				c-0.45,0.89-0.59,1.48-0.45,1.34c0.45-0.3-0.15,0.74-0.3,0.45c-0.3-0.15,0.3,1.04-0.15,0.59c-0.3-0.15-0.3,0-0.15,0.3
				c0.3,0.74-0.59-0.3-0.3,0.45c-5.2,8.91-14.1,28.21-17.67,38.45C510.09,108.05,509.95,108.79,509.95,108.79z M510.09,102.56
				c0.15,0,0.89-1.93,2.97-6.83c4.31-9.95,14.85-30.73,18.85-37.71c-5.49,3.71-7.87,11.73-13.36,23.01
				C515.59,87.56,509.8,102.56,510.09,102.56z M512.62,82.66c0,0,0.74-1.48,2.37-5.34c2.08-4.6,2.52-5.64,1.78-4.75
				C516.03,73.76,512.47,82.66,512.62,82.66z M514.25,87.56c0.15,0.3,0.59-0.74,0.45-0.89C514.55,86.38,514.1,87.41,514.25,87.56z
				 M517.22,81.18c1.34-3.41,6.68-13.81,7.57-16.48c-0.74,0.45-8.46,17.07-9.95,21.23C514.25,87.41,515.29,85.48,517.22,81.18z
				 M528.65,51.63c0.15-0.3,0.74-0.89,1.04-1.48C530.88,47.77,528.06,51.78,528.65,51.63z M534.15,51.49
				c0.45-0.45,1.04-1.19,1.19-1.34c0.45-0.59,0.3-0.59-0.45,0C533.26,51.34,532.22,53.56,534.15,51.49z M537.12,47.18
				c0.15-0.3-0.45-0.3-0.45,0C536.82,47.63,536.97,47.48,537.12,47.18z"/>
			<path class="st0" d="M531.03,89.94c-0.59-11.28,15.29-49.14,28.95-49.14c1.04,0,1.93,0.3,2.82,0.59c1.19-2.23,3.12-3.12,5.2-3.12
				c4.01,0,8.76,2.97,10.69,6.09c20.79,21.68-14.7,67.55-35.04,64.29c-3.41-1.04-4.31-3.71-6.09-6.38
				C534.44,97.66,530.44,97.51,531.03,89.94z M536.82,75.69c0.15,0,0.59-1.19,1.93-4.45c0.89-2.08,3.27-7.57,3.12-7.57
				s-0.59,0.74-1.63,2.82C539.2,68.56,536.67,75.69,536.82,75.69z M539.64,84.3c1.19-2.52,3.86-9.2,5.64-12.92
				c5.2-11.73,10.84-18.26,15.59-24.79C552.56,50.89,541.57,73.46,539.64,84.3z M540.38,76.28c0,0,0.59-1.19,1.78-4.16
				c1.19-2.97,2.52-5.34,2.97-7.13C544.54,65,540.23,76.28,540.38,76.28z M540.38,89.34c0.45-0.3,0.74-2.38,1.48-4.01
				c3.12-9.8,12.17-26.28,15.29-31.18c-4.01,4.75-8.76,12.32-9.35,14.99C546.92,69.45,540.23,86.38,540.38,89.34z M545.13,93.8
				c14.25-4.01,28.95-28.65,29.25-41.27c0.89-5.05-3.41-1.93-5.94-3.12c-11.88,4.9-22.72,31.92-25.98,44.24
				C541.87,95.43,544.09,93.95,545.13,93.8z M544.69,60.39c1.04-1.78,3.56-5.64,4.31-6.98c-0.3,0-3.56,5.05-4.75,7.27
				C542.61,63.66,543.06,63.36,544.69,60.39z M545.73,61.73c0.45-1.04,0.15-0.89-0.3,0C544.84,62.92,545.28,62.77,545.73,61.73z
				 M547.06,108.05c0-0.15-0.3-0.15-0.45-0.15C546.02,108.05,547.36,108.2,547.06,108.05z M546.92,62.47c0.15,0,0.45-0.59,1.48-2.23
				c0.89-1.63,1.93-2.67,2.23-3.56C550.33,56.39,546.92,62.47,546.92,62.47z M552.41,100.03c12.32-4.01,27.47-25.68,27.47-37.12
				c-6.09,16.63-15.14,31.03-31.03,37.86C547.36,101.37,550.63,100.78,552.41,100.03z M552.71,62.47c0,0,0.89-1.19,2.67-3.71
				c2.82-4.31,5.64-7.42,7.87-10.24c-0.74,0-5.2,5.34-8.02,9.8C553.45,61.14,552.56,62.47,552.71,62.47z M554.04,102.86
				c0.15,0,1.04-0.45,2.97-1.48c4.16-2.23,8.46-5.79,11.73-9.8c2.38-2.97,2.67-3.41,0.74-1.19
				C567.11,94.69,553.3,102.86,554.04,102.86z M561.76,97.06c0.15,0,1.63-1.34,4.01-3.71c7.27-6.68,14.4-18.26,15.89-27.32
				c0.74-2.97,0.45-3.27-0.3-0.59c-1.34,4.9-5.34,13.06-6.83,15.89c-2.82,4.01-6.09,8.76-10.69,13.36
				C562.21,96.32,561.61,97.06,561.76,97.06z M566.36,86.52c1.93-2.52,2.52-3.41,2.52-3.41c-0.3,0-5.05,5.94-6.38,7.27
				C563.84,89.2,565.03,88.01,566.36,86.52z M566.36,45.25c0.15,0.3,1.19,0,1.63-0.45C569.18,43.77,566.22,44.8,566.36,45.25z
				 M566.51,83.26c0,0,0.3-0.3,0.45-0.59C567.85,81.62,565.92,83.41,566.51,83.26z M566.96,46.59c0,0.3,0.59,0.3,1.04,0
				C568.89,45.99,566.81,45.99,566.96,46.59z M568.29,48.67c0-0.15-0.15-0.15-0.3-0.3C567.11,48.22,568.29,49.11,568.29,48.67z
				 M567.85,81.33c0.15,0,0.3-0.3,0.45-0.45C569.18,79.84,567.26,81.48,567.85,81.33z M568,77.02c0,0,0.45-0.59,1.34-2.08
				c1.78-2.97,4.16-7.72,5.05-10.54c0.89-2.52,0.74-3.12-0.15-0.59C574.53,64.25,567.55,77.02,568,77.02z M570.08,80.58
				c0.3,0.3,0.3,0.15,0.59,0C570.82,80.14,569.93,80.14,570.08,80.58z M571.12,48.81h-0.74C569.63,48.96,571.71,48.96,571.12,48.81z
				 M571.41,78.36c2.38-3.41,6.24-12.03,6.83-14.55c0-0.45-0.3,0.15-0.74,1.48c-1.93,4.9-5.49,11.43-7.13,14.7
				C570.37,79.99,570.97,79.25,571.41,78.36z M582.4,62.92c0.15-0.3,0.3-0.74,0.3-1.34C582.84,59.35,581.95,63.51,582.4,62.92z"/>
		</g>
	</g>
</g>
</svg>
